<?xml version="1.0" encoding="UTF-8" standalone="no"?>
<!DOCTYPE svg PUBLIC "-//W3C//DTD SVG 1.1//EN"
 "http://www.w3.org/Graphics/SVG/1.1/DTD/svg11.dtd">
<!-- Generated by graphviz version 2.38.0 (20140413.2041)
 -->
<!-- Title: dependencies Pages: 1 -->
<svg width="504pt" height="284pt"
 viewBox="0.00 0.00 504.00 284.00" xmlns="http://www.w3.org/2000/svg" xmlns:xlink="http://www.w3.org/1999/xlink">
<g id="graph0" class="graph" transform="scale(1 1) rotate(0) translate(4 280)">
<title>dependencies</title>
<polygon fill="white" stroke="none" points="-4,4 -4,-280 500,-280 500,4 -4,4"/>
<text text-anchor="start" x="227.009" y="-42.4" font-family="sans-serif" font-weight="bold" font-size="14.00">Legend</text>
<polygon fill="#ffffb3" stroke="none" points="14,-10 14,-30 34,-30 34,-10 14,-10"/>
<text text-anchor="start" x="37.629" y="-15.4" font-family="sans-serif" font-size="14.00"> &#160;Declarations</text>
<polygon fill="#8dd3c7" stroke="none" points="127,-10 127,-30 147,-30 147,-10 127,-10"/>
<text text-anchor="start" x="150.725" y="-15.4" font-family="sans-serif" font-size="14.00"> &#160;Module</text>
<polygon fill="#80b1d3" stroke="none" points="213,-10 213,-30 233,-30 233,-10 213,-10"/>
<text text-anchor="start" x="236.781" y="-15.4" font-family="sans-serif" font-size="14.00"> &#160;Bootstrap</text>
<polygon fill="#fdb462" stroke="none" points="310,-10 310,-30 330,-30 330,-10 310,-10"/>
<text text-anchor="start" x="333.673" y="-15.4" font-family="sans-serif" font-size="14.00"> &#160;Providers</text>
<polygon fill="#fb8072" stroke="none" points="406,-10 406,-30 426,-30 426,-10 406,-10"/>
<text text-anchor="start" x="429.726" y="-15.4" font-family="sans-serif" font-size="14.00"> &#160;Exports</text>
<g id="clust1" class="cluster"><title>cluster_SharedModule</title>
<polygon fill="none" stroke="black" stroke-dasharray="1,5" points="56,-70 56,-268 440,-268 440,-70 56,-70"/>
</g>
<g id="clust3" class="cluster"><title>cluster_SharedModule_imports</title>
<polygon fill="none" stroke="black" points="124,-78 124,-130 368,-130 368,-78 124,-78"/>
</g>
<g id="clust4" class="cluster"><title>cluster_SharedModule_exports</title>
<polygon fill="none" stroke="black" points="64,-208 64,-260 432,-260 432,-208 64,-208"/>
</g>
<!-- CommonModule -->
<g id="node1" class="node"><title>CommonModule</title>
<polygon fill="#8dd3c7" stroke="black" points="359.668,-122 356.668,-126 335.668,-126 332.668,-122 248.332,-122 248.332,-86 359.668,-86 359.668,-122"/>
<text text-anchor="middle" x="304" y="-99.8" font-family="Times,serif" font-size="14.00">CommonModule</text>
</g>
<!-- SharedModule -->
<g id="node3" class="node"><title>SharedModule</title>
<polygon fill="#8dd3c7" stroke="black" points="290.423,-187 287.423,-191 266.423,-191 263.423,-187 191.577,-187 191.577,-151 290.423,-151 290.423,-187"/>
<text text-anchor="middle" x="241" y="-164.8" font-family="Times,serif" font-size="14.00">SharedModule</text>
</g>
<!-- CommonModule&#45;&gt;SharedModule -->
<g id="edge1" class="edge"><title>CommonModule&#45;&gt;SharedModule</title>
<path fill="none" stroke="black" d="M269.189,-122.106C269.189,-122.106 269.189,-140.991 269.189,-140.991"/>
<polygon fill="black" stroke="black" points="265.689,-140.991 269.189,-150.991 272.689,-140.991 265.689,-140.991"/>
</g>
<!-- RouterModule -->
<g id="node2" class="node"><title>RouterModule</title>
<polygon fill="#8dd3c7" stroke="black" points="229.653,-122 226.653,-126 205.653,-126 202.653,-122 132.347,-122 132.347,-86 229.653,-86 229.653,-122"/>
<text text-anchor="middle" x="181" y="-99.8" font-family="Times,serif" font-size="14.00">RouterModule</text>
</g>
<!-- RouterModule&#45;&gt;SharedModule -->
<g id="edge2" class="edge"><title>RouterModule&#45;&gt;SharedModule</title>
<path fill="none" stroke="black" d="M210.808,-122.106C210.808,-122.106 210.808,-140.991 210.808,-140.991"/>
<polygon fill="black" stroke="black" points="207.308,-140.991 210.808,-150.991 214.308,-140.991 207.308,-140.991"/>
</g>
<!-- CommonModule  -->
<g id="node4" class="node"><title>CommonModule </title>
<polygon fill="#fb8072" stroke="black" points="423.668,-252 308.332,-252 308.332,-216 423.668,-216 423.668,-252"/>
<text text-anchor="middle" x="366" y="-229.8" font-family="Times,serif" font-size="14.00">CommonModule </text>
</g>
<!-- SharedModule&#45;&gt;CommonModule  -->
<g id="edge3" class="edge"><title>SharedModule&#45;&gt;CommonModule </title>
<path fill="none" stroke="black" stroke-dasharray="5,2" d="M290.289,-169C312.627,-169 334.125,-169 334.125,-169 334.125,-169 334.125,-205.894 334.125,-205.894"/>
<polygon fill="black" stroke="black" points="330.625,-205.894 334.125,-215.894 337.625,-205.894 330.625,-205.894"/>
</g>
<!-- FormsModule  -->
<g id="node5" class="node"><title>FormsModule </title>
<polygon fill="#fb8072" stroke="black" points="290.328,-252 191.672,-252 191.672,-216 290.328,-216 290.328,-252"/>
<text text-anchor="middle" x="241" y="-229.8" font-family="Times,serif" font-size="14.00">FormsModule </text>
</g>
<!-- SharedModule&#45;&gt;FormsModule  -->
<g id="edge4" class="edge"><title>SharedModule&#45;&gt;FormsModule </title>
<path fill="none" stroke="black" stroke-dasharray="5,2" d="M241,-187.106C241,-187.106 241,-205.991 241,-205.991"/>
<polygon fill="black" stroke="black" points="237.5,-205.991 241,-215.991 244.5,-205.991 237.5,-205.991"/>
</g>
<!-- RouterModule  -->
<g id="node6" class="node"><title>RouterModule </title>
<polygon fill="#fb8072" stroke="black" points="173.652,-252 72.3477,-252 72.3477,-216 173.652,-216 173.652,-252"/>
<text text-anchor="middle" x="123" y="-229.8" font-family="Times,serif" font-size="14.00">RouterModule </text>
</g>
<!-- SharedModule&#45;&gt;RouterModule  -->
<g id="edge5" class="edge"><title>SharedModule&#45;&gt;RouterModule </title>
<path fill="none" stroke="black" stroke-dasharray="5,2" d="M191.784,-169C171.598,-169 152.875,-169 152.875,-169 152.875,-169 152.875,-205.894 152.875,-205.894"/>
<polygon fill="black" stroke="black" points="149.375,-205.894 152.875,-215.894 156.375,-205.894 149.375,-205.894"/>
</g>
</g>
</svg>
