<?xml version="1.0" encoding="UTF-8" standalone="no"?>
<!DOCTYPE svg PUBLIC "-//W3C//DTD SVG 1.1//EN"
 "http://www.w3.org/Graphics/SVG/1.1/DTD/svg11.dtd">
<!-- Generated by graphviz version 2.40.1 (20161225.0304)
 -->
<!-- Title: dependencies Pages: 1 -->
<svg width="602pt" height="211pt"
 viewBox="0.00 0.00 602.00 211.00" xmlns="http://www.w3.org/2000/svg" xmlns:xlink="http://www.w3.org/1999/xlink">
<g id="graph0" class="graph" transform="scale(1 1) rotate(0) translate(4 207)">
<title>dependencies</title>
<polygon fill="#ffffff" stroke="transparent" points="-4,4 -4,-207 598,-207 598,4 -4,4"/>
<text text-anchor="start" x="276.0091" y="-42.4" font-family="sans-serif" font-weight="bold" font-size="14.00" fill="#000000">Legend</text>
<polygon fill="#ffffb3" stroke="transparent" points="63,-10 63,-30 83,-30 83,-10 63,-10"/>
<text text-anchor="start" x="86.629" y="-15.4" font-family="sans-serif" font-size="14.00" fill="#000000"> &#160;Declarations</text>
<polygon fill="#8dd3c7" stroke="transparent" points="176,-10 176,-30 196,-30 196,-10 176,-10"/>
<text text-anchor="start" x="199.7251" y="-15.4" font-family="sans-serif" font-size="14.00" fill="#000000"> &#160;Module</text>
<polygon fill="#80b1d3" stroke="transparent" points="262,-10 262,-30 282,-30 282,-10 262,-10"/>
<text text-anchor="start" x="285.7812" y="-15.4" font-family="sans-serif" font-size="14.00" fill="#000000"> &#160;Bootstrap</text>
<polygon fill="#fdb462" stroke="transparent" points="359,-10 359,-30 379,-30 379,-10 359,-10"/>
<text text-anchor="start" x="382.6732" y="-15.4" font-family="sans-serif" font-size="14.00" fill="#000000"> &#160;Providers</text>
<polygon fill="#fb8072" stroke="transparent" points="455,-10 455,-30 475,-30 475,-10 455,-10"/>
<text text-anchor="start" x="478.7258" y="-15.4" font-family="sans-serif" font-size="14.00" fill="#000000"> &#160;Exports</text>
<g id="clust1" class="cluster">
<title>cluster_FormModule</title>
<polygon fill="none" stroke="#000000" stroke-dasharray="1,5" points="8,-70 8,-195 586,-195 586,-70 8,-70"/>
</g>
<g id="clust2" class="cluster">
<title>cluster_FormModule_declarations</title>
<polygon fill="none" stroke="#000000" points="450,-78 450,-130 578,-130 578,-78 450,-78"/>
</g>
<g id="clust4" class="cluster">
<title>cluster_FormModule_imports</title>
<polygon fill="none" stroke="#000000" points="16,-78 16,-130 442,-130 442,-78 16,-78"/>
</g>
<!-- FormComponent -->
<g id="node1" class="node">
<title>FormComponent</title>
<polygon fill="#ffffb3" stroke="#000000" points="569.6667,-122 458.3333,-122 458.3333,-86 569.6667,-86 569.6667,-122"/>
<text text-anchor="middle" x="514" y="-99.8" font-family="Times,serif" font-size="14.00" fill="#000000">FormComponent</text>
</g>
<!-- FormModule -->
<g id="node2" class="node">
<title>FormModule</title>
<polygon fill="#8dd3c7" stroke="#000000" points="351.8837,-187 348.8837,-191 327.8837,-191 324.8837,-187 262.1163,-187 262.1163,-151 351.8837,-151 351.8837,-187"/>
<text text-anchor="middle" x="307" y="-164.8" font-family="Times,serif" font-size="14.00" fill="#000000">FormModule</text>
</g>
<!-- FormComponent&#45;&gt;FormModule -->
<g id="edge1" class="edge">
<title>FormComponent&#45;&gt;FormModule</title>
<path fill="none" stroke="#000000" d="M514,-122.1061C514,-141.3391 514,-169 514,-169 514,-169 361.9159,-169 361.9159,-169"/>
<polygon fill="#000000" stroke="#000000" points="361.916,-165.5001 351.9159,-169 361.9159,-172.5001 361.916,-165.5001"/>
</g>
<!-- CommonModule -->
<g id="node3" class="node">
<title>CommonModule</title>
<polygon fill="#8dd3c7" stroke="#000000" points="433.6681,-122 430.6681,-126 409.6681,-126 406.6681,-122 322.3319,-122 322.3319,-86 433.6681,-86 433.6681,-122"/>
<text text-anchor="middle" x="378" y="-99.8" font-family="Times,serif" font-size="14.00" fill="#000000">CommonModule</text>
</g>
<!-- CommonModule&#45;&gt;FormModule -->
<g id="edge2" class="edge">
<title>CommonModule&#45;&gt;FormModule</title>
<path fill="none" stroke="#000000" d="M337.054,-122.1061C337.054,-122.1061 337.054,-140.991 337.054,-140.991"/>
<polygon fill="#000000" stroke="#000000" points="333.5541,-140.9909 337.054,-150.991 340.5541,-140.991 333.5541,-140.9909"/>
</g>
<!-- FormRoutingModule -->
<g id="node4" class="node">
<title>FormRoutingModule</title>
<polygon fill="#8dd3c7" stroke="#000000" points="304.5014,-122 301.5014,-126 280.5014,-126 277.5014,-122 169.4986,-122 169.4986,-86 304.5014,-86 304.5014,-122"/>
<text text-anchor="middle" x="237" y="-99.8" font-family="Times,serif" font-size="14.00" fill="#000000">FormRoutingModule</text>
</g>
<!-- FormRoutingModule&#45;&gt;FormModule -->
<g id="edge3" class="edge">
<title>FormRoutingModule&#45;&gt;FormModule</title>
<path fill="none" stroke="#000000" d="M283.2795,-122.1061C283.2795,-122.1061 283.2795,-140.991 283.2795,-140.991"/>
<polygon fill="#000000" stroke="#000000" points="279.7795,-140.9909 283.2795,-150.991 286.7795,-140.991 279.7795,-140.9909"/>
</g>
<!-- PageHeaderModule -->
<g id="node5" class="node">
<title>PageHeaderModule</title>
<polygon fill="#8dd3c7" stroke="#000000" points="151.6727,-122 148.6727,-126 127.6727,-126 124.6727,-122 24.3273,-122 24.3273,-86 151.6727,-86 151.6727,-122"/>
<text text-anchor="middle" x="88" y="-99.8" font-family="Times,serif" font-size="14.00" fill="#000000">PageHeaderModule</text>
</g>
<!-- PageHeaderModule&#45;&gt;FormModule -->
<g id="edge4" class="edge">
<title>PageHeaderModule&#45;&gt;FormModule</title>
<path fill="none" stroke="#000000" d="M88,-122.1061C88,-141.3391 88,-169 88,-169 88,-169 251.8886,-169 251.8886,-169"/>
<polygon fill="#000000" stroke="#000000" points="251.8886,-172.5001 261.8886,-169 251.8886,-165.5001 251.8886,-172.5001"/>
</g>
</g>
</svg>
