<?xml version="1.0" encoding="UTF-8" standalone="no"?>
<!DOCTYPE svg PUBLIC "-//W3C//DTD SVG 1.1//EN"
 "http://www.w3.org/Graphics/SVG/1.1/DTD/svg11.dtd">
<!-- Generated by graphviz version 2.38.0 (20140413.2041)
 -->
<!-- Title: dependencies Pages: 1 -->
<svg width="504pt" height="284pt"
 viewBox="0.00 0.00 504.00 284.00" xmlns="http://www.w3.org/2000/svg" xmlns:xlink="http://www.w3.org/1999/xlink">
<g id="graph0" class="graph" transform="scale(1 1) rotate(0) translate(4 280)">
<title>dependencies</title>
<polygon fill="white" stroke="none" points="-4,4 -4,-280 500,-280 500,4 -4,4"/>
<text text-anchor="start" x="227.009" y="-42.4" font-family="sans-serif" font-weight="bold" font-size="14.00">Legend</text>
<polygon fill="#ffffb3" stroke="none" points="14,-10 14,-30 34,-30 34,-10 14,-10"/>
<text text-anchor="start" x="37.629" y="-15.4" font-family="sans-serif" font-size="14.00"> &#160;Declarations</text>
<polygon fill="#8dd3c7" stroke="none" points="127,-10 127,-30 147,-30 147,-10 127,-10"/>
<text text-anchor="start" x="150.725" y="-15.4" font-family="sans-serif" font-size="14.00"> &#160;Module</text>
<polygon fill="#80b1d3" stroke="none" points="213,-10 213,-30 233,-30 233,-10 213,-10"/>
<text text-anchor="start" x="236.781" y="-15.4" font-family="sans-serif" font-size="14.00"> &#160;Bootstrap</text>
<polygon fill="#fdb462" stroke="none" points="310,-10 310,-30 330,-30 330,-10 310,-10"/>
<text text-anchor="start" x="333.673" y="-15.4" font-family="sans-serif" font-size="14.00"> &#160;Providers</text>
<polygon fill="#fb8072" stroke="none" points="406,-10 406,-30 426,-30 426,-10 406,-10"/>
<text text-anchor="start" x="429.726" y="-15.4" font-family="sans-serif" font-size="14.00"> &#160;Exports</text>
<g id="clust1" class="cluster"><title>cluster_FormModule</title>
<polygon fill="none" stroke="black" stroke-dasharray="1,5" points="115,-70 115,-268 381,-268 381,-70 115,-70"/>
</g>
<g id="clust2" class="cluster"><title>cluster_FormModule_declarations</title>
<polygon fill="none" stroke="black" points="245,-78 245,-130 373,-130 373,-78 245,-78"/>
</g>
<g id="clust4" class="cluster"><title>cluster_FormModule_imports</title>
<polygon fill="none" stroke="black" points="123,-78 123,-130 237,-130 237,-78 123,-78"/>
</g>
<g id="clust5" class="cluster"><title>cluster_FormModule_exports</title>
<polygon fill="none" stroke="black" points="182,-208 182,-260 314,-260 314,-208 182,-208"/>
</g>
<!-- FormComponent -->
<g id="node1" class="node"><title>FormComponent</title>
<polygon fill="#ffffb3" stroke="black" points="364.667,-122 253.333,-122 253.333,-86 364.667,-86 364.667,-122"/>
<text text-anchor="middle" x="309" y="-99.8" font-family="Times,serif" font-size="14.00">FormComponent</text>
</g>
<!-- FormModule -->
<g id="node2" class="node"><title>FormModule</title>
<polygon fill="#8dd3c7" stroke="black" points="292.884,-187 289.884,-191 268.884,-191 265.884,-187 203.116,-187 203.116,-151 292.884,-151 292.884,-187"/>
<text text-anchor="middle" x="248" y="-164.8" font-family="Times,serif" font-size="14.00">FormModule</text>
</g>
<!-- FormComponent&#45;&gt;FormModule -->
<g id="edge1" class="edge"><title>FormComponent&#45;&gt;FormModule</title>
<path fill="none" stroke="black" d="M273.054,-122.106C273.054,-122.106 273.054,-140.991 273.054,-140.991"/>
<polygon fill="black" stroke="black" points="269.554,-140.991 273.054,-150.991 276.554,-140.991 269.554,-140.991"/>
</g>
<!-- FormComponent  -->
<g id="node4" class="node"><title>FormComponent </title>
<polygon fill="#fb8072" stroke="black" points="305.666,-252 190.334,-252 190.334,-216 305.666,-216 305.666,-252"/>
<text text-anchor="middle" x="248" y="-229.8" font-family="Times,serif" font-size="14.00">FormComponent </text>
</g>
<!-- FormModule&#45;&gt;FormComponent  -->
<g id="edge3" class="edge"><title>FormModule&#45;&gt;FormComponent </title>
<path fill="none" stroke="black" stroke-dasharray="5,2" d="M248,-187.106C248,-187.106 248,-205.991 248,-205.991"/>
<polygon fill="black" stroke="black" points="244.5,-205.991 248,-215.991 251.5,-205.991 244.5,-205.991"/>
</g>
<!-- RouterModule -->
<g id="node3" class="node"><title>RouterModule</title>
<polygon fill="#8dd3c7" stroke="black" points="228.653,-122 225.653,-126 204.653,-126 201.653,-122 131.347,-122 131.347,-86 228.653,-86 228.653,-122"/>
<text text-anchor="middle" x="180" y="-99.8" font-family="Times,serif" font-size="14.00">RouterModule</text>
</g>
<!-- RouterModule&#45;&gt;FormModule -->
<g id="edge2" class="edge"><title>RouterModule&#45;&gt;FormModule</title>
<path fill="none" stroke="black" d="M215.942,-122.106C215.942,-122.106 215.942,-140.991 215.942,-140.991"/>
<polygon fill="black" stroke="black" points="212.442,-140.991 215.942,-150.991 219.442,-140.991 212.442,-140.991"/>
</g>
</g>
</svg>
