<?xml version="1.0" encoding="UTF-8" standalone="no"?>
<!DOCTYPE svg PUBLIC "-//W3C//DTD SVG 1.1//EN"
 "http://www.w3.org/Graphics/SVG/1.1/DTD/svg11.dtd">
<!-- Generated by graphviz version 2.40.1 (20161225.0304)
 -->
<!-- Title: dependencies Pages: 1 -->
<svg width="1453pt" height="211pt"
 viewBox="0.00 0.00 1453.00 211.00" xmlns="http://www.w3.org/2000/svg" xmlns:xlink="http://www.w3.org/1999/xlink">
<g id="graph0" class="graph" transform="scale(1 1) rotate(0) translate(4 207)">
<title>dependencies</title>
<polygon fill="#ffffff" stroke="transparent" points="-4,4 -4,-207 1449,-207 1449,4 -4,4"/>
<text text-anchor="start" x="701.5091" y="-42.4" font-family="sans-serif" font-weight="bold" font-size="14.00" fill="#000000">Legend</text>
<polygon fill="#ffffb3" stroke="transparent" points="488.5,-10 488.5,-30 508.5,-30 508.5,-10 488.5,-10"/>
<text text-anchor="start" x="512.129" y="-15.4" font-family="sans-serif" font-size="14.00" fill="#000000"> &#160;Declarations</text>
<polygon fill="#8dd3c7" stroke="transparent" points="601.5,-10 601.5,-30 621.5,-30 621.5,-10 601.5,-10"/>
<text text-anchor="start" x="625.2251" y="-15.4" font-family="sans-serif" font-size="14.00" fill="#000000"> &#160;Module</text>
<polygon fill="#80b1d3" stroke="transparent" points="687.5,-10 687.5,-30 707.5,-30 707.5,-10 687.5,-10"/>
<text text-anchor="start" x="711.2812" y="-15.4" font-family="sans-serif" font-size="14.00" fill="#000000"> &#160;Bootstrap</text>
<polygon fill="#fdb462" stroke="transparent" points="784.5,-10 784.5,-30 804.5,-30 804.5,-10 784.5,-10"/>
<text text-anchor="start" x="808.1732" y="-15.4" font-family="sans-serif" font-size="14.00" fill="#000000"> &#160;Providers</text>
<polygon fill="#fb8072" stroke="transparent" points="880.5,-10 880.5,-30 900.5,-30 900.5,-10 880.5,-10"/>
<text text-anchor="start" x="904.2258" y="-15.4" font-family="sans-serif" font-size="14.00" fill="#000000"> &#160;Exports</text>
<g id="clust1" class="cluster">
<title>cluster_DashboardModule</title>
<polygon fill="none" stroke="#000000" stroke-dasharray="1,5" points="8,-70 8,-195 1437,-195 1437,-70 8,-70"/>
</g>
<g id="clust2" class="cluster">
<title>cluster_DashboardModule_declarations</title>
<polygon fill="none" stroke="#000000" points="829,-78 829,-130 1429,-130 1429,-78 829,-78"/>
</g>
<g id="clust7" class="cluster">
<title>cluster_DashboardModule_imports</title>
<polygon fill="none" stroke="#000000" points="16,-78 16,-130 821,-130 821,-78 16,-78"/>
</g>
<!-- DashboardComponent -->
<g id="node1" class="node">
<title>DashboardComponent</title>
<polygon fill="#ffffb3" stroke="#000000" points="1420.9734,-122 1279.0266,-122 1279.0266,-86 1420.9734,-86 1420.9734,-122"/>
<text text-anchor="middle" x="1350" y="-99.8" font-family="Times,serif" font-size="14.00" fill="#000000">DashboardComponent</text>
</g>
<!-- DashboardModule -->
<g id="node5" class="node">
<title>DashboardModule</title>
<polygon fill="#8dd3c7" stroke="#000000" points="817.191,-187 814.191,-191 793.191,-191 790.191,-187 696.809,-187 696.809,-151 817.191,-151 817.191,-187"/>
<text text-anchor="middle" x="757" y="-164.8" font-family="Times,serif" font-size="14.00" fill="#000000">DashboardModule</text>
</g>
<!-- DashboardComponent&#45;&gt;DashboardModule -->
<g id="edge1" class="edge">
<title>DashboardComponent&#45;&gt;DashboardModule</title>
<path fill="none" stroke="#000000" d="M1350,-122.0109C1350,-144.4852 1350,-180 1350,-180 1350,-180 827.1234,-180 827.1234,-180"/>
<polygon fill="#000000" stroke="#000000" points="827.1234,-176.5001 817.1234,-180 827.1233,-183.5001 827.1234,-176.5001"/>
</g>
<!-- TimelineComponent -->
<g id="node2" class="node">
<title>TimelineComponent</title>
<polygon fill="#ffffb3" stroke="#000000" points="1260.8767,-122 1129.1233,-122 1129.1233,-86 1260.8767,-86 1260.8767,-122"/>
<text text-anchor="middle" x="1195" y="-99.8" font-family="Times,serif" font-size="14.00" fill="#000000">TimelineComponent</text>
</g>
<!-- TimelineComponent&#45;&gt;DashboardModule -->
<g id="edge2" class="edge">
<title>TimelineComponent&#45;&gt;DashboardModule</title>
<path fill="none" stroke="#000000" d="M1195,-122.1289C1195,-142.5724 1195,-173 1195,-173 1195,-173 827.4422,-173 827.4422,-173"/>
<polygon fill="#000000" stroke="#000000" points="827.4422,-169.5001 817.4422,-173 827.4421,-176.5001 827.4422,-169.5001"/>
</g>
<!-- NotificationComponent -->
<g id="node3" class="node">
<title>NotificationComponent</title>
<polygon fill="#ffffb3" stroke="#000000" points="1111.4818,-122 962.5182,-122 962.5182,-86 1111.4818,-86 1111.4818,-122"/>
<text text-anchor="middle" x="1037" y="-99.8" font-family="Times,serif" font-size="14.00" fill="#000000">NotificationComponent</text>
</g>
<!-- NotificationComponent&#45;&gt;DashboardModule -->
<g id="edge3" class="edge">
<title>NotificationComponent&#45;&gt;DashboardModule</title>
<path fill="none" stroke="#000000" d="M1037,-122.2667C1037,-140.5552 1037,-166 1037,-166 1037,-166 827.4111,-166 827.4111,-166"/>
<polygon fill="#000000" stroke="#000000" points="827.4111,-162.5001 817.4111,-166 827.4111,-169.5001 827.4111,-162.5001"/>
</g>
<!-- ChatComponent -->
<g id="node4" class="node">
<title>ChatComponent</title>
<polygon fill="#ffffb3" stroke="#000000" points="944.7744,-122 837.2256,-122 837.2256,-86 944.7744,-86 944.7744,-122"/>
<text text-anchor="middle" x="891" y="-99.8" font-family="Times,serif" font-size="14.00" fill="#000000">ChatComponent</text>
</g>
<!-- ChatComponent&#45;&gt;DashboardModule -->
<g id="edge4" class="edge">
<title>ChatComponent&#45;&gt;DashboardModule</title>
<path fill="none" stroke="#000000" d="M891,-122.0091C891,-138.0494 891,-159 891,-159 891,-159 827.336,-159 827.336,-159"/>
<polygon fill="#000000" stroke="#000000" points="827.336,-155.5001 817.336,-159 827.3359,-162.5001 827.336,-155.5001"/>
</g>
<!-- CommonModule -->
<g id="node6" class="node">
<title>CommonModule</title>
<polygon fill="#8dd3c7" stroke="#000000" points="812.6681,-122 809.6681,-126 788.6681,-126 785.6681,-122 701.3319,-122 701.3319,-86 812.6681,-86 812.6681,-122"/>
<text text-anchor="middle" x="757" y="-99.8" font-family="Times,serif" font-size="14.00" fill="#000000">CommonModule</text>
</g>
<!-- CommonModule&#45;&gt;DashboardModule -->
<g id="edge5" class="edge">
<title>CommonModule&#45;&gt;DashboardModule</title>
<path fill="none" stroke="#000000" d="M757,-122.1061C757,-122.1061 757,-140.991 757,-140.991"/>
<polygon fill="#000000" stroke="#000000" points="753.5001,-140.9909 757,-150.991 760.5001,-140.991 753.5001,-140.9909"/>
</g>
<!-- NgbCarouselModule.forRoot() -->
<g id="node7" class="node">
<title>NgbCarouselModule.forRoot()</title>
<polygon fill="#8dd3c7" stroke="#000000" points="682.7877,-122 679.7877,-126 658.7877,-126 655.7877,-122 493.2123,-122 493.2123,-86 682.7877,-86 682.7877,-122"/>
<text text-anchor="middle" x="588" y="-99.8" font-family="Times,serif" font-size="14.00" fill="#000000">NgbCarouselModule.forRoot()</text>
</g>
<!-- NgbCarouselModule.forRoot()&#45;&gt;DashboardModule -->
<g id="edge6" class="edge">
<title>NgbCarouselModule.forRoot()&#45;&gt;DashboardModule</title>
<path fill="none" stroke="#000000" d="M588,-122.0091C588,-138.0494 588,-159 588,-159 588,-159 686.4645,-159 686.4645,-159"/>
<polygon fill="#000000" stroke="#000000" points="686.4645,-162.5001 696.4645,-159 686.4644,-155.5001 686.4645,-162.5001"/>
</g>
<!-- NgbAlertModule.forRoot() -->
<g id="node8" class="node">
<title>NgbAlertModule.forRoot()</title>
<polygon fill="#8dd3c7" stroke="#000000" points="475.2891,-122 472.2891,-126 451.2891,-126 448.2891,-122 306.7109,-122 306.7109,-86 475.2891,-86 475.2891,-122"/>
<text text-anchor="middle" x="391" y="-99.8" font-family="Times,serif" font-size="14.00" fill="#000000">NgbAlertModule.forRoot()</text>
</g>
<!-- NgbAlertModule.forRoot()&#45;&gt;DashboardModule -->
<g id="edge7" class="edge">
<title>NgbAlertModule.forRoot()&#45;&gt;DashboardModule</title>
<path fill="none" stroke="#000000" d="M391,-122.2667C391,-140.5552 391,-166 391,-166 391,-166 686.5625,-166 686.5625,-166"/>
<polygon fill="#000000" stroke="#000000" points="686.5626,-169.5001 696.5625,-166 686.5625,-162.5001 686.5626,-169.5001"/>
</g>
<!-- DashboardRoutingModule -->
<g id="node9" class="node">
<title>DashboardRoutingModule</title>
<polygon fill="#8dd3c7" stroke="#000000" points="288.8089,-122 285.8089,-126 264.8089,-126 261.8089,-122 123.1911,-122 123.1911,-86 288.8089,-86 288.8089,-122"/>
<text text-anchor="middle" x="206" y="-99.8" font-family="Times,serif" font-size="14.00" fill="#000000">DashboardRoutingModule</text>
</g>
<!-- DashboardRoutingModule&#45;&gt;DashboardModule -->
<g id="edge8" class="edge">
<title>DashboardRoutingModule&#45;&gt;DashboardModule</title>
<path fill="none" stroke="#000000" d="M206,-122.1289C206,-142.5724 206,-173 206,-173 206,-173 686.7211,-173 686.7211,-173"/>
<polygon fill="#000000" stroke="#000000" points="686.7211,-176.5001 696.7211,-173 686.721,-169.5001 686.7211,-176.5001"/>
</g>
<!-- StatModule -->
<g id="node10" class="node">
<title>StatModule</title>
<polygon fill="#8dd3c7" stroke="#000000" points="105.8289,-122 102.8289,-126 81.8289,-126 78.8289,-122 24.1711,-122 24.1711,-86 105.8289,-86 105.8289,-122"/>
<text text-anchor="middle" x="65" y="-99.8" font-family="Times,serif" font-size="14.00" fill="#000000">StatModule</text>
</g>
<!-- StatModule&#45;&gt;DashboardModule -->
<g id="edge9" class="edge">
<title>StatModule&#45;&gt;DashboardModule</title>
<path fill="none" stroke="#000000" d="M65,-122.0109C65,-144.4852 65,-180 65,-180 65,-180 686.8001,-180 686.8001,-180"/>
<polygon fill="#000000" stroke="#000000" points="686.8001,-183.5001 696.8001,-180 686.8001,-176.5001 686.8001,-183.5001"/>
</g>
</g>
</svg>
