<?xml version="1.0" encoding="UTF-8" standalone="no"?>
<!DOCTYPE svg PUBLIC "-//W3C//DTD SVG 1.1//EN"
 "http://www.w3.org/Graphics/SVG/1.1/DTD/svg11.dtd">
<!-- Generated by graphviz version 2.38.0 (20140413.2041)
 -->
<!-- Title: dependencies Pages: 1 -->
<svg width="2210pt" height="284pt"
 viewBox="0.00 0.00 2210.00 284.00" xmlns="http://www.w3.org/2000/svg" xmlns:xlink="http://www.w3.org/1999/xlink">
<g id="graph0" class="graph" transform="scale(1 1) rotate(0) translate(4 280)">
<title>dependencies</title>
<polygon fill="white" stroke="none" points="-4,4 -4,-280 2206,-280 2206,4 -4,4"/>
<text text-anchor="start" x="1080.01" y="-42.4" font-family="sans-serif" font-weight="bold" font-size="14.00">Legend</text>
<polygon fill="#ffffb3" stroke="none" points="867,-10 867,-30 887,-30 887,-10 867,-10"/>
<text text-anchor="start" x="890.629" y="-15.4" font-family="sans-serif" font-size="14.00"> &#160;Declarations</text>
<polygon fill="#8dd3c7" stroke="none" points="980,-10 980,-30 1000,-30 1000,-10 980,-10"/>
<text text-anchor="start" x="1003.73" y="-15.4" font-family="sans-serif" font-size="14.00"> &#160;Module</text>
<polygon fill="#80b1d3" stroke="none" points="1066,-10 1066,-30 1086,-30 1086,-10 1066,-10"/>
<text text-anchor="start" x="1089.78" y="-15.4" font-family="sans-serif" font-size="14.00"> &#160;Bootstrap</text>
<polygon fill="#fdb462" stroke="none" points="1163,-10 1163,-30 1183,-30 1183,-10 1163,-10"/>
<text text-anchor="start" x="1186.67" y="-15.4" font-family="sans-serif" font-size="14.00"> &#160;Providers</text>
<polygon fill="#fb8072" stroke="none" points="1259,-10 1259,-30 1279,-30 1279,-10 1259,-10"/>
<text text-anchor="start" x="1282.73" y="-15.4" font-family="sans-serif" font-size="14.00"> &#160;Exports</text>
<g id="clust1" class="cluster"><title>cluster_DashboardModule</title>
<polygon fill="none" stroke="black" stroke-dasharray="1,5" points="8,-70 8,-268 2194,-268 2194,-70 8,-70"/>
</g>
<g id="clust2" class="cluster"><title>cluster_DashboardModule_declarations</title>
<polygon fill="none" stroke="black" points="1740,-78 1740,-130 2186,-130 2186,-78 1740,-78"/>
</g>
<g id="clust6" class="cluster"><title>cluster_DashboardModule_imports</title>
<polygon fill="none" stroke="black" points="16,-78 16,-130 1732,-130 1732,-78 16,-78"/>
</g>
<g id="clust7" class="cluster"><title>cluster_DashboardModule_exports</title>
<polygon fill="none" stroke="black" points="850,-208 850,-260 1306,-260 1306,-208 850,-208"/>
</g>
<!-- DashboardComponent -->
<g id="node1" class="node"><title>DashboardComponent</title>
<polygon fill="#ffffb3" stroke="black" points="2177.97,-122 2036.03,-122 2036.03,-86 2177.97,-86 2177.97,-122"/>
<text text-anchor="middle" x="2107" y="-99.8" font-family="Times,serif" font-size="14.00">DashboardComponent</text>
</g>
<!-- DashboardModule -->
<g id="node4" class="node"><title>DashboardModule</title>
<polygon fill="#8dd3c7" stroke="black" points="1129.19,-187 1126.19,-191 1105.19,-191 1102.19,-187 1008.81,-187 1008.81,-151 1129.19,-151 1129.19,-187"/>
<text text-anchor="middle" x="1069" y="-164.8" font-family="Times,serif" font-size="14.00">DashboardModule</text>
</g>
<!-- DashboardComponent&#45;&gt;DashboardModule -->
<g id="edge1" class="edge"><title>DashboardComponent&#45;&gt;DashboardModule</title>
<path fill="none" stroke="black" d="M2107,-122.155C2107,-144.352 2107,-179 2107,-179 2107,-179 1139.29,-179 1139.29,-179"/>
<polygon fill="black" stroke="black" points="1139.29,-175.5 1129.29,-179 1139.29,-182.5 1139.29,-175.5"/>
</g>
<!-- TopNavComponent -->
<g id="node2" class="node"><title>TopNavComponent</title>
<polygon fill="#ffffb3" stroke="black" points="2017.71,-122 1890.29,-122 1890.29,-86 2017.71,-86 2017.71,-122"/>
<text text-anchor="middle" x="1954" y="-99.8" font-family="Times,serif" font-size="14.00">TopNavComponent</text>
</g>
<!-- TopNavComponent&#45;&gt;DashboardModule -->
<g id="edge2" class="edge"><title>TopNavComponent&#45;&gt;DashboardModule</title>
<path fill="none" stroke="black" d="M1954,-122.284C1954,-143.321 1954,-175 1954,-175 1954,-175 1139.13,-175 1139.13,-175"/>
<polygon fill="black" stroke="black" points="1139.13,-171.5 1129.13,-175 1139.13,-178.5 1139.13,-171.5"/>
</g>
<!-- SidebarComponent -->
<g id="node3" class="node"><title>SidebarComponent</title>
<polygon fill="#ffffb3" stroke="black" points="1872.1,-122 1747.9,-122 1747.9,-86 1872.1,-86 1872.1,-122"/>
<text text-anchor="middle" x="1810" y="-99.8" font-family="Times,serif" font-size="14.00">SidebarComponent</text>
</g>
<!-- SidebarComponent&#45;&gt;DashboardModule -->
<g id="edge3" class="edge"><title>SidebarComponent&#45;&gt;DashboardModule</title>
<path fill="none" stroke="black" d="M1810,-122.308C1810,-142.146 1810,-171 1810,-171 1810,-171 1139.32,-171 1139.32,-171"/>
<polygon fill="black" stroke="black" points="1139.32,-167.5 1129.32,-171 1139.32,-174.5 1139.32,-167.5"/>
</g>
<!-- DashboardComponent  -->
<g id="node19" class="node"><title>DashboardComponent </title>
<polygon fill="#fb8072" stroke="black" points="1297.97,-252 1152.03,-252 1152.03,-216 1297.97,-216 1297.97,-252"/>
<text text-anchor="middle" x="1225" y="-229.8" font-family="Times,serif" font-size="14.00">DashboardComponent </text>
</g>
<!-- DashboardModule&#45;&gt;DashboardComponent  -->
<g id="edge18" class="edge"><title>DashboardModule&#45;&gt;DashboardComponent </title>
<path fill="none" stroke="black" stroke-dasharray="5,2" d="M1129.39,-183C1159.29,-183 1189.07,-183 1189.07,-183 1189.07,-183 1189.07,-205.876 1189.07,-205.876"/>
<polygon fill="black" stroke="black" points="1185.57,-205.876 1189.07,-215.876 1192.57,-205.876 1185.57,-205.876"/>
</g>
<!-- TopNavComponent  -->
<g id="node20" class="node"><title>TopNavComponent </title>
<polygon fill="#fb8072" stroke="black" points="1134.21,-252 1003.79,-252 1003.79,-216 1134.21,-216 1134.21,-252"/>
<text text-anchor="middle" x="1069" y="-229.8" font-family="Times,serif" font-size="14.00">TopNavComponent </text>
</g>
<!-- DashboardModule&#45;&gt;TopNavComponent  -->
<g id="edge19" class="edge"><title>DashboardModule&#45;&gt;TopNavComponent </title>
<path fill="none" stroke="black" stroke-dasharray="5,2" d="M1069,-187.106C1069,-187.106 1069,-205.991 1069,-205.991"/>
<polygon fill="black" stroke="black" points="1065.5,-205.991 1069,-215.991 1072.5,-205.991 1065.5,-205.991"/>
</g>
<!-- SidebarComponent  -->
<g id="node21" class="node"><title>SidebarComponent </title>
<polygon fill="#fb8072" stroke="black" points="985.596,-252 858.404,-252 858.404,-216 985.596,-216 985.596,-252"/>
<text text-anchor="middle" x="922" y="-229.8" font-family="Times,serif" font-size="14.00">SidebarComponent </text>
</g>
<!-- DashboardModule&#45;&gt;SidebarComponent  -->
<g id="edge20" class="edge"><title>DashboardModule&#45;&gt;SidebarComponent </title>
<path fill="none" stroke="black" stroke-dasharray="5,2" d="M1008.82,-183C979.32,-183 950.043,-183 950.043,-183 950.043,-183 950.043,-205.876 950.043,-205.876"/>
<polygon fill="black" stroke="black" points="946.543,-205.876 950.043,-215.876 953.543,-205.876 946.543,-205.876"/>
</g>
<!-- CommonModule -->
<g id="node5" class="node"><title>CommonModule</title>
<polygon fill="#8dd3c7" stroke="black" points="1723.67,-122 1720.67,-126 1699.67,-126 1696.67,-122 1612.33,-122 1612.33,-86 1723.67,-86 1723.67,-122"/>
<text text-anchor="middle" x="1668" y="-99.8" font-family="Times,serif" font-size="14.00">CommonModule</text>
</g>
<!-- CommonModule&#45;&gt;DashboardModule -->
<g id="edge4" class="edge"><title>CommonModule&#45;&gt;DashboardModule</title>
<path fill="none" stroke="black" d="M1668,-122.222C1668,-140.829 1668,-167 1668,-167 1668,-167 1139.18,-167 1139.18,-167"/>
<polygon fill="black" stroke="black" points="1139.18,-163.5 1129.18,-167 1139.18,-170.5 1139.18,-163.5"/>
</g>
<!-- RouterModule -->
<g id="node6" class="node"><title>RouterModule</title>
<polygon fill="#8dd3c7" stroke="black" points="1593.65,-122 1590.65,-126 1569.65,-126 1566.65,-122 1496.35,-122 1496.35,-86 1593.65,-86 1593.65,-122"/>
<text text-anchor="middle" x="1545" y="-99.8" font-family="Times,serif" font-size="14.00">RouterModule</text>
</g>
<!-- RouterModule&#45;&gt;DashboardModule -->
<g id="edge5" class="edge"><title>RouterModule&#45;&gt;DashboardModule</title>
<path fill="none" stroke="black" d="M1545,-122.023C1545,-139.373 1545,-163 1545,-163 1545,-163 1139.29,-163 1139.29,-163"/>
<polygon fill="black" stroke="black" points="1139.29,-159.5 1129.29,-163 1139.29,-166.5 1139.29,-159.5"/>
</g>
<!-- DropdownModule -->
<g id="node7" class="node"><title>DropdownModule</title>
<polygon fill="#8dd3c7" stroke="black" points="1477.92,-122 1474.92,-126 1453.92,-126 1450.92,-122 1358.08,-122 1358.08,-86 1477.92,-86 1477.92,-122"/>
<text text-anchor="middle" x="1418" y="-99.8" font-family="Times,serif" font-size="14.00">DropdownModule</text>
</g>
<!-- DropdownModule&#45;&gt;DashboardModule -->
<g id="edge6" class="edge"><title>DropdownModule&#45;&gt;DashboardModule</title>
<path fill="none" stroke="black" d="M1418,-122.009C1418,-138.049 1418,-159 1418,-159 1418,-159 1139.39,-159 1139.39,-159"/>
<polygon fill="black" stroke="black" points="1139.39,-155.5 1129.39,-159 1139.39,-162.5 1139.39,-155.5"/>
</g>
<!-- ModalModule -->
<g id="node8" class="node"><title>ModalModule</title>
<polygon fill="#8dd3c7" stroke="black" points="1340.1,-122 1337.1,-126 1316.1,-126 1313.1,-122 1243.9,-122 1243.9,-86 1340.1,-86 1340.1,-122"/>
<text text-anchor="middle" x="1292" y="-99.8" font-family="Times,serif" font-size="14.00">ModalModule</text>
</g>
<!-- ModalModule&#45;&gt;DashboardModule -->
<g id="edge7" class="edge"><title>ModalModule&#45;&gt;DashboardModule</title>
<path fill="none" stroke="black" d="M1270.84,-122.124C1270.84,-136.783 1270.84,-155 1270.84,-155 1270.84,-155 1139.29,-155 1139.29,-155"/>
<polygon fill="black" stroke="black" points="1139.29,-151.5 1129.29,-155 1139.29,-158.5 1139.29,-151.5"/>
</g>
<!-- HomeModule -->
<g id="node9" class="node"><title>HomeModule</title>
<polygon fill="#8dd3c7" stroke="black" points="1225.76,-122 1222.76,-126 1201.76,-126 1198.76,-122 1132.24,-122 1132.24,-86 1225.76,-86 1225.76,-122"/>
<text text-anchor="middle" x="1179" y="-99.8" font-family="Times,serif" font-size="14.00">HomeModule</text>
</g>
<!-- HomeModule&#45;&gt;DashboardModule -->
<g id="edge8" class="edge"><title>HomeModule&#45;&gt;DashboardModule</title>
<path fill="none" stroke="black" d="M1132.22,-104C1125.99,-104 1121.71,-104 1121.71,-104 1121.71,-104 1121.71,-140.894 1121.71,-140.894"/>
<polygon fill="black" stroke="black" points="1118.21,-140.894 1121.71,-150.894 1125.21,-140.894 1118.21,-140.894"/>
</g>
<!-- ChartModule -->
<g id="node10" class="node"><title>ChartModule</title>
<polygon fill="#8dd3c7" stroke="black" points="1114.15,-122 1111.15,-126 1090.15,-126 1087.15,-122 1023.85,-122 1023.85,-86 1114.15,-86 1114.15,-122"/>
<text text-anchor="middle" x="1069" y="-99.8" font-family="Times,serif" font-size="14.00">ChartModule</text>
</g>
<!-- ChartModule&#45;&gt;DashboardModule -->
<g id="edge9" class="edge"><title>ChartModule&#45;&gt;DashboardModule</title>
<path fill="none" stroke="black" d="M1069,-122.106C1069,-122.106 1069,-140.991 1069,-140.991"/>
<polygon fill="black" stroke="black" points="1065.5,-140.991 1069,-150.991 1072.5,-140.991 1065.5,-140.991"/>
</g>
<!-- TableModule -->
<g id="node11" class="node"><title>TableModule</title>
<polygon fill="#8dd3c7" stroke="black" points="1005.92,-122 1002.92,-126 981.923,-126 978.923,-122 914.077,-122 914.077,-86 1005.92,-86 1005.92,-122"/>
<text text-anchor="middle" x="960" y="-99.8" font-family="Times,serif" font-size="14.00">TableModule</text>
</g>
<!-- TableModule&#45;&gt;DashboardModule -->
<g id="edge10" class="edge"><title>TableModule&#45;&gt;DashboardModule</title>
<path fill="none" stroke="black" d="M1005.96,-104C1012.08,-104 1016.29,-104 1016.29,-104 1016.29,-104 1016.29,-140.894 1016.29,-140.894"/>
<polygon fill="black" stroke="black" points="1012.79,-140.894 1016.29,-150.894 1019.79,-140.894 1012.79,-140.894"/>
</g>
<!-- FormModule -->
<g id="node12" class="node"><title>FormModule</title>
<polygon fill="#8dd3c7" stroke="black" points="895.884,-122 892.884,-126 871.884,-126 868.884,-122 806.116,-122 806.116,-86 895.884,-86 895.884,-122"/>
<text text-anchor="middle" x="851" y="-99.8" font-family="Times,serif" font-size="14.00">FormModule</text>
</g>
<!-- FormModule&#45;&gt;DashboardModule -->
<g id="edge11" class="edge"><title>FormModule&#45;&gt;DashboardModule</title>
<path fill="none" stroke="black" d="M877.072,-122.124C877.072,-136.783 877.072,-155 877.072,-155 877.072,-155 998.799,-155 998.799,-155"/>
<polygon fill="black" stroke="black" points="998.799,-158.5 1008.8,-155 998.799,-151.5 998.799,-158.5"/>
</g>
<!-- GridModule -->
<g id="node13" class="node"><title>GridModule</title>
<polygon fill="#8dd3c7" stroke="black" points="787.708,-122 784.708,-126 763.708,-126 760.708,-122 702.292,-122 702.292,-86 787.708,-86 787.708,-122"/>
<text text-anchor="middle" x="745" y="-99.8" font-family="Times,serif" font-size="14.00">GridModule</text>
</g>
<!-- GridModule&#45;&gt;DashboardModule -->
<g id="edge12" class="edge"><title>GridModule&#45;&gt;DashboardModule</title>
<path fill="none" stroke="black" d="M745,-122.009C745,-138.049 745,-159 745,-159 745,-159 998.817,-159 998.817,-159"/>
<polygon fill="black" stroke="black" points="998.817,-162.5 1008.82,-159 998.817,-155.5 998.817,-162.5"/>
</g>
<!-- BSComponentModule -->
<g id="node14" class="node"><title>BSComponentModule</title>
<polygon fill="#8dd3c7" stroke="black" points="684.001,-122 681.001,-126 660.001,-126 657.001,-122 541.999,-122 541.999,-86 684.001,-86 684.001,-122"/>
<text text-anchor="middle" x="613" y="-99.8" font-family="Times,serif" font-size="14.00">BSComponentModule</text>
</g>
<!-- BSComponentModule&#45;&gt;DashboardModule -->
<g id="edge13" class="edge"><title>BSComponentModule&#45;&gt;DashboardModule</title>
<path fill="none" stroke="black" d="M613,-122.023C613,-139.373 613,-163 613,-163 613,-163 998.447,-163 998.447,-163"/>
<polygon fill="black" stroke="black" points="998.447,-166.5 1008.45,-163 998.447,-159.5 998.447,-166.5"/>
</g>
<!-- BSElementModule -->
<g id="node15" class="node"><title>BSElementModule</title>
<polygon fill="#8dd3c7" stroke="black" points="523.823,-122 520.823,-126 499.823,-126 496.823,-122 400.177,-122 400.177,-86 523.823,-86 523.823,-122"/>
<text text-anchor="middle" x="462" y="-99.8" font-family="Times,serif" font-size="14.00">BSElementModule</text>
</g>
<!-- BSElementModule&#45;&gt;DashboardModule -->
<g id="edge14" class="edge"><title>BSElementModule&#45;&gt;DashboardModule</title>
<path fill="none" stroke="black" d="M462,-122.222C462,-140.829 462,-167 462,-167 462,-167 998.859,-167 998.859,-167"/>
<polygon fill="black" stroke="black" points="998.859,-170.5 1008.86,-167 998.859,-163.5 998.859,-170.5"/>
</g>
<!-- BlankPageModule -->
<g id="node16" class="node"><title>BlankPageModule</title>
<polygon fill="#8dd3c7" stroke="black" points="382.204,-122 379.204,-126 358.204,-126 355.204,-122 261.796,-122 261.796,-86 382.204,-86 382.204,-122"/>
<text text-anchor="middle" x="322" y="-99.8" font-family="Times,serif" font-size="14.00">BlankPageModule</text>
</g>
<!-- BlankPageModule&#45;&gt;DashboardModule -->
<g id="edge15" class="edge"><title>BlankPageModule&#45;&gt;DashboardModule</title>
<path fill="none" stroke="black" d="M322,-122.308C322,-142.146 322,-171 322,-171 322,-171 998.818,-171 998.818,-171"/>
<polygon fill="black" stroke="black" points="998.818,-174.5 1008.82,-171 998.818,-167.5 998.818,-174.5"/>
</g>
<!-- JobsModule -->
<g id="node17" class="node"><title>JobsModule</title>
<polygon fill="#8dd3c7" stroke="black" points="244.44,-122 241.44,-126 220.44,-126 217.44,-122 159.56,-122 159.56,-86 244.44,-86 244.44,-122"/>
<text text-anchor="middle" x="202" y="-99.8" font-family="Times,serif" font-size="14.00">JobsModule</text>
</g>
<!-- JobsModule&#45;&gt;DashboardModule -->
<g id="edge16" class="edge"><title>JobsModule&#45;&gt;DashboardModule</title>
<path fill="none" stroke="black" d="M202,-122.284C202,-143.321 202,-175 202,-175 202,-175 998.723,-175 998.723,-175"/>
<polygon fill="black" stroke="black" points="998.723,-178.5 1008.72,-175 998.723,-171.5 998.723,-178.5"/>
</g>
<!-- ResourcesModule -->
<g id="node18" class="node"><title>ResourcesModule</title>
<polygon fill="#8dd3c7" stroke="black" points="141.58,-122 138.58,-126 117.58,-126 114.58,-122 24.42,-122 24.42,-86 141.58,-86 141.58,-122"/>
<text text-anchor="middle" x="83" y="-99.8" font-family="Times,serif" font-size="14.00">ResourcesModule</text>
</g>
<!-- ResourcesModule&#45;&gt;DashboardModule -->
<g id="edge17" class="edge"><title>ResourcesModule&#45;&gt;DashboardModule</title>
<path fill="none" stroke="black" d="M83,-122.155C83,-144.352 83,-179 83,-179 83,-179 998.806,-179 998.806,-179"/>
<polygon fill="black" stroke="black" points="998.806,-182.5 1008.81,-179 998.806,-175.5 998.806,-182.5"/>
</g>
</g>
</svg>
