<?xml version="1.0" encoding="UTF-8" standalone="no"?>
<!DOCTYPE svg PUBLIC "-//W3C//DTD SVG 1.1//EN"
 "http://www.w3.org/Graphics/SVG/1.1/DTD/svg11.dtd">
<!-- Generated by graphviz version 2.40.1 (20161225.0304)
 -->
<!-- Title: dependencies Pages: 1 -->
<svg width="504pt" height="284pt"
 viewBox="0.00 0.00 504.00 284.00" xmlns="http://www.w3.org/2000/svg" xmlns:xlink="http://www.w3.org/1999/xlink">
<g id="graph0" class="graph" transform="scale(1 1) rotate(0) translate(4 280)">
<title>dependencies</title>
<polygon fill="#ffffff" stroke="transparent" points="-4,4 -4,-280 500,-280 500,4 -4,4"/>
<text text-anchor="start" x="227.0091" y="-42.4" font-family="sans-serif" font-weight="bold" font-size="14.00" fill="#000000">Legend</text>
<polygon fill="#ffffb3" stroke="transparent" points="14,-10 14,-30 34,-30 34,-10 14,-10"/>
<text text-anchor="start" x="37.629" y="-15.4" font-family="sans-serif" font-size="14.00" fill="#000000"> &#160;Declarations</text>
<polygon fill="#8dd3c7" stroke="transparent" points="127,-10 127,-30 147,-30 147,-10 127,-10"/>
<text text-anchor="start" x="150.7251" y="-15.4" font-family="sans-serif" font-size="14.00" fill="#000000"> &#160;Module</text>
<polygon fill="#80b1d3" stroke="transparent" points="213,-10 213,-30 233,-30 233,-10 213,-10"/>
<text text-anchor="start" x="236.7812" y="-15.4" font-family="sans-serif" font-size="14.00" fill="#000000"> &#160;Bootstrap</text>
<polygon fill="#fdb462" stroke="transparent" points="310,-10 310,-30 330,-30 330,-10 310,-10"/>
<text text-anchor="start" x="333.6732" y="-15.4" font-family="sans-serif" font-size="14.00" fill="#000000"> &#160;Providers</text>
<polygon fill="#fb8072" stroke="transparent" points="406,-10 406,-30 426,-30 426,-10 406,-10"/>
<text text-anchor="start" x="429.7258" y="-15.4" font-family="sans-serif" font-size="14.00" fill="#000000"> &#160;Exports</text>
<g id="clust1" class="cluster">
<title>cluster_StatModule</title>
<polygon fill="none" stroke="#000000" stroke-dasharray="1,5" points="112,-70 112,-268 384,-268 384,-70 112,-70"/>
</g>
<g id="clust2" class="cluster">
<title>cluster_StatModule_declarations</title>
<polygon fill="none" stroke="#000000" points="256,-78 256,-130 376,-130 376,-78 256,-78"/>
</g>
<g id="clust4" class="cluster">
<title>cluster_StatModule_imports</title>
<polygon fill="none" stroke="#000000" points="120,-78 120,-130 248,-130 248,-78 120,-78"/>
</g>
<g id="clust5" class="cluster">
<title>cluster_StatModule_exports</title>
<polygon fill="none" stroke="#000000" points="188,-208 188,-260 310,-260 310,-208 188,-208"/>
</g>
<!-- StatComponent -->
<g id="node1" class="node">
<title>StatComponent</title>
<polygon fill="#ffffb3" stroke="#000000" points="367.6109,-122 264.3891,-122 264.3891,-86 367.6109,-86 367.6109,-122"/>
<text text-anchor="middle" x="316" y="-99.8" font-family="Times,serif" font-size="14.00" fill="#000000">StatComponent</text>
</g>
<!-- StatModule -->
<g id="node2" class="node">
<title>StatModule</title>
<polygon fill="#8dd3c7" stroke="#000000" points="289.8289,-187 286.8289,-191 265.8289,-191 262.8289,-187 208.1711,-187 208.1711,-151 289.8289,-151 289.8289,-187"/>
<text text-anchor="middle" x="249" y="-164.8" font-family="Times,serif" font-size="14.00" fill="#000000">StatModule</text>
</g>
<!-- StatComponent&#45;&gt;StatModule -->
<g id="edge1" class="edge">
<title>StatComponent&#45;&gt;StatModule</title>
<path fill="none" stroke="#000000" d="M277.0544,-122.1061C277.0544,-122.1061 277.0544,-140.991 277.0544,-140.991"/>
<polygon fill="#000000" stroke="#000000" points="273.5544,-140.9909 277.0544,-150.991 280.5544,-140.991 273.5544,-140.9909"/>
</g>
<!-- StatComponent  -->
<g id="node4" class="node">
<title>StatComponent </title>
<polygon fill="#fb8072" stroke="#000000" points="302.1115,-252 195.8885,-252 195.8885,-216 302.1115,-216 302.1115,-252"/>
<text text-anchor="middle" x="249" y="-229.8" font-family="Times,serif" font-size="14.00" fill="#000000">StatComponent </text>
</g>
<!-- StatModule&#45;&gt;StatComponent  -->
<g id="edge3" class="edge">
<title>StatModule&#45;&gt;StatComponent </title>
<path fill="none" stroke="#000000" stroke-dasharray="5,2" d="M249,-187.1061C249,-187.1061 249,-205.991 249,-205.991"/>
<polygon fill="#000000" stroke="#000000" points="245.5001,-205.9909 249,-215.991 252.5001,-205.991 245.5001,-205.9909"/>
</g>
<!-- CommonModule -->
<g id="node3" class="node">
<title>CommonModule</title>
<polygon fill="#8dd3c7" stroke="#000000" points="239.6681,-122 236.6681,-126 215.6681,-126 212.6681,-122 128.3319,-122 128.3319,-86 239.6681,-86 239.6681,-122"/>
<text text-anchor="middle" x="184" y="-99.8" font-family="Times,serif" font-size="14.00" fill="#000000">CommonModule</text>
</g>
<!-- CommonModule&#45;&gt;StatModule -->
<g id="edge2" class="edge">
<title>CommonModule&#45;&gt;StatModule</title>
<path fill="none" stroke="#000000" d="M224.0849,-122.1061C224.0849,-122.1061 224.0849,-140.991 224.0849,-140.991"/>
<polygon fill="#000000" stroke="#000000" points="220.5849,-140.9909 224.0849,-150.991 227.5849,-140.991 220.5849,-140.9909"/>
</g>
</g>
</svg>
