<?xml version="1.0" encoding="UTF-8" standalone="no"?>
<!DOCTYPE svg PUBLIC "-//W3C//DTD SVG 1.1//EN"
 "http://www.w3.org/Graphics/SVG/1.1/DTD/svg11.dtd">
<!-- Generated by graphviz version 2.40.1 (20161225.0304)
 -->
<!-- Title: dependencies Pages: 1 -->
<svg width="2146pt" height="284pt"
 viewBox="0.00 0.00 2146.00 284.00" xmlns="http://www.w3.org/2000/svg" xmlns:xlink="http://www.w3.org/1999/xlink">
<g id="graph0" class="graph" transform="scale(1 1) rotate(0) translate(4 280)">
<title>dependencies</title>
<polygon fill="#ffffff" stroke="transparent" points="-4,4 -4,-280 2142,-280 2142,4 -4,4"/>
<text text-anchor="start" x="1048.0091" y="-42.4" font-family="sans-serif" font-weight="bold" font-size="14.00" fill="#000000">Legend</text>
<polygon fill="#ffffb3" stroke="transparent" points="835,-10 835,-30 855,-30 855,-10 835,-10"/>
<text text-anchor="start" x="858.629" y="-15.4" font-family="sans-serif" font-size="14.00" fill="#000000"> &#160;Declarations</text>
<polygon fill="#8dd3c7" stroke="transparent" points="948,-10 948,-30 968,-30 968,-10 948,-10"/>
<text text-anchor="start" x="971.7251" y="-15.4" font-family="sans-serif" font-size="14.00" fill="#000000"> &#160;Module</text>
<polygon fill="#80b1d3" stroke="transparent" points="1034,-10 1034,-30 1054,-30 1054,-10 1034,-10"/>
<text text-anchor="start" x="1057.7812" y="-15.4" font-family="sans-serif" font-size="14.00" fill="#000000"> &#160;Bootstrap</text>
<polygon fill="#fdb462" stroke="transparent" points="1131,-10 1131,-30 1151,-30 1151,-10 1131,-10"/>
<text text-anchor="start" x="1154.6732" y="-15.4" font-family="sans-serif" font-size="14.00" fill="#000000"> &#160;Providers</text>
<polygon fill="#fb8072" stroke="transparent" points="1227,-10 1227,-30 1247,-30 1247,-10 1227,-10"/>
<text text-anchor="start" x="1250.7258" y="-15.4" font-family="sans-serif" font-size="14.00" fill="#000000"> &#160;Exports</text>
<g id="clust1" class="cluster">
<title>cluster_FmModule</title>
<polygon fill="none" stroke="#000000" stroke-dasharray="1,5" points="8,-70 8,-268 2130,-268 2130,-70 8,-70"/>
</g>
<g id="clust2" class="cluster">
<title>cluster_FmModule_declarations</title>
<polygon fill="none" stroke="#000000" points="1134,-78 1134,-130 2122,-130 2122,-78 1134,-78"/>
</g>
<g id="clust10" class="cluster">
<title>cluster_FmModule_imports</title>
<polygon fill="none" stroke="#000000" points="345,-78 345,-130 1126,-130 1126,-78 345,-78"/>
</g>
<g id="clust11" class="cluster">
<title>cluster_FmModule_exports</title>
<polygon fill="none" stroke="#000000" points="890,-208 890,-260 1200,-260 1200,-208 890,-208"/>
</g>
<g id="clust13" class="cluster">
<title>cluster_FmModule_providers</title>
<polygon fill="none" stroke="#000000" points="16,-78 16,-130 337,-130 337,-78 16,-78"/>
</g>
<!-- FmComponent -->
<g id="node1" class="node">
<title>FmComponent</title>
<polygon fill="#ffffb3" stroke="#000000" points="2114.0056,-122 2013.9944,-122 2013.9944,-86 2114.0056,-86 2114.0056,-122"/>
<text text-anchor="middle" x="2064" y="-99.8" font-family="Times,serif" font-size="14.00" fill="#000000">FmComponent</text>
</g>
<!-- FmModule -->
<g id="node8" class="node">
<title>FmModule</title>
<polygon fill="#8dd3c7" stroke="#000000" points="1101.2233,-187 1098.2233,-191 1077.2233,-191 1074.2233,-187 1022.7767,-187 1022.7767,-151 1101.2233,-151 1101.2233,-187"/>
<text text-anchor="middle" x="1062" y="-164.8" font-family="Times,serif" font-size="14.00" fill="#000000">FmModule</text>
</g>
<!-- FmComponent&#45;&gt;FmModule -->
<g id="edge1" class="edge">
<title>FmComponent&#45;&gt;FmModule</title>
<path fill="none" stroke="#000000" d="M2064,-122.3228C2064,-145.6602 2064,-183 2064,-183 2064,-183 1111.2796,-183 1111.2796,-183"/>
<polygon fill="#000000" stroke="#000000" points="1111.2796,-179.5001 1101.2796,-183 1111.2796,-186.5001 1111.2796,-179.5001"/>
</g>
<!-- FmBreadcrumbComponent -->
<g id="node2" class="node">
<title>FmBreadcrumbComponent</title>
<polygon fill="#ffffb3" stroke="#000000" points="1995.6979,-122 1826.3021,-122 1826.3021,-86 1995.6979,-86 1995.6979,-122"/>
<text text-anchor="middle" x="1911" y="-99.8" font-family="Times,serif" font-size="14.00" fill="#000000">FmBreadcrumbComponent</text>
</g>
<!-- FmBreadcrumbComponent&#45;&gt;FmModule -->
<g id="edge2" class="edge">
<title>FmBreadcrumbComponent&#45;&gt;FmModule</title>
<path fill="none" stroke="#000000" d="M1911,-122.2921C1911,-144.2057 1911,-178 1911,-178 1911,-178 1111.2463,-178 1111.2463,-178"/>
<polygon fill="#000000" stroke="#000000" points="1111.2463,-174.5001 1101.2463,-178 1111.2463,-181.5001 1111.2463,-174.5001"/>
</g>
<!-- DataFilterPipe -->
<g id="node3" class="node">
<title>DataFilterPipe</title>
<polygon fill="#ffffb3" stroke="#000000" points="1808.6444,-122 1711.3556,-122 1711.3556,-86 1808.6444,-86 1808.6444,-122"/>
<text text-anchor="middle" x="1760" y="-99.8" font-family="Times,serif" font-size="14.00" fill="#000000">DataFilterPipe</text>
</g>
<!-- DataFilterPipe&#45;&gt;FmModule -->
<g id="edge3" class="edge">
<title>DataFilterPipe&#45;&gt;FmModule</title>
<path fill="none" stroke="#000000" d="M1760,-122.0267C1760,-142.7672 1760,-174 1760,-174 1760,-174 1111.2749,-174 1111.2749,-174"/>
<polygon fill="#000000" stroke="#000000" points="1111.275,-170.5001 1101.2749,-174 1111.2749,-177.5001 1111.275,-170.5001"/>
</g>
<!-- UploadComponent -->
<g id="node4" class="node">
<title>UploadComponent</title>
<polygon fill="#ffffb3" stroke="#000000" points="1693.045,-122 1570.955,-122 1570.955,-86 1693.045,-86 1693.045,-122"/>
<text text-anchor="middle" x="1632" y="-99.8" font-family="Times,serif" font-size="14.00" fill="#000000">UploadComponent</text>
</g>
<!-- UploadComponent&#45;&gt;FmModule -->
<g id="edge4" class="edge">
<title>UploadComponent&#45;&gt;FmModule</title>
<path fill="none" stroke="#000000" d="M1632,-122.1061C1632,-141.3391 1632,-169 1632,-169 1632,-169 1111.1784,-169 1111.1784,-169"/>
<polygon fill="#000000" stroke="#000000" points="1111.1784,-165.5001 1101.1784,-169 1111.1784,-172.5001 1111.1784,-165.5001"/>
</g>
<!-- NewFolderComponent -->
<g id="node5" class="node">
<title>NewFolderComponent</title>
<polygon fill="#ffffb3" stroke="#000000" points="1553.3089,-122 1408.6911,-122 1408.6911,-86 1553.3089,-86 1553.3089,-122"/>
<text text-anchor="middle" x="1481" y="-99.8" font-family="Times,serif" font-size="14.00" fill="#000000">NewFolderComponent</text>
</g>
<!-- NewFolderComponent&#45;&gt;FmModule -->
<g id="edge5" class="edge">
<title>NewFolderComponent&#45;&gt;FmModule</title>
<path fill="none" stroke="#000000" d="M1481,-122.302C1481,-140.2699 1481,-165 1481,-165 1481,-165 1111.4185,-165 1111.4185,-165"/>
<polygon fill="#000000" stroke="#000000" points="1111.4185,-161.5001 1101.4185,-165 1111.4185,-168.5001 1111.4185,-161.5001"/>
</g>
<!-- FileSizePipe -->
<g id="node6" class="node">
<title>FileSizePipe</title>
<polygon fill="#ffffb3" stroke="#000000" points="1390.2689,-122 1303.7311,-122 1303.7311,-86 1390.2689,-86 1390.2689,-122"/>
<text text-anchor="middle" x="1347" y="-99.8" font-family="Times,serif" font-size="14.00" fill="#000000">FileSizePipe</text>
</g>
<!-- FileSizePipe&#45;&gt;FmModule -->
<g id="edge6" class="edge">
<title>FileSizePipe&#45;&gt;FmModule</title>
<path fill="none" stroke="#000000" d="M1347,-122.027C1347,-138.3976 1347,-160 1347,-160 1347,-160 1111.3288,-160 1111.3288,-160"/>
<polygon fill="#000000" stroke="#000000" points="1111.3288,-156.5001 1101.3288,-160 1111.3288,-163.5001 1111.3288,-156.5001"/>
</g>
<!-- DeleteItemComponent -->
<g id="node7" class="node">
<title>DeleteItemComponent</title>
<polygon fill="#ffffb3" stroke="#000000" points="1285.5212,-122 1142.4788,-122 1142.4788,-86 1285.5212,-86 1285.5212,-122"/>
<text text-anchor="middle" x="1214" y="-99.8" font-family="Times,serif" font-size="14.00" fill="#000000">DeleteItemComponent</text>
</g>
<!-- DeleteItemComponent&#45;&gt;FmModule -->
<g id="edge7" class="edge">
<title>DeleteItemComponent&#45;&gt;FmModule</title>
<path fill="none" stroke="#000000" d="M1166.9963,-122.1871C1166.9963,-137.1824 1166.9963,-156 1166.9963,-156 1166.9963,-156 1111.3955,-156 1111.3955,-156"/>
<polygon fill="#000000" stroke="#000000" points="1111.3955,-152.5001 1101.3955,-156 1111.3954,-159.5001 1111.3955,-152.5001"/>
</g>
<!-- FmComponent  -->
<g id="node15" class="node">
<title>FmComponent </title>
<polygon fill="#fb8072" stroke="#000000" points="1191.5068,-252 1088.4932,-252 1088.4932,-216 1191.5068,-216 1191.5068,-252"/>
<text text-anchor="middle" x="1140" y="-229.8" font-family="Times,serif" font-size="14.00" fill="#000000">FmComponent </text>
</g>
<!-- FmModule&#45;&gt;FmComponent  -->
<g id="edge14" class="edge">
<title>FmModule&#45;&gt;FmComponent </title>
<path fill="none" stroke="#000000" stroke-dasharray="5,2" d="M1094.6793,-187.1061C1094.6793,-187.1061 1094.6793,-205.991 1094.6793,-205.991"/>
<polygon fill="#000000" stroke="#000000" points="1091.1794,-205.9909 1094.6793,-215.991 1098.1794,-205.991 1091.1794,-205.9909"/>
</g>
<!-- FmBreadcrumbComponent  -->
<g id="node16" class="node">
<title>FmBreadcrumbComponent </title>
<polygon fill="#fb8072" stroke="#000000" points="1070.1981,-252 897.8019,-252 897.8019,-216 1070.1981,-216 1070.1981,-252"/>
<text text-anchor="middle" x="984" y="-229.8" font-family="Times,serif" font-size="14.00" fill="#000000">FmBreadcrumbComponent </text>
</g>
<!-- FmModule&#45;&gt;FmBreadcrumbComponent  -->
<g id="edge15" class="edge">
<title>FmModule&#45;&gt;FmBreadcrumbComponent </title>
<path fill="none" stroke="#000000" stroke-dasharray="5,2" d="M1046.6187,-187.1061C1046.6187,-187.1061 1046.6187,-205.991 1046.6187,-205.991"/>
<polygon fill="#000000" stroke="#000000" points="1043.1188,-205.9909 1046.6187,-215.991 1050.1188,-205.991 1043.1188,-205.9909"/>
</g>
<!-- CommonModule -->
<g id="node9" class="node">
<title>CommonModule</title>
<polygon fill="#8dd3c7" stroke="#000000" points="1117.6681,-122 1114.6681,-126 1093.6681,-126 1090.6681,-122 1006.3319,-122 1006.3319,-86 1117.6681,-86 1117.6681,-122"/>
<text text-anchor="middle" x="1062" y="-99.8" font-family="Times,serif" font-size="14.00" fill="#000000">CommonModule</text>
</g>
<!-- CommonModule&#45;&gt;FmModule -->
<g id="edge8" class="edge">
<title>CommonModule&#45;&gt;FmModule</title>
<path fill="none" stroke="#000000" d="M1062,-122.1061C1062,-122.1061 1062,-140.991 1062,-140.991"/>
<polygon fill="#000000" stroke="#000000" points="1058.5001,-140.9909 1062,-150.991 1065.5001,-140.991 1058.5001,-140.9909"/>
</g>
<!-- DataTableModule -->
<g id="node10" class="node">
<title>DataTableModule</title>
<polygon fill="#8dd3c7" stroke="#000000" points="987.8487,-122 984.8487,-126 963.8487,-126 960.8487,-122 870.1513,-122 870.1513,-86 987.8487,-86 987.8487,-122"/>
<text text-anchor="middle" x="929" y="-99.8" font-family="Times,serif" font-size="14.00" fill="#000000">DataTableModule</text>
</g>
<!-- DataTableModule&#45;&gt;FmModule -->
<g id="edge9" class="edge">
<title>DataTableModule&#45;&gt;FmModule</title>
<path fill="none" stroke="#000000" d="M942.7877,-122.1871C942.7877,-137.1824 942.7877,-156 942.7877,-156 942.7877,-156 1012.635,-156 1012.635,-156"/>
<polygon fill="#000000" stroke="#000000" points="1012.6351,-159.5001 1022.635,-156 1012.635,-152.5001 1012.6351,-159.5001"/>
</g>
<!-- FileUploadModule -->
<g id="node11" class="node">
<title>FileUploadModule</title>
<polygon fill="#8dd3c7" stroke="#000000" points="852.0409,-122 849.0409,-126 828.0409,-126 825.0409,-122 729.9591,-122 729.9591,-86 852.0409,-86 852.0409,-122"/>
<text text-anchor="middle" x="791" y="-99.8" font-family="Times,serif" font-size="14.00" fill="#000000">FileUploadModule</text>
</g>
<!-- FileUploadModule&#45;&gt;FmModule -->
<g id="edge10" class="edge">
<title>FileUploadModule&#45;&gt;FmModule</title>
<path fill="none" stroke="#000000" d="M791,-122.027C791,-138.3976 791,-160 791,-160 791,-160 1012.8837,-160 1012.8837,-160"/>
<polygon fill="#000000" stroke="#000000" points="1012.8837,-163.5001 1022.8837,-160 1012.8837,-156.5001 1012.8837,-163.5001"/>
</g>
<!-- FormsModule -->
<g id="node12" class="node">
<title>FormsModule</title>
<polygon fill="#8dd3c7" stroke="#000000" points="711.8288,-122 708.8288,-126 687.8288,-126 684.8288,-122 616.1712,-122 616.1712,-86 711.8288,-86 711.8288,-122"/>
<text text-anchor="middle" x="664" y="-99.8" font-family="Times,serif" font-size="14.00" fill="#000000">FormsModule</text>
</g>
<!-- FormsModule&#45;&gt;FmModule -->
<g id="edge11" class="edge">
<title>FormsModule&#45;&gt;FmModule</title>
<path fill="none" stroke="#000000" d="M664,-122.302C664,-140.2699 664,-165 664,-165 664,-165 1012.749,-165 1012.749,-165"/>
<polygon fill="#000000" stroke="#000000" points="1012.749,-168.5001 1022.749,-165 1012.749,-161.5001 1012.749,-168.5001"/>
</g>
<!-- NgbModule -->
<g id="node13" class="node">
<title>NgbModule</title>
<polygon fill="#8dd3c7" stroke="#000000" points="598.6571,-122 595.6571,-126 574.6571,-126 571.6571,-122 515.3429,-122 515.3429,-86 598.6571,-86 598.6571,-122"/>
<text text-anchor="middle" x="557" y="-99.8" font-family="Times,serif" font-size="14.00" fill="#000000">NgbModule</text>
</g>
<!-- NgbModule&#45;&gt;FmModule -->
<g id="edge12" class="edge">
<title>NgbModule&#45;&gt;FmModule</title>
<path fill="none" stroke="#000000" d="M557,-122.1061C557,-141.3391 557,-169 557,-169 557,-169 1012.7937,-169 1012.7937,-169"/>
<polygon fill="#000000" stroke="#000000" points="1012.7937,-172.5001 1022.7937,-169 1012.7937,-165.5001 1012.7937,-172.5001"/>
</g>
<!-- ReactiveFormsModule -->
<g id="node14" class="node">
<title>ReactiveFormsModule</title>
<polygon fill="#8dd3c7" stroke="#000000" points="497.3047,-122 494.3047,-126 473.3047,-126 470.3047,-122 352.6953,-122 352.6953,-86 497.3047,-86 497.3047,-122"/>
<text text-anchor="middle" x="425" y="-99.8" font-family="Times,serif" font-size="14.00" fill="#000000">ReactiveFormsModule</text>
</g>
<!-- ReactiveFormsModule&#45;&gt;FmModule -->
<g id="edge13" class="edge">
<title>ReactiveFormsModule&#45;&gt;FmModule</title>
<path fill="none" stroke="#000000" d="M425,-122.0267C425,-142.7672 425,-174 425,-174 425,-174 1012.6335,-174 1012.6335,-174"/>
<polygon fill="#000000" stroke="#000000" points="1012.6336,-177.5001 1022.6335,-174 1012.6335,-170.5001 1012.6336,-177.5001"/>
</g>
<!-- MediaService -->
<g id="node17" class="node">
<title>MediaService</title>
<ellipse fill="#fdb462" stroke="#000000" cx="264" cy="-104" rx="64.8234" ry="18"/>
<text text-anchor="middle" x="264" y="-99.8" font-family="Times,serif" font-size="14.00" fill="#000000">MediaService</text>
</g>
<!-- MediaService&#45;&gt;FmModule -->
<g id="edge16" class="edge">
<title>MediaService&#45;&gt;FmModule</title>
<path fill="none" stroke="#000000" d="M264,-122.2921C264,-144.2057 264,-178 264,-178 264,-178 1012.6992,-178 1012.6992,-178"/>
<polygon fill="#000000" stroke="#000000" points="1012.6993,-181.5001 1022.6992,-178 1012.6992,-174.5001 1012.6993,-181.5001"/>
</g>
<!-- NgbActiveModal -->
<g id="node18" class="node">
<title>NgbActiveModal</title>
<ellipse fill="#fdb462" stroke="#000000" cx="103" cy="-104" rx="78.7337" ry="18"/>
<text text-anchor="middle" x="103" y="-99.8" font-family="Times,serif" font-size="14.00" fill="#000000">NgbActiveModal</text>
</g>
<!-- NgbActiveModal&#45;&gt;FmModule -->
<g id="edge17" class="edge">
<title>NgbActiveModal&#45;&gt;FmModule</title>
<path fill="none" stroke="#000000" d="M103,-122.3228C103,-145.6602 103,-183 103,-183 103,-183 1012.6182,-183 1012.6182,-183"/>
<polygon fill="#000000" stroke="#000000" points="1012.6182,-186.5001 1022.6182,-183 1012.6181,-179.5001 1012.6182,-186.5001"/>
</g>
</g>
</svg>
