<?xml version="1.0" encoding="UTF-8" standalone="no"?>
<!DOCTYPE svg PUBLIC "-//W3C//DTD SVG 1.1//EN"
 "http://www.w3.org/Graphics/SVG/1.1/DTD/svg11.dtd">
<!-- Generated by graphviz version 2.40.1 (20161225.0304)
 -->
<!-- Title: dependencies Pages: 1 -->
<svg width="1314pt" height="284pt"
 viewBox="0.00 0.00 1314.00 284.00" xmlns="http://www.w3.org/2000/svg" xmlns:xlink="http://www.w3.org/1999/xlink">
<g id="graph0" class="graph" transform="scale(1 1) rotate(0) translate(4 280)">
<title>dependencies</title>
<polygon fill="#ffffff" stroke="transparent" points="-4,4 -4,-280 1310,-280 1310,4 -4,4"/>
<text text-anchor="start" x="632.0091" y="-42.4" font-family="sans-serif" font-weight="bold" font-size="14.00" fill="#000000">Legend</text>
<polygon fill="#ffffb3" stroke="transparent" points="419,-10 419,-30 439,-30 439,-10 419,-10"/>
<text text-anchor="start" x="442.629" y="-15.4" font-family="sans-serif" font-size="14.00" fill="#000000"> &#160;Declarations</text>
<polygon fill="#8dd3c7" stroke="transparent" points="532,-10 532,-30 552,-30 552,-10 532,-10"/>
<text text-anchor="start" x="555.7251" y="-15.4" font-family="sans-serif" font-size="14.00" fill="#000000"> &#160;Module</text>
<polygon fill="#80b1d3" stroke="transparent" points="618,-10 618,-30 638,-30 638,-10 618,-10"/>
<text text-anchor="start" x="641.7812" y="-15.4" font-family="sans-serif" font-size="14.00" fill="#000000"> &#160;Bootstrap</text>
<polygon fill="#fdb462" stroke="transparent" points="715,-10 715,-30 735,-30 735,-10 715,-10"/>
<text text-anchor="start" x="738.6732" y="-15.4" font-family="sans-serif" font-size="14.00" fill="#000000"> &#160;Providers</text>
<polygon fill="#fb8072" stroke="transparent" points="811,-10 811,-30 831,-30 831,-10 811,-10"/>
<text text-anchor="start" x="834.7258" y="-15.4" font-family="sans-serif" font-size="14.00" fill="#000000"> &#160;Exports</text>
<g id="clust1" class="cluster">
<title>cluster_FmModule</title>
<polygon fill="none" stroke="#000000" stroke-dasharray="1,5" points="8,-70 8,-268 1298,-268 1298,-70 8,-70"/>
</g>
<g id="clust2" class="cluster">
<title>cluster_FmModule_declarations</title>
<polygon fill="none" stroke="#000000" points="871,-78 871,-130 1290,-130 1290,-78 871,-78"/>
</g>
<g id="clust6" class="cluster">
<title>cluster_FmModule_imports</title>
<polygon fill="none" stroke="#000000" points="345,-78 345,-130 863,-130 863,-78 345,-78"/>
</g>
<g id="clust7" class="cluster">
<title>cluster_FmModule_exports</title>
<polygon fill="none" stroke="#000000" points="494,-208 494,-260 804,-260 804,-208 494,-208"/>
</g>
<g id="clust9" class="cluster">
<title>cluster_FmModule_providers</title>
<polygon fill="none" stroke="#000000" points="16,-78 16,-130 337,-130 337,-78 16,-78"/>
</g>
<!-- FmComponent -->
<g id="node1" class="node">
<title>FmComponent</title>
<polygon fill="#ffffb3" stroke="#000000" points="1282.0056,-122 1181.9944,-122 1181.9944,-86 1282.0056,-86 1282.0056,-122"/>
<text text-anchor="middle" x="1232" y="-99.8" font-family="Times,serif" font-size="14.00" fill="#000000">FmComponent</text>
</g>
<!-- FmModule -->
<g id="node4" class="node">
<title>FmModule</title>
<polygon fill="#8dd3c7" stroke="#000000" points="705.2233,-187 702.2233,-191 681.2233,-191 678.2233,-187 626.7767,-187 626.7767,-151 705.2233,-151 705.2233,-187"/>
<text text-anchor="middle" x="666" y="-164.8" font-family="Times,serif" font-size="14.00" fill="#000000">FmModule</text>
</g>
<!-- FmComponent&#45;&gt;FmModule -->
<g id="edge1" class="edge">
<title>FmComponent&#45;&gt;FmModule</title>
<path fill="none" stroke="#000000" d="M1232,-122.0109C1232,-144.4852 1232,-180 1232,-180 1232,-180 715.3506,-180 715.3506,-180"/>
<polygon fill="#000000" stroke="#000000" points="715.3507,-176.5001 705.3506,-180 715.3506,-183.5001 715.3507,-176.5001"/>
</g>
<!-- FmBreadcrumbComponent -->
<g id="node2" class="node">
<title>FmBreadcrumbComponent</title>
<polygon fill="#ffffb3" stroke="#000000" points="1163.6979,-122 994.3021,-122 994.3021,-86 1163.6979,-86 1163.6979,-122"/>
<text text-anchor="middle" x="1079" y="-99.8" font-family="Times,serif" font-size="14.00" fill="#000000">FmBreadcrumbComponent</text>
</g>
<!-- FmBreadcrumbComponent&#45;&gt;FmModule -->
<g id="edge2" class="edge">
<title>FmBreadcrumbComponent&#45;&gt;FmModule</title>
<path fill="none" stroke="#000000" d="M1079,-122.1289C1079,-142.5724 1079,-173 1079,-173 1079,-173 715.2264,-173 715.2264,-173"/>
<polygon fill="#000000" stroke="#000000" points="715.2264,-169.5001 705.2264,-173 715.2263,-176.5001 715.2264,-169.5001"/>
</g>
<!-- DataFilterPipe -->
<g id="node3" class="node">
<title>DataFilterPipe</title>
<polygon fill="#ffffb3" stroke="#000000" points="976.6444,-122 879.3556,-122 879.3556,-86 976.6444,-86 976.6444,-122"/>
<text text-anchor="middle" x="928" y="-99.8" font-family="Times,serif" font-size="14.00" fill="#000000">DataFilterPipe</text>
</g>
<!-- DataFilterPipe&#45;&gt;FmModule -->
<g id="edge3" class="edge">
<title>DataFilterPipe&#45;&gt;FmModule</title>
<path fill="none" stroke="#000000" d="M928,-122.2667C928,-140.5552 928,-166 928,-166 928,-166 715.224,-166 715.224,-166"/>
<polygon fill="#000000" stroke="#000000" points="715.2241,-162.5001 705.224,-166 715.224,-169.5001 715.2241,-162.5001"/>
</g>
<!-- FmComponent  -->
<g id="node9" class="node">
<title>FmComponent </title>
<polygon fill="#fb8072" stroke="#000000" points="795.5068,-252 692.4932,-252 692.4932,-216 795.5068,-216 795.5068,-252"/>
<text text-anchor="middle" x="744" y="-229.8" font-family="Times,serif" font-size="14.00" fill="#000000">FmComponent </text>
</g>
<!-- FmModule&#45;&gt;FmComponent  -->
<g id="edge8" class="edge">
<title>FmModule&#45;&gt;FmComponent </title>
<path fill="none" stroke="#000000" stroke-dasharray="5,2" d="M698.6794,-187.1061C698.6794,-187.1061 698.6794,-205.991 698.6794,-205.991"/>
<polygon fill="#000000" stroke="#000000" points="695.1794,-205.9909 698.6794,-215.991 702.1794,-205.991 695.1794,-205.9909"/>
</g>
<!-- FmBreadcrumbComponent  -->
<g id="node10" class="node">
<title>FmBreadcrumbComponent </title>
<polygon fill="#fb8072" stroke="#000000" points="674.1981,-252 501.8019,-252 501.8019,-216 674.1981,-216 674.1981,-252"/>
<text text-anchor="middle" x="588" y="-229.8" font-family="Times,serif" font-size="14.00" fill="#000000">FmBreadcrumbComponent </text>
</g>
<!-- FmModule&#45;&gt;FmBreadcrumbComponent  -->
<g id="edge9" class="edge">
<title>FmModule&#45;&gt;FmBreadcrumbComponent </title>
<path fill="none" stroke="#000000" stroke-dasharray="5,2" d="M650.6187,-187.1061C650.6187,-187.1061 650.6187,-205.991 650.6187,-205.991"/>
<polygon fill="#000000" stroke="#000000" points="647.1188,-205.9909 650.6187,-215.991 654.1188,-205.991 647.1188,-205.9909"/>
</g>
<!-- CommonModule -->
<g id="node5" class="node">
<title>CommonModule</title>
<polygon fill="#8dd3c7" stroke="#000000" points="854.6681,-122 851.6681,-126 830.6681,-126 827.6681,-122 743.3319,-122 743.3319,-86 854.6681,-86 854.6681,-122"/>
<text text-anchor="middle" x="799" y="-99.8" font-family="Times,serif" font-size="14.00" fill="#000000">CommonModule</text>
</g>
<!-- CommonModule&#45;&gt;FmModule -->
<g id="edge4" class="edge">
<title>CommonModule&#45;&gt;FmModule</title>
<path fill="none" stroke="#000000" d="M769.4595,-122.0091C769.4595,-138.0494 769.4595,-159 769.4595,-159 769.4595,-159 715.1136,-159 715.1136,-159"/>
<polygon fill="#000000" stroke="#000000" points="715.1136,-155.5001 705.1136,-159 715.1136,-162.5001 715.1136,-155.5001"/>
</g>
<!-- DataTableModule -->
<g id="node6" class="node">
<title>DataTableModule</title>
<polygon fill="#8dd3c7" stroke="#000000" points="724.8487,-122 721.8487,-126 700.8487,-126 697.8487,-122 607.1513,-122 607.1513,-86 724.8487,-86 724.8487,-122"/>
<text text-anchor="middle" x="666" y="-99.8" font-family="Times,serif" font-size="14.00" fill="#000000">DataTableModule</text>
</g>
<!-- DataTableModule&#45;&gt;FmModule -->
<g id="edge5" class="edge">
<title>DataTableModule&#45;&gt;FmModule</title>
<path fill="none" stroke="#000000" d="M666,-122.1061C666,-122.1061 666,-140.991 666,-140.991"/>
<polygon fill="#000000" stroke="#000000" points="662.5001,-140.9909 666,-150.991 669.5001,-140.991 662.5001,-140.9909"/>
</g>
<!-- FileUploadModule -->
<g id="node7" class="node">
<title>FileUploadModule</title>
<polygon fill="#8dd3c7" stroke="#000000" points="589.0409,-122 586.0409,-126 565.0409,-126 562.0409,-122 466.9591,-122 466.9591,-86 589.0409,-86 589.0409,-122"/>
<text text-anchor="middle" x="528" y="-99.8" font-family="Times,serif" font-size="14.00" fill="#000000">FileUploadModule</text>
</g>
<!-- FileUploadModule&#45;&gt;FmModule -->
<g id="edge6" class="edge">
<title>FileUploadModule&#45;&gt;FmModule</title>
<path fill="none" stroke="#000000" d="M545.4606,-122.0091C545.4606,-138.0494 545.4606,-159 545.4606,-159 545.4606,-159 616.8643,-159 616.8643,-159"/>
<polygon fill="#000000" stroke="#000000" points="616.8643,-162.5001 626.8643,-159 616.8643,-155.5001 616.8643,-162.5001"/>
</g>
<!-- FormsModule -->
<g id="node8" class="node">
<title>FormsModule</title>
<polygon fill="#8dd3c7" stroke="#000000" points="448.8288,-122 445.8288,-126 424.8288,-126 421.8288,-122 353.1712,-122 353.1712,-86 448.8288,-86 448.8288,-122"/>
<text text-anchor="middle" x="401" y="-99.8" font-family="Times,serif" font-size="14.00" fill="#000000">FormsModule</text>
</g>
<!-- FormsModule&#45;&gt;FmModule -->
<g id="edge7" class="edge">
<title>FormsModule&#45;&gt;FmModule</title>
<path fill="none" stroke="#000000" d="M401,-122.2667C401,-140.5552 401,-166 401,-166 401,-166 616.613,-166 616.613,-166"/>
<polygon fill="#000000" stroke="#000000" points="616.613,-169.5001 626.613,-166 616.6129,-162.5001 616.613,-169.5001"/>
</g>
<!-- MediaService -->
<g id="node11" class="node">
<title>MediaService</title>
<ellipse fill="#fdb462" stroke="#000000" cx="264" cy="-104" rx="64.8234" ry="18"/>
<text text-anchor="middle" x="264" y="-99.8" font-family="Times,serif" font-size="14.00" fill="#000000">MediaService</text>
</g>
<!-- MediaService&#45;&gt;FmModule -->
<g id="edge10" class="edge">
<title>MediaService&#45;&gt;FmModule</title>
<path fill="none" stroke="#000000" d="M264,-122.1289C264,-142.5724 264,-173 264,-173 264,-173 616.7226,-173 616.7226,-173"/>
<polygon fill="#000000" stroke="#000000" points="616.7226,-176.5001 626.7226,-173 616.7226,-169.5001 616.7226,-176.5001"/>
</g>
<!-- NgbActiveModal -->
<g id="node12" class="node">
<title>NgbActiveModal</title>
<ellipse fill="#fdb462" stroke="#000000" cx="103" cy="-104" rx="78.7337" ry="18"/>
<text text-anchor="middle" x="103" y="-99.8" font-family="Times,serif" font-size="14.00" fill="#000000">NgbActiveModal</text>
</g>
<!-- NgbActiveModal&#45;&gt;FmModule -->
<g id="edge11" class="edge">
<title>NgbActiveModal&#45;&gt;FmModule</title>
<path fill="none" stroke="#000000" d="M103,-122.0109C103,-144.4852 103,-180 103,-180 103,-180 616.8579,-180 616.8579,-180"/>
<polygon fill="#000000" stroke="#000000" points="616.858,-183.5001 626.8579,-180 616.8579,-176.5001 616.858,-183.5001"/>
</g>
</g>
</svg>
