<?xml version="1.0" encoding="UTF-8" standalone="no"?>
<!DOCTYPE svg PUBLIC "-//W3C//DTD SVG 1.1//EN"
 "http://www.w3.org/Graphics/SVG/1.1/DTD/svg11.dtd">
<!-- Generated by graphviz version 2.40.1 (20161225.0304)
 -->
<!-- Title: dependencies Pages: 1 -->
<svg width="616pt" height="211pt"
 viewBox="0.00 0.00 616.00 211.00" xmlns="http://www.w3.org/2000/svg" xmlns:xlink="http://www.w3.org/1999/xlink">
<g id="graph0" class="graph" transform="scale(1 1) rotate(0) translate(4 207)">
<title>dependencies</title>
<polygon fill="#ffffff" stroke="transparent" points="-4,4 -4,-207 612,-207 612,4 -4,4"/>
<text text-anchor="start" x="283.0091" y="-42.4" font-family="sans-serif" font-weight="bold" font-size="14.00" fill="#000000">Legend</text>
<polygon fill="#ffffb3" stroke="transparent" points="70,-10 70,-30 90,-30 90,-10 70,-10"/>
<text text-anchor="start" x="93.629" y="-15.4" font-family="sans-serif" font-size="14.00" fill="#000000"> &#160;Declarations</text>
<polygon fill="#8dd3c7" stroke="transparent" points="183,-10 183,-30 203,-30 203,-10 183,-10"/>
<text text-anchor="start" x="206.7251" y="-15.4" font-family="sans-serif" font-size="14.00" fill="#000000"> &#160;Module</text>
<polygon fill="#80b1d3" stroke="transparent" points="269,-10 269,-30 289,-30 289,-10 269,-10"/>
<text text-anchor="start" x="292.7812" y="-15.4" font-family="sans-serif" font-size="14.00" fill="#000000"> &#160;Bootstrap</text>
<polygon fill="#fdb462" stroke="transparent" points="366,-10 366,-30 386,-30 386,-10 366,-10"/>
<text text-anchor="start" x="389.6732" y="-15.4" font-family="sans-serif" font-size="14.00" fill="#000000"> &#160;Providers</text>
<polygon fill="#fb8072" stroke="transparent" points="462,-10 462,-30 482,-30 482,-10 462,-10"/>
<text text-anchor="start" x="485.7258" y="-15.4" font-family="sans-serif" font-size="14.00" fill="#000000"> &#160;Exports</text>
<g id="clust1" class="cluster">
<title>cluster_TablesModule</title>
<polygon fill="none" stroke="#000000" stroke-dasharray="1,5" points="8,-70 8,-195 600,-195 600,-70 8,-70"/>
</g>
<g id="clust2" class="cluster">
<title>cluster_TablesModule_declarations</title>
<polygon fill="none" stroke="#000000" points="458,-78 458,-130 592,-130 592,-78 458,-78"/>
</g>
<g id="clust4" class="cluster">
<title>cluster_TablesModule_imports</title>
<polygon fill="none" stroke="#000000" points="16,-78 16,-130 450,-130 450,-78 16,-78"/>
</g>
<!-- TablesComponent -->
<g id="node1" class="node">
<title>TablesComponent</title>
<polygon fill="#ffffb3" stroke="#000000" points="584.1499,-122 465.8501,-122 465.8501,-86 584.1499,-86 584.1499,-122"/>
<text text-anchor="middle" x="525" y="-99.8" font-family="Times,serif" font-size="14.00" fill="#000000">TablesComponent</text>
</g>
<!-- TablesModule -->
<g id="node2" class="node">
<title>TablesModule</title>
<polygon fill="#8dd3c7" stroke="#000000" points="361.3669,-187 358.3669,-191 337.3669,-191 334.3669,-187 264.6331,-187 264.6331,-151 361.3669,-151 361.3669,-187"/>
<text text-anchor="middle" x="313" y="-164.8" font-family="Times,serif" font-size="14.00" fill="#000000">TablesModule</text>
</g>
<!-- TablesComponent&#45;&gt;TablesModule -->
<g id="edge1" class="edge">
<title>TablesComponent&#45;&gt;TablesModule</title>
<path fill="none" stroke="#000000" d="M525,-122.1061C525,-141.3391 525,-169 525,-169 525,-169 371.3714,-169 371.3714,-169"/>
<polygon fill="#000000" stroke="#000000" points="371.3714,-165.5001 361.3714,-169 371.3713,-172.5001 371.3714,-165.5001"/>
</g>
<!-- CommonModule -->
<g id="node3" class="node">
<title>CommonModule</title>
<polygon fill="#8dd3c7" stroke="#000000" points="441.6681,-122 438.6681,-126 417.6681,-126 414.6681,-122 330.3319,-122 330.3319,-86 441.6681,-86 441.6681,-122"/>
<text text-anchor="middle" x="386" y="-99.8" font-family="Times,serif" font-size="14.00" fill="#000000">CommonModule</text>
</g>
<!-- CommonModule&#45;&gt;TablesModule -->
<g id="edge2" class="edge">
<title>CommonModule&#45;&gt;TablesModule</title>
<path fill="none" stroke="#000000" d="M345.7998,-122.1061C345.7998,-122.1061 345.7998,-140.991 345.7998,-140.991"/>
<polygon fill="#000000" stroke="#000000" points="342.2999,-140.9909 345.7998,-150.991 349.2999,-140.991 342.2999,-140.9909"/>
</g>
<!-- TablesRoutingModule -->
<g id="node4" class="node">
<title>TablesRoutingModule</title>
<polygon fill="#8dd3c7" stroke="#000000" points="311.9846,-122 308.9846,-126 287.9846,-126 284.9846,-122 170.0154,-122 170.0154,-86 311.9846,-86 311.9846,-122"/>
<text text-anchor="middle" x="241" y="-99.8" font-family="Times,serif" font-size="14.00" fill="#000000">TablesRoutingModule</text>
</g>
<!-- TablesRoutingModule&#45;&gt;TablesModule -->
<g id="edge3" class="edge">
<title>TablesRoutingModule&#45;&gt;TablesModule</title>
<path fill="none" stroke="#000000" d="M288.2795,-122.1061C288.2795,-122.1061 288.2795,-140.991 288.2795,-140.991"/>
<polygon fill="#000000" stroke="#000000" points="284.7795,-140.9909 288.2795,-150.991 291.7795,-140.991 284.7795,-140.9909"/>
</g>
<!-- PageHeaderModule -->
<g id="node5" class="node">
<title>PageHeaderModule</title>
<polygon fill="#8dd3c7" stroke="#000000" points="151.6727,-122 148.6727,-126 127.6727,-126 124.6727,-122 24.3273,-122 24.3273,-86 151.6727,-86 151.6727,-122"/>
<text text-anchor="middle" x="88" y="-99.8" font-family="Times,serif" font-size="14.00" fill="#000000">PageHeaderModule</text>
</g>
<!-- PageHeaderModule&#45;&gt;TablesModule -->
<g id="edge4" class="edge">
<title>PageHeaderModule&#45;&gt;TablesModule</title>
<path fill="none" stroke="#000000" d="M88,-122.1061C88,-141.3391 88,-169 88,-169 88,-169 254.4554,-169 254.4554,-169"/>
<polygon fill="#000000" stroke="#000000" points="254.4554,-172.5001 264.4554,-169 254.4553,-165.5001 254.4554,-172.5001"/>
</g>
</g>
</svg>
