<?xml version="1.0" encoding="UTF-8" standalone="no"?>
<!DOCTYPE svg PUBLIC "-//W3C//DTD SVG 1.1//EN"
 "http://www.w3.org/Graphics/SVG/1.1/DTD/svg11.dtd">
<!-- Generated by graphviz version 2.38.0 (20140413.2041)
 -->
<!-- Title: dependencies Pages: 1 -->
<svg width="830pt" height="284pt"
 viewBox="0.00 0.00 830.00 284.00" xmlns="http://www.w3.org/2000/svg" xmlns:xlink="http://www.w3.org/1999/xlink">
<g id="graph0" class="graph" transform="scale(1 1) rotate(0) translate(4 280)">
<title>dependencies</title>
<polygon fill="white" stroke="none" points="-4,4 -4,-280 826,-280 826,4 -4,4"/>
<text text-anchor="start" x="390.009" y="-42.4" font-family="sans-serif" font-weight="bold" font-size="14.00">Legend</text>
<polygon fill="#ffffb3" stroke="none" points="177,-10 177,-30 197,-30 197,-10 177,-10"/>
<text text-anchor="start" x="200.629" y="-15.4" font-family="sans-serif" font-size="14.00"> &#160;Declarations</text>
<polygon fill="#8dd3c7" stroke="none" points="290,-10 290,-30 310,-30 310,-10 290,-10"/>
<text text-anchor="start" x="313.725" y="-15.4" font-family="sans-serif" font-size="14.00"> &#160;Module</text>
<polygon fill="#80b1d3" stroke="none" points="376,-10 376,-30 396,-30 396,-10 376,-10"/>
<text text-anchor="start" x="399.781" y="-15.4" font-family="sans-serif" font-size="14.00"> &#160;Bootstrap</text>
<polygon fill="#fdb462" stroke="none" points="473,-10 473,-30 493,-30 493,-10 473,-10"/>
<text text-anchor="start" x="496.673" y="-15.4" font-family="sans-serif" font-size="14.00"> &#160;Providers</text>
<polygon fill="#fb8072" stroke="none" points="569,-10 569,-30 589,-30 589,-10 569,-10"/>
<text text-anchor="start" x="592.726" y="-15.4" font-family="sans-serif" font-size="14.00"> &#160;Exports</text>
<g id="clust1" class="cluster"><title>cluster_LoginModule</title>
<polygon fill="none" stroke="black" stroke-dasharray="1,5" points="8,-70 8,-268 814,-268 814,-70 8,-70"/>
</g>
<g id="clust2" class="cluster"><title>cluster_LoginModule_declarations</title>
<polygon fill="none" stroke="black" points="676,-78 676,-130 806,-130 806,-78 676,-78"/>
</g>
<g id="clust4" class="cluster"><title>cluster_LoginModule_imports</title>
<polygon fill="none" stroke="black" points="16,-78 16,-130 668,-130 668,-78 16,-78"/>
</g>
<g id="clust5" class="cluster"><title>cluster_LoginModule_exports</title>
<polygon fill="none" stroke="black" points="213,-208 213,-260 629,-260 629,-208 213,-208"/>
</g>
<!-- LoginComponent -->
<g id="node1" class="node"><title>LoginComponent</title>
<polygon fill="#ffffb3" stroke="black" points="798.276,-122 683.724,-122 683.724,-86 798.276,-86 798.276,-122"/>
<text text-anchor="middle" x="741" y="-99.8" font-family="Times,serif" font-size="14.00">LoginComponent</text>
</g>
<!-- LoginModule -->
<g id="node2" class="node"><title>LoginModule</title>
<polygon fill="#8dd3c7" stroke="black" points="457.493,-187 454.493,-191 433.493,-191 430.493,-187 364.507,-187 364.507,-151 457.493,-151 457.493,-187"/>
<text text-anchor="middle" x="411" y="-164.8" font-family="Times,serif" font-size="14.00">LoginModule</text>
</g>
<!-- LoginComponent&#45;&gt;LoginModule -->
<g id="edge1" class="edge"><title>LoginComponent&#45;&gt;LoginModule</title>
<path fill="none" stroke="black" d="M741,-122.106C741,-141.339 741,-169 741,-169 741,-169 467.581,-169 467.581,-169"/>
<polygon fill="black" stroke="black" points="467.581,-165.5 457.581,-169 467.581,-172.5 467.581,-165.5"/>
</g>
<!-- LoginComponent  -->
<g id="node8" class="node"><title>LoginComponent </title>
<polygon fill="#fb8072" stroke="black" points="621.276,-252 502.724,-252 502.724,-216 621.276,-216 621.276,-252"/>
<text text-anchor="middle" x="562" y="-229.8" font-family="Times,serif" font-size="14.00">LoginComponent </text>
</g>
<!-- LoginModule&#45;&gt;LoginComponent  -->
<g id="edge7" class="edge"><title>LoginModule&#45;&gt;LoginComponent </title>
<path fill="none" stroke="black" stroke-dasharray="5,2" d="M457.512,-178C485.732,-178 516.344,-178 516.344,-178 516.344,-178 516.344,-205.973 516.344,-205.973"/>
<polygon fill="black" stroke="black" points="512.844,-205.973 516.344,-215.973 519.844,-205.973 512.844,-205.973"/>
</g>
<!-- ReactiveFormsModule  -->
<g id="node9" class="node"><title>ReactiveFormsModule </title>
<polygon fill="#fb8072" stroke="black" points="484.805,-252 337.195,-252 337.195,-216 484.805,-216 484.805,-252"/>
<text text-anchor="middle" x="411" y="-229.8" font-family="Times,serif" font-size="14.00">ReactiveFormsModule </text>
</g>
<!-- LoginModule&#45;&gt;ReactiveFormsModule  -->
<g id="edge8" class="edge"><title>LoginModule&#45;&gt;ReactiveFormsModule </title>
<path fill="none" stroke="black" stroke-dasharray="5,2" d="M411,-187.106C411,-187.106 411,-205.991 411,-205.991"/>
<polygon fill="black" stroke="black" points="407.5,-205.991 411,-215.991 414.5,-205.991 407.5,-205.991"/>
</g>
<!-- FormsModule  -->
<g id="node10" class="node"><title>FormsModule </title>
<polygon fill="#fb8072" stroke="black" points="319.328,-252 220.672,-252 220.672,-216 319.328,-216 319.328,-252"/>
<text text-anchor="middle" x="270" y="-229.8" font-family="Times,serif" font-size="14.00">FormsModule </text>
</g>
<!-- LoginModule&#45;&gt;FormsModule  -->
<g id="edge9" class="edge"><title>LoginModule&#45;&gt;FormsModule </title>
<path fill="none" stroke="black" stroke-dasharray="5,2" d="M364.339,-178C331.964,-178 294.631,-178 294.631,-178 294.631,-178 294.631,-205.973 294.631,-205.973"/>
<polygon fill="black" stroke="black" points="291.131,-205.973 294.631,-215.973 298.131,-205.973 291.131,-205.973"/>
</g>
<!-- CommonModule -->
<g id="node3" class="node"><title>CommonModule</title>
<polygon fill="#8dd3c7" stroke="black" points="659.668,-122 656.668,-126 635.668,-126 632.668,-122 548.332,-122 548.332,-86 659.668,-86 659.668,-122"/>
<text text-anchor="middle" x="604" y="-99.8" font-family="Times,serif" font-size="14.00">CommonModule</text>
</g>
<!-- CommonModule&#45;&gt;LoginModule -->
<g id="edge2" class="edge"><title>CommonModule&#45;&gt;LoginModule</title>
<path fill="none" stroke="black" d="M584.652,-122.027C584.652,-138.398 584.652,-160 584.652,-160 584.652,-160 467.536,-160 467.536,-160"/>
<polygon fill="black" stroke="black" points="467.536,-156.5 457.536,-160 467.536,-163.5 467.536,-156.5"/>
</g>
<!-- RouterModule -->
<g id="node4" class="node"><title>RouterModule</title>
<polygon fill="#8dd3c7" stroke="black" points="529.653,-122 526.653,-126 505.653,-126 502.653,-122 432.347,-122 432.347,-86 529.653,-86 529.653,-122"/>
<text text-anchor="middle" x="481" y="-99.8" font-family="Times,serif" font-size="14.00">RouterModule</text>
</g>
<!-- RouterModule&#45;&gt;LoginModule -->
<g id="edge3" class="edge"><title>RouterModule&#45;&gt;LoginModule</title>
<path fill="none" stroke="black" d="M444.835,-122.106C444.835,-122.106 444.835,-140.991 444.835,-140.991"/>
<polygon fill="black" stroke="black" points="441.335,-140.991 444.835,-150.991 448.335,-140.991 441.335,-140.991"/>
</g>
<!-- ReactiveFormsModule -->
<g id="node5" class="node"><title>ReactiveFormsModule</title>
<polygon fill="#8dd3c7" stroke="black" points="414.305,-122 411.305,-126 390.305,-126 387.305,-122 269.695,-122 269.695,-86 414.305,-86 414.305,-122"/>
<text text-anchor="middle" x="342" y="-99.8" font-family="Times,serif" font-size="14.00">ReactiveFormsModule</text>
</g>
<!-- ReactiveFormsModule&#45;&gt;LoginModule -->
<g id="edge4" class="edge"><title>ReactiveFormsModule&#45;&gt;LoginModule</title>
<path fill="none" stroke="black" d="M389.328,-122.106C389.328,-122.106 389.328,-140.991 389.328,-140.991"/>
<polygon fill="black" stroke="black" points="385.828,-140.991 389.328,-150.991 392.828,-140.991 385.828,-140.991"/>
</g>
<!-- FormsModule -->
<g id="node6" class="node"><title>FormsModule</title>
<polygon fill="#8dd3c7" stroke="black" points="251.829,-122 248.829,-126 227.829,-126 224.829,-122 156.171,-122 156.171,-86 251.829,-86 251.829,-122"/>
<text text-anchor="middle" x="204" y="-99.8" font-family="Times,serif" font-size="14.00">FormsModule</text>
</g>
<!-- FormsModule&#45;&gt;LoginModule -->
<g id="edge5" class="edge"><title>FormsModule&#45;&gt;LoginModule</title>
<path fill="none" stroke="black" d="M236.125,-122.027C236.125,-138.398 236.125,-160 236.125,-160 236.125,-160 354.137,-160 354.137,-160"/>
<polygon fill="black" stroke="black" points="354.137,-163.5 364.137,-160 354.137,-156.5 354.137,-163.5"/>
</g>
<!-- MessagesModule -->
<g id="node7" class="node"><title>MessagesModule</title>
<polygon fill="#8dd3c7" stroke="black" points="137.972,-122 134.972,-126 113.972,-126 110.972,-122 24.028,-122 24.028,-86 137.972,-86 137.972,-122"/>
<text text-anchor="middle" x="81" y="-99.8" font-family="Times,serif" font-size="14.00">MessagesModule</text>
</g>
<!-- MessagesModule&#45;&gt;LoginModule -->
<g id="edge6" class="edge"><title>MessagesModule&#45;&gt;LoginModule</title>
<path fill="none" stroke="black" d="M81,-122.106C81,-141.339 81,-169 81,-169 81,-169 354.419,-169 354.419,-169"/>
<polygon fill="black" stroke="black" points="354.419,-172.5 364.419,-169 354.419,-165.5 354.419,-172.5"/>
</g>
</g>
</svg>
