<?xml version="1.0" encoding="UTF-8" standalone="no"?>
<!DOCTYPE svg PUBLIC "-//W3C//DTD SVG 1.1//EN"
 "http://www.w3.org/Graphics/SVG/1.1/DTD/svg11.dtd">
<!-- Generated by graphviz version 2.40.1 (20161225.0304)
 -->
<!-- Title: dependencies Pages: 1 -->
<svg width="737pt" height="211pt"
 viewBox="0.00 0.00 737.00 211.00" xmlns="http://www.w3.org/2000/svg" xmlns:xlink="http://www.w3.org/1999/xlink">
<g id="graph0" class="graph" transform="scale(1 1) rotate(0) translate(4 207)">
<title>dependencies</title>
<polygon fill="#ffffff" stroke="transparent" points="-4,4 -4,-207 733,-207 733,4 -4,4"/>
<text text-anchor="start" x="343.5091" y="-42.4" font-family="sans-serif" font-weight="bold" font-size="14.00" fill="#000000">Legend</text>
<polygon fill="#ffffb3" stroke="transparent" points="130.5,-10 130.5,-30 150.5,-30 150.5,-10 130.5,-10"/>
<text text-anchor="start" x="154.129" y="-15.4" font-family="sans-serif" font-size="14.00" fill="#000000"> &#160;Declarations</text>
<polygon fill="#8dd3c7" stroke="transparent" points="243.5,-10 243.5,-30 263.5,-30 263.5,-10 243.5,-10"/>
<text text-anchor="start" x="267.2251" y="-15.4" font-family="sans-serif" font-size="14.00" fill="#000000"> &#160;Module</text>
<polygon fill="#80b1d3" stroke="transparent" points="329.5,-10 329.5,-30 349.5,-30 349.5,-10 329.5,-10"/>
<text text-anchor="start" x="353.2812" y="-15.4" font-family="sans-serif" font-size="14.00" fill="#000000"> &#160;Bootstrap</text>
<polygon fill="#fdb462" stroke="transparent" points="426.5,-10 426.5,-30 446.5,-30 446.5,-10 426.5,-10"/>
<text text-anchor="start" x="450.1732" y="-15.4" font-family="sans-serif" font-size="14.00" fill="#000000"> &#160;Providers</text>
<polygon fill="#fb8072" stroke="transparent" points="522.5,-10 522.5,-30 542.5,-30 542.5,-10 522.5,-10"/>
<text text-anchor="start" x="546.2258" y="-15.4" font-family="sans-serif" font-size="14.00" fill="#000000"> &#160;Exports</text>
<g id="clust1" class="cluster">
<title>cluster_LoginModule</title>
<polygon fill="none" stroke="#000000" stroke-dasharray="1,5" points="8,-70 8,-195 721,-195 721,-70 8,-70"/>
</g>
<g id="clust2" class="cluster">
<title>cluster_LoginModule_declarations</title>
<polygon fill="none" stroke="#000000" points="583,-78 583,-130 713,-130 713,-78 583,-78"/>
</g>
<g id="clust4" class="cluster">
<title>cluster_LoginModule_imports</title>
<polygon fill="none" stroke="#000000" points="16,-78 16,-130 575,-130 575,-78 16,-78"/>
</g>
<!-- LoginComponent -->
<g id="node1" class="node">
<title>LoginComponent</title>
<polygon fill="#ffffb3" stroke="#000000" points="705.2758,-122 590.7242,-122 590.7242,-86 705.2758,-86 705.2758,-122"/>
<text text-anchor="middle" x="648" y="-99.8" font-family="Times,serif" font-size="14.00" fill="#000000">LoginComponent</text>
</g>
<!-- LoginModule -->
<g id="node2" class="node">
<title>LoginModule</title>
<polygon fill="#8dd3c7" stroke="#000000" points="436.493,-187 433.493,-191 412.493,-191 409.493,-187 343.507,-187 343.507,-151 436.493,-151 436.493,-187"/>
<text text-anchor="middle" x="390" y="-164.8" font-family="Times,serif" font-size="14.00" fill="#000000">LoginModule</text>
</g>
<!-- LoginComponent&#45;&gt;LoginModule -->
<g id="edge1" class="edge">
<title>LoginComponent&#45;&gt;LoginModule</title>
<path fill="none" stroke="#000000" d="M648,-122.2843C648,-143.3211 648,-175 648,-175 648,-175 446.7219,-175 446.7219,-175"/>
<polygon fill="#000000" stroke="#000000" points="446.7219,-171.5001 436.7219,-175 446.7218,-178.5001 446.7219,-171.5001"/>
</g>
<!-- CommonModule -->
<g id="node3" class="node">
<title>CommonModule</title>
<polygon fill="#8dd3c7" stroke="#000000" points="566.6681,-122 563.6681,-126 542.6681,-126 539.6681,-122 455.3319,-122 455.3319,-86 566.6681,-86 566.6681,-122"/>
<text text-anchor="middle" x="511" y="-99.8" font-family="Times,serif" font-size="14.00" fill="#000000">CommonModule</text>
</g>
<!-- CommonModule&#45;&gt;LoginModule -->
<g id="edge2" class="edge">
<title>CommonModule&#45;&gt;LoginModule</title>
<path fill="none" stroke="#000000" d="M511,-122.0225C511,-139.3734 511,-163 511,-163 511,-163 446.7818,-163 446.7818,-163"/>
<polygon fill="#000000" stroke="#000000" points="446.7818,-159.5001 436.7818,-163 446.7817,-166.5001 446.7818,-159.5001"/>
</g>
<!-- FormsModule -->
<g id="node4" class="node">
<title>FormsModule</title>
<polygon fill="#8dd3c7" stroke="#000000" points="437.8288,-122 434.8288,-126 413.8288,-126 410.8288,-122 342.1712,-122 342.1712,-86 437.8288,-86 437.8288,-122"/>
<text text-anchor="middle" x="390" y="-99.8" font-family="Times,serif" font-size="14.00" fill="#000000">FormsModule</text>
</g>
<!-- FormsModule&#45;&gt;LoginModule -->
<g id="edge3" class="edge">
<title>FormsModule&#45;&gt;LoginModule</title>
<path fill="none" stroke="#000000" d="M390,-122.1061C390,-122.1061 390,-140.991 390,-140.991"/>
<polygon fill="#000000" stroke="#000000" points="386.5001,-140.9909 390,-150.991 393.5001,-140.991 386.5001,-140.9909"/>
</g>
<!-- ReactiveFormsModule -->
<g id="node5" class="node">
<title>ReactiveFormsModule</title>
<polygon fill="#8dd3c7" stroke="#000000" points="324.3047,-122 321.3047,-126 300.3047,-126 297.3047,-122 179.6953,-122 179.6953,-86 324.3047,-86 324.3047,-122"/>
<text text-anchor="middle" x="252" y="-99.8" font-family="Times,serif" font-size="14.00" fill="#000000">ReactiveFormsModule</text>
</g>
<!-- ReactiveFormsModule&#45;&gt;LoginModule -->
<g id="edge4" class="edge">
<title>ReactiveFormsModule&#45;&gt;LoginModule</title>
<path fill="none" stroke="#000000" d="M252,-122.0225C252,-139.3734 252,-163 252,-163 252,-163 333.2795,-163 333.2795,-163"/>
<polygon fill="#000000" stroke="#000000" points="333.2795,-166.5001 343.2795,-163 333.2795,-159.5001 333.2795,-166.5001"/>
</g>
<!-- LoginRoutingModule -->
<g id="node6" class="node">
<title>LoginRoutingModule</title>
<polygon fill="#8dd3c7" stroke="#000000" points="162.1108,-122 159.1108,-126 138.1108,-126 135.1108,-122 23.8892,-122 23.8892,-86 162.1108,-86 162.1108,-122"/>
<text text-anchor="middle" x="93" y="-99.8" font-family="Times,serif" font-size="14.00" fill="#000000">LoginRoutingModule</text>
</g>
<!-- LoginRoutingModule&#45;&gt;LoginModule -->
<g id="edge5" class="edge">
<title>LoginRoutingModule&#45;&gt;LoginModule</title>
<path fill="none" stroke="#000000" d="M93,-122.2843C93,-143.3211 93,-175 93,-175 93,-175 333.267,-175 333.267,-175"/>
<polygon fill="#000000" stroke="#000000" points="333.2671,-178.5001 343.267,-175 333.267,-171.5001 333.2671,-178.5001"/>
</g>
</g>
</svg>
