<?xml version="1.0" encoding="UTF-8" standalone="no"?>
<!DOCTYPE svg PUBLIC "-//W3C//DTD SVG 1.1//EN"
 "http://www.w3.org/Graphics/SVG/1.1/DTD/svg11.dtd">
<!-- Generated by graphviz version 2.40.1 (20161225.0304)
 -->
<!-- Title: dependencies Pages: 1 -->
<svg width="918pt" height="349pt"
 viewBox="0.00 0.00 918.00 349.00" xmlns="http://www.w3.org/2000/svg" xmlns:xlink="http://www.w3.org/1999/xlink">
<g id="graph0" class="graph" transform="scale(1 1) rotate(0) translate(4 345)">
<title>dependencies</title>
<polygon fill="#ffffff" stroke="transparent" points="-4,4 -4,-345 914,-345 914,4 -4,4"/>
<text text-anchor="start" x="434.0091" y="-42.4" font-family="sans-serif" font-weight="bold" font-size="14.00" fill="#000000">Legend</text>
<polygon fill="#ffffb3" stroke="transparent" points="221,-10 221,-30 241,-30 241,-10 221,-10"/>
<text text-anchor="start" x="244.629" y="-15.4" font-family="sans-serif" font-size="14.00" fill="#000000"> &#160;Declarations</text>
<polygon fill="#8dd3c7" stroke="transparent" points="334,-10 334,-30 354,-30 354,-10 334,-10"/>
<text text-anchor="start" x="357.7251" y="-15.4" font-family="sans-serif" font-size="14.00" fill="#000000"> &#160;Module</text>
<polygon fill="#80b1d3" stroke="transparent" points="420,-10 420,-30 440,-30 440,-10 420,-10"/>
<text text-anchor="start" x="443.7812" y="-15.4" font-family="sans-serif" font-size="14.00" fill="#000000"> &#160;Bootstrap</text>
<polygon fill="#fdb462" stroke="transparent" points="517,-10 517,-30 537,-30 537,-10 517,-10"/>
<text text-anchor="start" x="540.6732" y="-15.4" font-family="sans-serif" font-size="14.00" fill="#000000"> &#160;Providers</text>
<polygon fill="#fb8072" stroke="transparent" points="613,-10 613,-30 633,-30 633,-10 613,-10"/>
<text text-anchor="start" x="636.7258" y="-15.4" font-family="sans-serif" font-size="14.00" fill="#000000"> &#160;Exports</text>
<g id="clust1" class="cluster">
<title>cluster_ResourcesModule</title>
<polygon fill="none" stroke="#000000" stroke-dasharray="1,5" points="8,-70 8,-333 902,-333 902,-70 8,-70"/>
</g>
<g id="clust2" class="cluster">
<title>cluster_ResourcesModule_declarations</title>
<polygon fill="none" stroke="#000000" points="740,-143 740,-195 894,-195 894,-143 740,-143"/>
</g>
<g id="clust3" class="cluster">
<title>cluster_ResourcesModule_ResourcesComponent_providers</title>
<polygon fill="none" stroke="#000000" points="740,-78 740,-130 894,-130 894,-78 740,-78"/>
</g>
<g id="clust4" class="cluster">
<title>cluster_ResourcesModule_imports</title>
<polygon fill="none" stroke="#000000" points="16,-143 16,-195 732,-195 732,-143 16,-143"/>
</g>
<g id="clust5" class="cluster">
<title>cluster_ResourcesModule_exports</title>
<polygon fill="none" stroke="#000000" points="377,-273 377,-325 535,-325 535,-273 377,-273"/>
</g>
<!-- ResourcesComponent -->
<g id="node1" class="node">
<title>ResourcesComponent</title>
<polygon fill="#ffffb3" stroke="#000000" points="886.3627,-187 747.6373,-187 747.6373,-151 886.3627,-151 886.3627,-187"/>
<text text-anchor="middle" x="817" y="-164.8" font-family="Times,serif" font-size="14.00" fill="#000000">ResourcesComponent</text>
</g>
<!-- ResourcesModule -->
<g id="node2" class="node">
<title>ResourcesModule</title>
<polygon fill="#8dd3c7" stroke="#000000" points="514.58,-252 511.58,-256 490.58,-256 487.58,-252 397.42,-252 397.42,-216 514.58,-216 514.58,-252"/>
<text text-anchor="middle" x="456" y="-229.8" font-family="Times,serif" font-size="14.00" fill="#000000">ResourcesModule</text>
</g>
<!-- ResourcesComponent&#45;&gt;ResourcesModule -->
<g id="edge1" class="edge">
<title>ResourcesComponent&#45;&gt;ResourcesModule</title>
<path fill="none" stroke="#000000" d="M817,-187.2843C817,-208.3211 817,-240 817,-240 817,-240 524.8043,-240 524.8043,-240"/>
<polygon fill="#000000" stroke="#000000" points="524.8044,-236.5001 514.8043,-240 524.8043,-243.5001 524.8044,-236.5001"/>
</g>
<!-- ResourcesComponent  -->
<g id="node9" class="node">
<title>ResourcesComponent </title>
<polygon fill="#fb8072" stroke="#000000" points="527.3631,-317 384.6369,-317 384.6369,-281 527.3631,-281 527.3631,-317"/>
<text text-anchor="middle" x="456" y="-294.8" font-family="Times,serif" font-size="14.00" fill="#000000">ResourcesComponent </text>
</g>
<!-- ResourcesModule&#45;&gt;ResourcesComponent  -->
<g id="edge8" class="edge">
<title>ResourcesModule&#45;&gt;ResourcesComponent </title>
<path fill="none" stroke="#000000" stroke-dasharray="5,2" d="M456,-252.1061C456,-252.1061 456,-270.991 456,-270.991"/>
<polygon fill="#000000" stroke="#000000" points="452.5001,-270.9909 456,-280.991 459.5001,-270.991 452.5001,-270.9909"/>
</g>
<!-- OarApiService -->
<g id="node3" class="node">
<title>OarApiService</title>
<ellipse fill="#fdb462" stroke="#000000" cx="817" cy="-104" rx="68.8965" ry="18"/>
<text text-anchor="middle" x="817" y="-99.8" font-family="Times,serif" font-size="14.00" fill="#000000">OarApiService</text>
</g>
<!-- OarApiService&#45;&gt;ResourcesComponent -->
<g id="edge2" class="edge">
<title>OarApiService&#45;&gt;ResourcesComponent</title>
<path fill="none" stroke="#000000" d="M817,-122.1061C817,-122.1061 817,-140.991 817,-140.991"/>
<polygon fill="#000000" stroke="#000000" points="813.5001,-140.9909 817,-150.991 820.5001,-140.991 813.5001,-140.9909"/>
</g>
<!-- CommonModule -->
<g id="node4" class="node">
<title>CommonModule</title>
<polygon fill="#8dd3c7" stroke="#000000" points="723.6681,-187 720.6681,-191 699.6681,-191 696.6681,-187 612.3319,-187 612.3319,-151 723.6681,-151 723.6681,-187"/>
<text text-anchor="middle" x="668" y="-164.8" font-family="Times,serif" font-size="14.00" fill="#000000">CommonModule</text>
</g>
<!-- CommonModule&#45;&gt;ResourcesModule -->
<g id="edge3" class="edge">
<title>CommonModule&#45;&gt;ResourcesModule</title>
<path fill="none" stroke="#000000" d="M668,-187.0225C668,-204.3734 668,-228 668,-228 668,-228 524.7723,-228 524.7723,-228"/>
<polygon fill="#000000" stroke="#000000" points="524.7723,-224.5001 514.7723,-228 524.7723,-231.5001 524.7723,-224.5001"/>
</g>
<!-- DataTableModule -->
<g id="node5" class="node">
<title>DataTableModule</title>
<polygon fill="#8dd3c7" stroke="#000000" points="593.8487,-187 590.8487,-191 569.8487,-191 566.8487,-187 476.1513,-187 476.1513,-151 593.8487,-151 593.8487,-187"/>
<text text-anchor="middle" x="535" y="-164.8" font-family="Times,serif" font-size="14.00" fill="#000000">DataTableModule</text>
</g>
<!-- DataTableModule&#45;&gt;ResourcesModule -->
<g id="edge4" class="edge">
<title>DataTableModule&#45;&gt;ResourcesModule</title>
<path fill="none" stroke="#000000" d="M495.3079,-187.1061C495.3079,-187.1061 495.3079,-205.991 495.3079,-205.991"/>
<polygon fill="#000000" stroke="#000000" points="491.8079,-205.9909 495.3079,-215.991 498.8079,-205.991 491.8079,-205.9909"/>
</g>
<!-- ResourcesRoutingModule -->
<g id="node6" class="node">
<title>ResourcesRoutingModule</title>
<polygon fill="#8dd3c7" stroke="#000000" points="458.1979,-187 455.1979,-191 434.1979,-191 431.1979,-187 295.8021,-187 295.8021,-151 458.1979,-151 458.1979,-187"/>
<text text-anchor="middle" x="377" y="-164.8" font-family="Times,serif" font-size="14.00" fill="#000000">ResourcesRoutingModule</text>
</g>
<!-- ResourcesRoutingModule&#45;&gt;ResourcesModule -->
<g id="edge5" class="edge">
<title>ResourcesRoutingModule&#45;&gt;ResourcesModule</title>
<path fill="none" stroke="#000000" d="M427.7795,-187.1061C427.7795,-187.1061 427.7795,-205.991 427.7795,-205.991"/>
<polygon fill="#000000" stroke="#000000" points="424.2795,-205.9909 427.7795,-215.991 431.2795,-205.991 424.2795,-205.9909"/>
</g>
<!-- JobStateModule -->
<g id="node7" class="node">
<title>JobStateModule</title>
<polygon fill="#8dd3c7" stroke="#000000" points="277.4874,-187 274.4874,-191 253.4874,-191 250.4874,-187 170.5126,-187 170.5126,-151 277.4874,-151 277.4874,-187"/>
<text text-anchor="middle" x="224" y="-164.8" font-family="Times,serif" font-size="14.00" fill="#000000">JobStateModule</text>
</g>
<!-- JobStateModule&#45;&gt;ResourcesModule -->
<g id="edge6" class="edge">
<title>JobStateModule&#45;&gt;ResourcesModule</title>
<path fill="none" stroke="#000000" d="M224,-187.0225C224,-204.3734 224,-228 224,-228 224,-228 387.4566,-228 387.4566,-228"/>
<polygon fill="#000000" stroke="#000000" points="387.4566,-231.5001 397.4566,-228 387.4566,-224.5001 387.4566,-231.5001"/>
</g>
<!-- SharedPipesModule -->
<g id="node8" class="node">
<title>SharedPipesModule</title>
<polygon fill="#8dd3c7" stroke="#000000" points="152.2548,-187 149.2548,-191 128.2548,-191 125.2548,-187 23.7452,-187 23.7452,-151 152.2548,-151 152.2548,-187"/>
<text text-anchor="middle" x="88" y="-164.8" font-family="Times,serif" font-size="14.00" fill="#000000">SharedPipesModule</text>
</g>
<!-- SharedPipesModule&#45;&gt;ResourcesModule -->
<g id="edge7" class="edge">
<title>SharedPipesModule&#45;&gt;ResourcesModule</title>
<path fill="none" stroke="#000000" d="M88,-187.2843C88,-208.3211 88,-240 88,-240 88,-240 387.2824,-240 387.2824,-240"/>
<polygon fill="#000000" stroke="#000000" points="387.2824,-243.5001 397.2824,-240 387.2824,-236.5001 387.2824,-243.5001"/>
</g>
</g>
</svg>
