<?xml version="1.0" encoding="UTF-8" standalone="no"?>
<!DOCTYPE svg PUBLIC "-//W3C//DTD SVG 1.1//EN"
 "http://www.w3.org/Graphics/SVG/1.1/DTD/svg11.dtd">
<!-- Generated by graphviz version 2.38.0 (20140413.2041)
 -->
<!-- Title: dependencies Pages: 1 -->
<svg width="504pt" height="284pt"
 viewBox="0.00 0.00 504.00 284.00" xmlns="http://www.w3.org/2000/svg" xmlns:xlink="http://www.w3.org/1999/xlink">
<g id="graph0" class="graph" transform="scale(1 1) rotate(0) translate(4 280)">
<title>dependencies</title>
<polygon fill="white" stroke="none" points="-4,4 -4,-280 500,-280 500,4 -4,4"/>
<text text-anchor="start" x="227.009" y="-42.4" font-family="sans-serif" font-weight="bold" font-size="14.00">Legend</text>
<polygon fill="#ffffb3" stroke="none" points="14,-10 14,-30 34,-30 34,-10 14,-10"/>
<text text-anchor="start" x="37.629" y="-15.4" font-family="sans-serif" font-size="14.00"> &#160;Declarations</text>
<polygon fill="#8dd3c7" stroke="none" points="127,-10 127,-30 147,-30 147,-10 127,-10"/>
<text text-anchor="start" x="150.725" y="-15.4" font-family="sans-serif" font-size="14.00"> &#160;Module</text>
<polygon fill="#80b1d3" stroke="none" points="213,-10 213,-30 233,-30 233,-10 213,-10"/>
<text text-anchor="start" x="236.781" y="-15.4" font-family="sans-serif" font-size="14.00"> &#160;Bootstrap</text>
<polygon fill="#fdb462" stroke="none" points="310,-10 310,-30 330,-30 330,-10 310,-10"/>
<text text-anchor="start" x="333.673" y="-15.4" font-family="sans-serif" font-size="14.00"> &#160;Providers</text>
<polygon fill="#fb8072" stroke="none" points="406,-10 406,-30 426,-30 426,-10 406,-10"/>
<text text-anchor="start" x="429.726" y="-15.4" font-family="sans-serif" font-size="14.00"> &#160;Exports</text>
<g id="clust1" class="cluster"><title>cluster_ResourcesModule</title>
<polygon fill="none" stroke="black" stroke-dasharray="1,5" points="30,-70 30,-268 466,-268 466,-70 30,-70"/>
</g>
<g id="clust2" class="cluster"><title>cluster_ResourcesModule_declarations</title>
<polygon fill="none" stroke="black" points="304,-78 304,-130 458,-130 458,-78 304,-78"/>
</g>
<g id="clust4" class="cluster"><title>cluster_ResourcesModule_imports</title>
<polygon fill="none" stroke="black" points="38,-78 38,-130 296,-130 296,-78 38,-78"/>
</g>
<g id="clust5" class="cluster"><title>cluster_ResourcesModule_exports</title>
<polygon fill="none" stroke="black" points="156,-208 156,-260 314,-260 314,-208 156,-208"/>
</g>
<!-- ResourcesComponent -->
<g id="node1" class="node"><title>ResourcesComponent</title>
<polygon fill="#ffffb3" stroke="black" points="450.363,-122 311.637,-122 311.637,-86 450.363,-86 450.363,-122"/>
<text text-anchor="middle" x="381" y="-99.8" font-family="Times,serif" font-size="14.00">ResourcesComponent</text>
</g>
<!-- ResourcesModule -->
<g id="node2" class="node"><title>ResourcesModule</title>
<polygon fill="#8dd3c7" stroke="black" points="293.58,-187 290.58,-191 269.58,-191 266.58,-187 176.42,-187 176.42,-151 293.58,-151 293.58,-187"/>
<text text-anchor="middle" x="235" y="-164.8" font-family="Times,serif" font-size="14.00">ResourcesModule</text>
</g>
<!-- ResourcesComponent&#45;&gt;ResourcesModule -->
<g id="edge1" class="edge"><title>ResourcesComponent&#45;&gt;ResourcesModule</title>
<path fill="none" stroke="black" d="M381,-122.106C381,-141.339 381,-169 381,-169 381,-169 303.543,-169 303.543,-169"/>
<polygon fill="black" stroke="black" points="303.543,-165.5 293.543,-169 303.543,-172.5 303.543,-165.5"/>
</g>
<!-- ResourcesComponent  -->
<g id="node5" class="node"><title>ResourcesComponent </title>
<polygon fill="#fb8072" stroke="black" points="306.363,-252 163.637,-252 163.637,-216 306.363,-216 306.363,-252"/>
<text text-anchor="middle" x="235" y="-229.8" font-family="Times,serif" font-size="14.00">ResourcesComponent </text>
</g>
<!-- ResourcesModule&#45;&gt;ResourcesComponent  -->
<g id="edge4" class="edge"><title>ResourcesModule&#45;&gt;ResourcesComponent </title>
<path fill="none" stroke="black" stroke-dasharray="5,2" d="M235,-187.106C235,-187.106 235,-205.991 235,-205.991"/>
<polygon fill="black" stroke="black" points="231.5,-205.991 235,-215.991 238.5,-205.991 231.5,-205.991"/>
</g>
<!-- BrowserModule -->
<g id="node3" class="node"><title>BrowserModule</title>
<polygon fill="#8dd3c7" stroke="black" points="288.473,-122 285.473,-126 264.473,-126 261.473,-122 181.527,-122 181.527,-86 288.473,-86 288.473,-122"/>
<text text-anchor="middle" x="235" y="-99.8" font-family="Times,serif" font-size="14.00">BrowserModule</text>
</g>
<!-- BrowserModule&#45;&gt;ResourcesModule -->
<g id="edge2" class="edge"><title>BrowserModule&#45;&gt;ResourcesModule</title>
<path fill="none" stroke="black" d="M235,-122.106C235,-122.106 235,-140.991 235,-140.991"/>
<polygon fill="black" stroke="black" points="231.5,-140.991 235,-150.991 238.5,-140.991 231.5,-140.991"/>
</g>
<!-- DataTableModule -->
<g id="node4" class="node"><title>DataTableModule</title>
<polygon fill="#8dd3c7" stroke="black" points="163.849,-122 160.849,-126 139.849,-126 136.849,-122 46.1513,-122 46.1513,-86 163.849,-86 163.849,-122"/>
<text text-anchor="middle" x="105" y="-99.8" font-family="Times,serif" font-size="14.00">DataTableModule</text>
</g>
<!-- DataTableModule&#45;&gt;ResourcesModule -->
<g id="edge3" class="edge"><title>DataTableModule&#45;&gt;ResourcesModule</title>
<path fill="none" stroke="black" d="M104.947,-122.106C104.947,-141.339 104.947,-169 104.947,-169 104.947,-169 166.441,-169 166.441,-169"/>
<polygon fill="black" stroke="black" points="166.441,-172.5 176.441,-169 166.441,-165.5 166.441,-172.5"/>
</g>
</g>
</svg>
