<?xml version="1.0" encoding="UTF-8" standalone="no"?>
<!DOCTYPE svg PUBLIC "-//W3C//DTD SVG 1.1//EN"
 "http://www.w3.org/Graphics/SVG/1.1/DTD/svg11.dtd">
<!-- Generated by graphviz version 2.40.1 (20161225.0304)
 -->
<!-- Title: dependencies Pages: 1 -->
<svg width="646pt" height="349pt"
 viewBox="0.00 0.00 646.00 349.00" xmlns="http://www.w3.org/2000/svg" xmlns:xlink="http://www.w3.org/1999/xlink">
<g id="graph0" class="graph" transform="scale(1 1) rotate(0) translate(4 345)">
<title>dependencies</title>
<polygon fill="#ffffff" stroke="transparent" points="-4,4 -4,-345 642,-345 642,4 -4,4"/>
<text text-anchor="start" x="298.0091" y="-42.4" font-family="sans-serif" font-weight="bold" font-size="14.00" fill="#000000">Legend</text>
<polygon fill="#ffffb3" stroke="transparent" points="85,-10 85,-30 105,-30 105,-10 85,-10"/>
<text text-anchor="start" x="108.629" y="-15.4" font-family="sans-serif" font-size="14.00" fill="#000000"> &#160;Declarations</text>
<polygon fill="#8dd3c7" stroke="transparent" points="198,-10 198,-30 218,-30 218,-10 198,-10"/>
<text text-anchor="start" x="221.7251" y="-15.4" font-family="sans-serif" font-size="14.00" fill="#000000"> &#160;Module</text>
<polygon fill="#80b1d3" stroke="transparent" points="284,-10 284,-30 304,-30 304,-10 284,-10"/>
<text text-anchor="start" x="307.7812" y="-15.4" font-family="sans-serif" font-size="14.00" fill="#000000"> &#160;Bootstrap</text>
<polygon fill="#fdb462" stroke="transparent" points="381,-10 381,-30 401,-30 401,-10 381,-10"/>
<text text-anchor="start" x="404.6732" y="-15.4" font-family="sans-serif" font-size="14.00" fill="#000000"> &#160;Providers</text>
<polygon fill="#fb8072" stroke="transparent" points="477,-10 477,-30 497,-30 497,-10 477,-10"/>
<text text-anchor="start" x="500.7258" y="-15.4" font-family="sans-serif" font-size="14.00" fill="#000000"> &#160;Exports</text>
<g id="clust1" class="cluster">
<title>cluster_ResourcesModule</title>
<polygon fill="none" stroke="#000000" stroke-dasharray="1,5" points="8,-70 8,-333 630,-333 630,-70 8,-70"/>
</g>
<g id="clust2" class="cluster">
<title>cluster_ResourcesModule_declarations</title>
<polygon fill="none" stroke="#000000" points="468,-143 468,-195 622,-195 622,-143 468,-143"/>
</g>
<g id="clust3" class="cluster">
<title>cluster_ResourcesModule_ResourcesComponent_providers</title>
<polygon fill="none" stroke="#000000" points="468,-78 468,-130 622,-130 622,-78 468,-78"/>
</g>
<g id="clust4" class="cluster">
<title>cluster_ResourcesModule_imports</title>
<polygon fill="none" stroke="#000000" points="16,-143 16,-195 460,-195 460,-143 16,-143"/>
</g>
<g id="clust5" class="cluster">
<title>cluster_ResourcesModule_exports</title>
<polygon fill="none" stroke="#000000" points="250,-273 250,-325 408,-325 408,-273 250,-273"/>
</g>
<!-- ResourcesComponent -->
<g id="node1" class="node">
<title>ResourcesComponent</title>
<polygon fill="#ffffb3" stroke="#000000" points="614.3627,-187 475.6373,-187 475.6373,-151 614.3627,-151 614.3627,-187"/>
<text text-anchor="middle" x="545" y="-164.8" font-family="Times,serif" font-size="14.00" fill="#000000">ResourcesComponent</text>
</g>
<!-- ResourcesModule -->
<g id="node2" class="node">
<title>ResourcesModule</title>
<polygon fill="#8dd3c7" stroke="#000000" points="387.58,-252 384.58,-256 363.58,-256 360.58,-252 270.42,-252 270.42,-216 387.58,-216 387.58,-252"/>
<text text-anchor="middle" x="329" y="-229.8" font-family="Times,serif" font-size="14.00" fill="#000000">ResourcesModule</text>
</g>
<!-- ResourcesComponent&#45;&gt;ResourcesModule -->
<g id="edge1" class="edge">
<title>ResourcesComponent&#45;&gt;ResourcesModule</title>
<path fill="none" stroke="#000000" d="M545,-187.1061C545,-206.3391 545,-234 545,-234 545,-234 397.7376,-234 397.7376,-234"/>
<polygon fill="#000000" stroke="#000000" points="397.7377,-230.5001 387.7376,-234 397.7376,-237.5001 397.7377,-230.5001"/>
</g>
<!-- ResourcesComponent  -->
<g id="node7" class="node">
<title>ResourcesComponent </title>
<polygon fill="#fb8072" stroke="#000000" points="400.3631,-317 257.6369,-317 257.6369,-281 400.3631,-281 400.3631,-317"/>
<text text-anchor="middle" x="329" y="-294.8" font-family="Times,serif" font-size="14.00" fill="#000000">ResourcesComponent </text>
</g>
<!-- ResourcesModule&#45;&gt;ResourcesComponent  -->
<g id="edge6" class="edge">
<title>ResourcesModule&#45;&gt;ResourcesComponent </title>
<path fill="none" stroke="#000000" stroke-dasharray="5,2" d="M329,-252.1061C329,-252.1061 329,-270.991 329,-270.991"/>
<polygon fill="#000000" stroke="#000000" points="325.5001,-270.9909 329,-280.991 332.5001,-270.991 325.5001,-270.9909"/>
</g>
<!-- OarApiService -->
<g id="node3" class="node">
<title>OarApiService</title>
<ellipse fill="#fdb462" stroke="#000000" cx="545" cy="-104" rx="68.8965" ry="18"/>
<text text-anchor="middle" x="545" y="-99.8" font-family="Times,serif" font-size="14.00" fill="#000000">OarApiService</text>
</g>
<!-- OarApiService&#45;&gt;ResourcesComponent -->
<g id="edge2" class="edge">
<title>OarApiService&#45;&gt;ResourcesComponent</title>
<path fill="none" stroke="#000000" d="M545,-122.1061C545,-122.1061 545,-140.991 545,-140.991"/>
<polygon fill="#000000" stroke="#000000" points="541.5001,-140.9909 545,-150.991 548.5001,-140.991 541.5001,-140.9909"/>
</g>
<!-- CommonModule -->
<g id="node4" class="node">
<title>CommonModule</title>
<polygon fill="#8dd3c7" stroke="#000000" points="451.6681,-187 448.6681,-191 427.6681,-191 424.6681,-187 340.3319,-187 340.3319,-151 451.6681,-151 451.6681,-187"/>
<text text-anchor="middle" x="396" y="-164.8" font-family="Times,serif" font-size="14.00" fill="#000000">CommonModule</text>
</g>
<!-- CommonModule&#45;&gt;ResourcesModule -->
<g id="edge3" class="edge">
<title>CommonModule&#45;&gt;ResourcesModule</title>
<path fill="none" stroke="#000000" d="M363.8531,-187.1061C363.8531,-187.1061 363.8531,-205.991 363.8531,-205.991"/>
<polygon fill="#000000" stroke="#000000" points="360.3532,-205.9909 363.8531,-215.991 367.3532,-205.991 360.3532,-205.9909"/>
</g>
<!-- DataTableModule -->
<g id="node5" class="node">
<title>DataTableModule</title>
<polygon fill="#8dd3c7" stroke="#000000" points="321.8487,-187 318.8487,-191 297.8487,-191 294.8487,-187 204.1513,-187 204.1513,-151 321.8487,-151 321.8487,-187"/>
<text text-anchor="middle" x="263" y="-164.8" font-family="Times,serif" font-size="14.00" fill="#000000">DataTableModule</text>
</g>
<!-- DataTableModule&#45;&gt;ResourcesModule -->
<g id="edge4" class="edge">
<title>DataTableModule&#45;&gt;ResourcesModule</title>
<path fill="none" stroke="#000000" d="M296.1921,-187.1061C296.1921,-187.1061 296.1921,-205.991 296.1921,-205.991"/>
<polygon fill="#000000" stroke="#000000" points="292.6922,-205.9909 296.1921,-215.991 299.6922,-205.991 292.6922,-205.9909"/>
</g>
<!-- ResourcesRoutingModule -->
<g id="node6" class="node">
<title>ResourcesRoutingModule</title>
<polygon fill="#8dd3c7" stroke="#000000" points="186.1979,-187 183.1979,-191 162.1979,-191 159.1979,-187 23.8021,-187 23.8021,-151 186.1979,-151 186.1979,-187"/>
<text text-anchor="middle" x="105" y="-164.8" font-family="Times,serif" font-size="14.00" fill="#000000">ResourcesRoutingModule</text>
</g>
<!-- ResourcesRoutingModule&#45;&gt;ResourcesModule -->
<g id="edge5" class="edge">
<title>ResourcesRoutingModule&#45;&gt;ResourcesModule</title>
<path fill="none" stroke="#000000" d="M105,-187.1061C105,-206.3391 105,-234 105,-234 105,-234 260.4392,-234 260.4392,-234"/>
<polygon fill="#000000" stroke="#000000" points="260.4393,-237.5001 270.4392,-234 260.4392,-230.5001 260.4393,-237.5001"/>
</g>
</g>
</svg>
