<?xml version="1.0" encoding="UTF-8" standalone="no"?>
<!DOCTYPE svg PUBLIC "-//W3C//DTD SVG 1.1//EN"
 "http://www.w3.org/Graphics/SVG/1.1/DTD/svg11.dtd">
<!-- Generated by graphviz version 2.40.1 (20161225.0304)
 -->
<!-- Title: dependencies Pages: 1 -->
<svg width="592pt" height="211pt"
 viewBox="0.00 0.00 592.00 211.00" xmlns="http://www.w3.org/2000/svg" xmlns:xlink="http://www.w3.org/1999/xlink">
<g id="graph0" class="graph" transform="scale(1 1) rotate(0) translate(4 207)">
<title>dependencies</title>
<polygon fill="#ffffff" stroke="transparent" points="-4,4 -4,-207 588,-207 588,4 -4,4"/>
<text text-anchor="start" x="271.0091" y="-42.4" font-family="sans-serif" font-weight="bold" font-size="14.00" fill="#000000">Legend</text>
<polygon fill="#ffffb3" stroke="transparent" points="58,-10 58,-30 78,-30 78,-10 58,-10"/>
<text text-anchor="start" x="81.629" y="-15.4" font-family="sans-serif" font-size="14.00" fill="#000000"> &#160;Declarations</text>
<polygon fill="#8dd3c7" stroke="transparent" points="171,-10 171,-30 191,-30 191,-10 171,-10"/>
<text text-anchor="start" x="194.7251" y="-15.4" font-family="sans-serif" font-size="14.00" fill="#000000"> &#160;Module</text>
<polygon fill="#80b1d3" stroke="transparent" points="257,-10 257,-30 277,-30 277,-10 257,-10"/>
<text text-anchor="start" x="280.7812" y="-15.4" font-family="sans-serif" font-size="14.00" fill="#000000"> &#160;Bootstrap</text>
<polygon fill="#fdb462" stroke="transparent" points="354,-10 354,-30 374,-30 374,-10 354,-10"/>
<text text-anchor="start" x="377.6732" y="-15.4" font-family="sans-serif" font-size="14.00" fill="#000000"> &#160;Providers</text>
<polygon fill="#fb8072" stroke="transparent" points="450,-10 450,-30 470,-30 470,-10 450,-10"/>
<text text-anchor="start" x="473.7258" y="-15.4" font-family="sans-serif" font-size="14.00" fill="#000000"> &#160;Exports</text>
<g id="clust1" class="cluster">
<title>cluster_GridModule</title>
<polygon fill="none" stroke="#000000" stroke-dasharray="1,5" points="8,-70 8,-195 576,-195 576,-70 8,-70"/>
</g>
<g id="clust2" class="cluster">
<title>cluster_GridModule_declarations</title>
<polygon fill="none" stroke="#000000" points="446,-78 446,-130 568,-130 568,-78 446,-78"/>
</g>
<g id="clust4" class="cluster">
<title>cluster_GridModule_imports</title>
<polygon fill="none" stroke="#000000" points="16,-78 16,-130 438,-130 438,-78 16,-78"/>
</g>
<!-- GridComponent -->
<g id="node1" class="node">
<title>GridComponent</title>
<polygon fill="#ffffb3" stroke="#000000" points="560.4902,-122 453.5098,-122 453.5098,-86 560.4902,-86 560.4902,-122"/>
<text text-anchor="middle" x="507" y="-99.8" font-family="Times,serif" font-size="14.00" fill="#000000">GridComponent</text>
</g>
<!-- GridModule -->
<g id="node2" class="node">
<title>GridModule</title>
<polygon fill="#8dd3c7" stroke="#000000" points="346.7079,-187 343.7079,-191 322.7079,-191 319.7079,-187 261.2921,-187 261.2921,-151 346.7079,-151 346.7079,-187"/>
<text text-anchor="middle" x="304" y="-164.8" font-family="Times,serif" font-size="14.00" fill="#000000">GridModule</text>
</g>
<!-- GridComponent&#45;&gt;GridModule -->
<g id="edge1" class="edge">
<title>GridComponent&#45;&gt;GridModule</title>
<path fill="none" stroke="#000000" d="M507,-122.1061C507,-141.3391 507,-169 507,-169 507,-169 357.0511,-169 357.0511,-169"/>
<polygon fill="#000000" stroke="#000000" points="357.0511,-165.5001 347.0511,-169 357.051,-172.5001 357.0511,-165.5001"/>
</g>
<!-- CommonModule -->
<g id="node3" class="node">
<title>CommonModule</title>
<polygon fill="#8dd3c7" stroke="#000000" points="429.6681,-122 426.6681,-126 405.6681,-126 402.6681,-122 318.3319,-122 318.3319,-86 429.6681,-86 429.6681,-122"/>
<text text-anchor="middle" x="374" y="-99.8" font-family="Times,serif" font-size="14.00" fill="#000000">CommonModule</text>
</g>
<!-- CommonModule&#45;&gt;GridModule -->
<g id="edge2" class="edge">
<title>CommonModule&#45;&gt;GridModule</title>
<path fill="none" stroke="#000000" d="M332.385,-122.1061C332.385,-122.1061 332.385,-140.991 332.385,-140.991"/>
<polygon fill="#000000" stroke="#000000" points="328.8851,-140.9909 332.385,-150.991 335.8851,-140.991 328.8851,-140.9909"/>
</g>
<!-- GridRoutingModule -->
<g id="node4" class="node">
<title>GridRoutingModule</title>
<polygon fill="#8dd3c7" stroke="#000000" points="300.3258,-122 297.3258,-126 276.3258,-126 273.3258,-122 169.6742,-122 169.6742,-86 300.3258,-86 300.3258,-122"/>
<text text-anchor="middle" x="235" y="-99.8" font-family="Times,serif" font-size="14.00" fill="#000000">GridRoutingModule</text>
</g>
<!-- GridRoutingModule&#45;&gt;GridModule -->
<g id="edge3" class="edge">
<title>GridRoutingModule&#45;&gt;GridModule</title>
<path fill="none" stroke="#000000" d="M280.7795,-122.1061C280.7795,-122.1061 280.7795,-140.991 280.7795,-140.991"/>
<polygon fill="#000000" stroke="#000000" points="277.2795,-140.9909 280.7795,-150.991 284.2795,-140.991 277.2795,-140.9909"/>
</g>
<!-- PageHeaderModule -->
<g id="node5" class="node">
<title>PageHeaderModule</title>
<polygon fill="#8dd3c7" stroke="#000000" points="151.6727,-122 148.6727,-126 127.6727,-126 124.6727,-122 24.3273,-122 24.3273,-86 151.6727,-86 151.6727,-122"/>
<text text-anchor="middle" x="88" y="-99.8" font-family="Times,serif" font-size="14.00" fill="#000000">PageHeaderModule</text>
</g>
<!-- PageHeaderModule&#45;&gt;GridModule -->
<g id="edge4" class="edge">
<title>PageHeaderModule&#45;&gt;GridModule</title>
<path fill="none" stroke="#000000" d="M88,-122.1061C88,-141.3391 88,-169 88,-169 88,-169 251.3254,-169 251.3254,-169"/>
<polygon fill="#000000" stroke="#000000" points="251.3254,-172.5001 261.3254,-169 251.3253,-165.5001 251.3254,-172.5001"/>
</g>
</g>
</svg>
