<?xml version="1.0" encoding="UTF-8" standalone="no"?>
<!DOCTYPE svg PUBLIC "-//W3C//DTD SVG 1.1//EN"
 "http://www.w3.org/Graphics/SVG/1.1/DTD/svg11.dtd">
<!-- Generated by graphviz version 2.38.0 (20140413.2041)
 -->
<!-- Title: dependencies Pages: 1 -->
<svg width="504pt" height="284pt"
 viewBox="0.00 0.00 504.00 284.00" xmlns="http://www.w3.org/2000/svg" xmlns:xlink="http://www.w3.org/1999/xlink">
<g id="graph0" class="graph" transform="scale(1 1) rotate(0) translate(4 280)">
<title>dependencies</title>
<polygon fill="white" stroke="none" points="-4,4 -4,-280 500,-280 500,4 -4,4"/>
<text text-anchor="start" x="227.009" y="-42.4" font-family="sans-serif" font-weight="bold" font-size="14.00">Legend</text>
<polygon fill="#ffffb3" stroke="none" points="14,-10 14,-30 34,-30 34,-10 14,-10"/>
<text text-anchor="start" x="37.629" y="-15.4" font-family="sans-serif" font-size="14.00"> &#160;Declarations</text>
<polygon fill="#8dd3c7" stroke="none" points="127,-10 127,-30 147,-30 147,-10 127,-10"/>
<text text-anchor="start" x="150.725" y="-15.4" font-family="sans-serif" font-size="14.00"> &#160;Module</text>
<polygon fill="#80b1d3" stroke="none" points="213,-10 213,-30 233,-30 233,-10 213,-10"/>
<text text-anchor="start" x="236.781" y="-15.4" font-family="sans-serif" font-size="14.00"> &#160;Bootstrap</text>
<polygon fill="#fdb462" stroke="none" points="310,-10 310,-30 330,-30 330,-10 310,-10"/>
<text text-anchor="start" x="333.673" y="-15.4" font-family="sans-serif" font-size="14.00"> &#160;Providers</text>
<polygon fill="#fb8072" stroke="none" points="406,-10 406,-30 426,-30 426,-10 406,-10"/>
<text text-anchor="start" x="429.726" y="-15.4" font-family="sans-serif" font-size="14.00"> &#160;Exports</text>
<g id="clust1" class="cluster"><title>cluster_GridModule</title>
<polygon fill="none" stroke="black" stroke-dasharray="1,5" points="118,-70 118,-268 378,-268 378,-70 118,-70"/>
</g>
<g id="clust2" class="cluster"><title>cluster_GridModule_declarations</title>
<polygon fill="none" stroke="black" points="248,-78 248,-130 370,-130 370,-78 248,-78"/>
</g>
<g id="clust4" class="cluster"><title>cluster_GridModule_imports</title>
<polygon fill="none" stroke="black" points="126,-78 126,-130 240,-130 240,-78 126,-78"/>
</g>
<g id="clust5" class="cluster"><title>cluster_GridModule_exports</title>
<polygon fill="none" stroke="black" points="185,-208 185,-260 311,-260 311,-208 185,-208"/>
</g>
<!-- GridComponent -->
<g id="node1" class="node"><title>GridComponent</title>
<polygon fill="#ffffb3" stroke="black" points="362.49,-122 255.51,-122 255.51,-86 362.49,-86 362.49,-122"/>
<text text-anchor="middle" x="309" y="-99.8" font-family="Times,serif" font-size="14.00">GridComponent</text>
</g>
<!-- GridModule -->
<g id="node2" class="node"><title>GridModule</title>
<polygon fill="#8dd3c7" stroke="black" points="290.708,-187 287.708,-191 266.708,-191 263.708,-187 205.292,-187 205.292,-151 290.708,-151 290.708,-187"/>
<text text-anchor="middle" x="248" y="-164.8" font-family="Times,serif" font-size="14.00">GridModule</text>
</g>
<!-- GridComponent&#45;&gt;GridModule -->
<g id="edge1" class="edge"><title>GridComponent&#45;&gt;GridModule</title>
<path fill="none" stroke="black" d="M273.054,-122.106C273.054,-122.106 273.054,-140.991 273.054,-140.991"/>
<polygon fill="black" stroke="black" points="269.554,-140.991 273.054,-150.991 276.554,-140.991 269.554,-140.991"/>
</g>
<!-- GridComponent  -->
<g id="node4" class="node"><title>GridComponent </title>
<polygon fill="#fb8072" stroke="black" points="303.491,-252 192.509,-252 192.509,-216 303.491,-216 303.491,-252"/>
<text text-anchor="middle" x="248" y="-229.8" font-family="Times,serif" font-size="14.00">GridComponent </text>
</g>
<!-- GridModule&#45;&gt;GridComponent  -->
<g id="edge3" class="edge"><title>GridModule&#45;&gt;GridComponent </title>
<path fill="none" stroke="black" stroke-dasharray="5,2" d="M248,-187.106C248,-187.106 248,-205.991 248,-205.991"/>
<polygon fill="black" stroke="black" points="244.5,-205.991 248,-215.991 251.5,-205.991 244.5,-205.991"/>
</g>
<!-- RouterModule -->
<g id="node3" class="node"><title>RouterModule</title>
<polygon fill="#8dd3c7" stroke="black" points="231.653,-122 228.653,-126 207.653,-126 204.653,-122 134.347,-122 134.347,-86 231.653,-86 231.653,-122"/>
<text text-anchor="middle" x="183" y="-99.8" font-family="Times,serif" font-size="14.00">RouterModule</text>
</g>
<!-- RouterModule&#45;&gt;GridModule -->
<g id="edge2" class="edge"><title>RouterModule&#45;&gt;GridModule</title>
<path fill="none" stroke="black" d="M218.611,-122.106C218.611,-122.106 218.611,-140.991 218.611,-140.991"/>
<polygon fill="black" stroke="black" points="215.111,-140.991 218.611,-150.991 222.111,-140.991 215.111,-140.991"/>
</g>
</g>
</svg>
