<?xml version="1.0" encoding="UTF-8" standalone="no"?>
<!DOCTYPE svg PUBLIC "-//W3C//DTD SVG 1.1//EN"
 "http://www.w3.org/Graphics/SVG/1.1/DTD/svg11.dtd">
<!-- Generated by graphviz version 2.40.1 (20161225.0304)
 -->
<!-- Title: dependencies Pages: 1 -->
<svg width="1490pt" height="349pt"
 viewBox="0.00 0.00 1490.00 349.00" xmlns="http://www.w3.org/2000/svg" xmlns:xlink="http://www.w3.org/1999/xlink">
<g id="graph0" class="graph" transform="scale(1 1) rotate(0) translate(4 345)">
<title>dependencies</title>
<polygon fill="#ffffff" stroke="transparent" points="-4,4 -4,-345 1486,-345 1486,4 -4,4"/>
<text text-anchor="start" x="720.0091" y="-42.4" font-family="sans-serif" font-weight="bold" font-size="14.00" fill="#000000">Legend</text>
<polygon fill="#ffffb3" stroke="transparent" points="507,-10 507,-30 527,-30 527,-10 507,-10"/>
<text text-anchor="start" x="530.629" y="-15.4" font-family="sans-serif" font-size="14.00" fill="#000000"> &#160;Declarations</text>
<polygon fill="#8dd3c7" stroke="transparent" points="620,-10 620,-30 640,-30 640,-10 620,-10"/>
<text text-anchor="start" x="643.7251" y="-15.4" font-family="sans-serif" font-size="14.00" fill="#000000"> &#160;Module</text>
<polygon fill="#80b1d3" stroke="transparent" points="706,-10 706,-30 726,-30 726,-10 706,-10"/>
<text text-anchor="start" x="729.7812" y="-15.4" font-family="sans-serif" font-size="14.00" fill="#000000"> &#160;Bootstrap</text>
<polygon fill="#fdb462" stroke="transparent" points="803,-10 803,-30 823,-30 823,-10 803,-10"/>
<text text-anchor="start" x="826.6732" y="-15.4" font-family="sans-serif" font-size="14.00" fill="#000000"> &#160;Providers</text>
<polygon fill="#fb8072" stroke="transparent" points="899,-10 899,-30 919,-30 919,-10 899,-10"/>
<text text-anchor="start" x="922.7258" y="-15.4" font-family="sans-serif" font-size="14.00" fill="#000000"> &#160;Exports</text>
<g id="clust1" class="cluster">
<title>cluster_JobsModule</title>
<polygon fill="none" stroke="#000000" stroke-dasharray="1,5" points="8,-70 8,-333 1474,-333 1474,-70 8,-70"/>
</g>
<g id="clust2" class="cluster">
<title>cluster_JobsModule_declarations</title>
<polygon fill="none" stroke="#000000" points="988,-143 988,-195 1466,-195 1466,-143 988,-143"/>
</g>
<g id="clust3" class="cluster">
<title>cluster_JobsModule_JobsComponent_providers</title>
<polygon fill="none" stroke="#000000" points="1178,-78 1178,-130 1332,-130 1332,-78 1178,-78"/>
</g>
<g id="clust7" class="cluster">
<title>cluster_JobsModule_imports</title>
<polygon fill="none" stroke="#000000" points="148,-143 148,-195 980,-195 980,-143 148,-143"/>
</g>
<g id="clust8" class="cluster">
<title>cluster_JobsModule_exports</title>
<polygon fill="none" stroke="#000000" points="556,-273 556,-325 958,-325 958,-273 556,-273"/>
</g>
<g id="clust10" class="cluster">
<title>cluster_JobsModule_providers</title>
<polygon fill="none" stroke="#000000" points="16,-143 16,-195 140,-195 140,-143 16,-143"/>
</g>
<!-- JobsComponent -->
<g id="node1" class="node">
<title>JobsComponent</title>
<polygon fill="#ffffb3" stroke="#000000" points="1458.2218,-187 1351.7782,-187 1351.7782,-151 1458.2218,-151 1458.2218,-187"/>
<text text-anchor="middle" x="1405" y="-164.8" font-family="Times,serif" font-size="14.00" fill="#000000">JobsComponent</text>
</g>
<!-- JobsModule -->
<g id="node5" class="node">
<title>JobsModule</title>
<polygon fill="#8dd3c7" stroke="#000000" points="825.4401,-252 822.4401,-256 801.4401,-256 798.4401,-252 740.5599,-252 740.5599,-216 825.4401,-216 825.4401,-252"/>
<text text-anchor="middle" x="783" y="-229.8" font-family="Times,serif" font-size="14.00" fill="#000000">JobsModule</text>
</g>
<!-- JobsComponent&#45;&gt;JobsModule -->
<g id="edge1" class="edge">
<title>JobsComponent&#45;&gt;JobsModule</title>
<path fill="none" stroke="#000000" d="M1405,-187.0449C1405,-208.6623 1405,-242 1405,-242 1405,-242 835.2636,-242 835.2636,-242"/>
<polygon fill="#000000" stroke="#000000" points="835.2636,-238.5001 825.2636,-242 835.2635,-245.5001 835.2636,-238.5001"/>
</g>
<!-- NewJobFormComponent -->
<g id="node2" class="node">
<title>NewJobFormComponent</title>
<polygon fill="#ffffb3" stroke="#000000" points="1333.5393,-187 1176.4607,-187 1176.4607,-151 1333.5393,-151 1333.5393,-187"/>
<text text-anchor="middle" x="1255" y="-164.8" font-family="Times,serif" font-size="14.00" fill="#000000">NewJobFormComponent</text>
</g>
<!-- NewJobFormComponent&#45;&gt;JobsModule -->
<g id="edge3" class="edge">
<title>NewJobFormComponent&#45;&gt;JobsModule</title>
<path fill="none" stroke="#000000" d="M1255,-187.2228C1255,-207.3652 1255,-237 1255,-237 1255,-237 835.3022,-237 835.3022,-237"/>
<polygon fill="#000000" stroke="#000000" points="835.3023,-233.5001 825.3022,-237 835.3022,-240.5001 835.3023,-233.5001"/>
</g>
<!-- JobDetails -->
<g id="node3" class="node">
<title>JobDetails</title>
<polygon fill="#ffffb3" stroke="#000000" points="1158.5969,-187 1083.4031,-187 1083.4031,-151 1158.5969,-151 1158.5969,-187"/>
<text text-anchor="middle" x="1121" y="-164.8" font-family="Times,serif" font-size="14.00" fill="#000000">JobDetails</text>
</g>
<!-- JobDetails&#45;&gt;JobsModule -->
<g id="edge4" class="edge">
<title>JobDetails&#45;&gt;JobsModule</title>
<path fill="none" stroke="#000000" d="M1121,-187.2222C1121,-205.8285 1121,-232 1121,-232 1121,-232 835.4657,-232 835.4657,-232"/>
<polygon fill="#000000" stroke="#000000" points="835.4657,-228.5001 825.4657,-232 835.4657,-235.5001 835.4657,-228.5001"/>
</g>
<!-- KeysPipe -->
<g id="node4" class="node">
<title>KeysPipe</title>
<polygon fill="#ffffb3" stroke="#000000" points="1065.6545,-187 996.3455,-187 996.3455,-151 1065.6545,-151 1065.6545,-187"/>
<text text-anchor="middle" x="1031" y="-164.8" font-family="Times,serif" font-size="14.00" fill="#000000">KeysPipe</text>
</g>
<!-- KeysPipe&#45;&gt;JobsModule -->
<g id="edge6" class="edge">
<title>KeysPipe&#45;&gt;JobsModule</title>
<path fill="none" stroke="#000000" d="M1031,-187.0336C1031,-204.0597 1031,-227 1031,-227 1031,-227 835.3509,-227 835.3509,-227"/>
<polygon fill="#000000" stroke="#000000" points="835.351,-223.5001 825.3509,-227 835.3509,-230.5001 835.351,-223.5001"/>
</g>
<!-- JobsComponent  -->
<g id="node13" class="node">
<title>JobsComponent </title>
<polygon fill="#fb8072" stroke="#000000" points="949.722,-317 840.278,-317 840.278,-281 949.722,-281 949.722,-317"/>
<text text-anchor="middle" x="895" y="-294.8" font-family="Times,serif" font-size="14.00" fill="#000000">JobsComponent </text>
</g>
<!-- JobsModule&#45;&gt;JobsComponent  -->
<g id="edge13" class="edge">
<title>JobsModule&#45;&gt;JobsComponent </title>
<path fill="none" stroke="#000000" stroke-dasharray="5,2" d="M825.3203,-247C839.1579,-247 851.0453,-247 851.0453,-247 851.0453,-247 851.0453,-270.8129 851.0453,-270.8129"/>
<polygon fill="#000000" stroke="#000000" points="847.5453,-270.8129 851.0453,-280.8129 854.5453,-270.813 847.5453,-270.8129"/>
</g>
<!-- JobDetails  -->
<g id="node14" class="node">
<title>JobDetails </title>
<polygon fill="#fb8072" stroke="#000000" points="822.0978,-317 743.9022,-317 743.9022,-281 822.0978,-281 822.0978,-317"/>
<text text-anchor="middle" x="783" y="-294.8" font-family="Times,serif" font-size="14.00" fill="#000000">JobDetails </text>
</g>
<!-- JobsModule&#45;&gt;JobDetails  -->
<g id="edge14" class="edge">
<title>JobsModule&#45;&gt;JobDetails </title>
<path fill="none" stroke="#000000" stroke-dasharray="5,2" d="M783,-252.1061C783,-252.1061 783,-270.991 783,-270.991"/>
<polygon fill="#000000" stroke="#000000" points="779.5001,-270.9909 783,-280.991 786.5001,-270.991 779.5001,-270.9909"/>
</g>
<!-- NewJobFormComponent  -->
<g id="node15" class="node">
<title>NewJobFormComponent </title>
<polygon fill="#fb8072" stroke="#000000" points="725.5386,-317 564.4614,-317 564.4614,-281 725.5386,-281 725.5386,-317"/>
<text text-anchor="middle" x="645" y="-294.8" font-family="Times,serif" font-size="14.00" fill="#000000">NewJobFormComponent </text>
</g>
<!-- JobsModule&#45;&gt;NewJobFormComponent  -->
<g id="edge15" class="edge">
<title>JobsModule&#45;&gt;NewJobFormComponent </title>
<path fill="none" stroke="#000000" stroke-dasharray="5,2" d="M740.6584,-247C726.8138,-247 714.9204,-247 714.9204,-247 714.9204,-247 714.9204,-270.8129 714.9204,-270.8129"/>
<polygon fill="#000000" stroke="#000000" points="711.4205,-270.8129 714.9204,-280.8129 718.4205,-270.813 711.4205,-270.8129"/>
</g>
<!-- OarApiService -->
<g id="node6" class="node">
<title>OarApiService</title>
<ellipse fill="#fdb462" stroke="#000000" cx="1255" cy="-104" rx="68.8965" ry="18"/>
<text text-anchor="middle" x="1255" y="-99.8" font-family="Times,serif" font-size="14.00" fill="#000000">OarApiService</text>
</g>
<!-- OarApiService&#45;&gt;JobsComponent -->
<g id="edge2" class="edge">
<title>OarApiService&#45;&gt;JobsComponent</title>
<path fill="none" stroke="#000000" d="M1324.292,-104C1363.5947,-104 1405,-104 1405,-104 1405,-104 1405,-140.8939 1405,-140.8939"/>
<polygon fill="#000000" stroke="#000000" points="1401.5001,-140.8938 1405,-150.8939 1408.5001,-140.8939 1401.5001,-140.8938"/>
</g>
<!-- OarApiService&#45;&gt;JobDetails -->
<g id="edge5" class="edge">
<title>OarApiService&#45;&gt;JobDetails</title>
<path fill="none" stroke="#000000" d="M1186.0374,-104C1153.2042,-104 1121,-104 1121,-104 1121,-104 1121,-140.8939 1121,-140.8939"/>
<polygon fill="#000000" stroke="#000000" points="1117.5001,-140.8938 1121,-150.8939 1124.5001,-140.8939 1117.5001,-140.8938"/>
</g>
<!-- CommonModule -->
<g id="node7" class="node">
<title>CommonModule</title>
<polygon fill="#8dd3c7" stroke="#000000" points="971.6681,-187 968.6681,-191 947.6681,-191 944.6681,-187 860.3319,-187 860.3319,-151 971.6681,-151 971.6681,-187"/>
<text text-anchor="middle" x="916" y="-164.8" font-family="Times,serif" font-size="14.00" fill="#000000">CommonModule</text>
</g>
<!-- CommonModule&#45;&gt;JobsModule -->
<g id="edge7" class="edge">
<title>CommonModule&#45;&gt;JobsModule</title>
<path fill="none" stroke="#000000" d="M905.0135,-187.2396C905.0135,-202.5706 905.0135,-222 905.0135,-222 905.0135,-222 835.332,-222 835.332,-222"/>
<polygon fill="#000000" stroke="#000000" points="835.332,-218.5001 825.332,-222 835.3319,-225.5001 835.332,-218.5001"/>
</g>
<!-- DataTableModule -->
<g id="node8" class="node">
<title>DataTableModule</title>
<polygon fill="#8dd3c7" stroke="#000000" points="841.8487,-187 838.8487,-191 817.8487,-191 814.8487,-187 724.1513,-187 724.1513,-151 841.8487,-151 841.8487,-187"/>
<text text-anchor="middle" x="783" y="-164.8" font-family="Times,serif" font-size="14.00" fill="#000000">DataTableModule</text>
</g>
<!-- DataTableModule&#45;&gt;JobsModule -->
<g id="edge8" class="edge">
<title>DataTableModule&#45;&gt;JobsModule</title>
<path fill="none" stroke="#000000" d="M783,-187.1061C783,-187.1061 783,-205.991 783,-205.991"/>
<polygon fill="#000000" stroke="#000000" points="779.5001,-205.9909 783,-215.991 786.5001,-205.991 779.5001,-205.9909"/>
</g>
<!-- NgbDropdownModule -->
<g id="node9" class="node">
<title>NgbDropdownModule</title>
<polygon fill="#8dd3c7" stroke="#000000" points="705.531,-187 702.531,-191 681.531,-191 678.531,-187 562.469,-187 562.469,-151 705.531,-151 705.531,-187"/>
<text text-anchor="middle" x="634" y="-164.8" font-family="Times,serif" font-size="14.00" fill="#000000">NgbDropdownModule</text>
</g>
<!-- NgbDropdownModule&#45;&gt;JobsModule -->
<g id="edge9" class="edge">
<title>NgbDropdownModule&#45;&gt;JobsModule</title>
<path fill="none" stroke="#000000" d="M635.1229,-187.2396C635.1229,-202.5706 635.1229,-222 635.1229,-222 635.1229,-222 730.6244,-222 730.6244,-222"/>
<polygon fill="#000000" stroke="#000000" points="730.6244,-225.5001 740.6244,-222 730.6243,-218.5001 730.6244,-225.5001"/>
</g>
<!-- JobsRoutingModule -->
<g id="node10" class="node">
<title>JobsRoutingModule</title>
<polygon fill="#8dd3c7" stroke="#000000" points="543.5576,-187 540.5576,-191 519.5576,-191 516.5576,-187 414.4424,-187 414.4424,-151 543.5576,-151 543.5576,-187"/>
<text text-anchor="middle" x="479" y="-164.8" font-family="Times,serif" font-size="14.00" fill="#000000">JobsRoutingModule</text>
</g>
<!-- JobsRoutingModule&#45;&gt;JobsModule -->
<g id="edge10" class="edge">
<title>JobsRoutingModule&#45;&gt;JobsModule</title>
<path fill="none" stroke="#000000" d="M479,-187.0336C479,-204.0597 479,-227 479,-227 479,-227 730.7301,-227 730.7301,-227"/>
<polygon fill="#000000" stroke="#000000" points="730.7301,-230.5001 740.7301,-227 730.7301,-223.5001 730.7301,-230.5001"/>
</g>
<!-- PageHeaderModule -->
<g id="node11" class="node">
<title>PageHeaderModule</title>
<polygon fill="#8dd3c7" stroke="#000000" points="396.6727,-187 393.6727,-191 372.6727,-191 369.6727,-187 269.3273,-187 269.3273,-151 396.6727,-151 396.6727,-187"/>
<text text-anchor="middle" x="333" y="-164.8" font-family="Times,serif" font-size="14.00" fill="#000000">PageHeaderModule</text>
</g>
<!-- PageHeaderModule&#45;&gt;JobsModule -->
<g id="edge11" class="edge">
<title>PageHeaderModule&#45;&gt;JobsModule</title>
<path fill="none" stroke="#000000" d="M333,-187.2222C333,-205.8285 333,-232 333,-232 333,-232 730.6651,-232 730.6651,-232"/>
<polygon fill="#000000" stroke="#000000" points="730.6651,-235.5001 740.6651,-232 730.6651,-228.5001 730.6651,-235.5001"/>
</g>
<!-- FormsModule -->
<g id="node12" class="node">
<title>FormsModule</title>
<polygon fill="#8dd3c7" stroke="#000000" points="251.8288,-187 248.8288,-191 227.8288,-191 224.8288,-187 156.1712,-187 156.1712,-151 251.8288,-151 251.8288,-187"/>
<text text-anchor="middle" x="204" y="-164.8" font-family="Times,serif" font-size="14.00" fill="#000000">FormsModule</text>
</g>
<!-- FormsModule&#45;&gt;JobsModule -->
<g id="edge12" class="edge">
<title>FormsModule&#45;&gt;JobsModule</title>
<path fill="none" stroke="#000000" d="M204,-187.2228C204,-207.3652 204,-237 204,-237 204,-237 730.4247,-237 730.4247,-237"/>
<polygon fill="#000000" stroke="#000000" points="730.4248,-240.5001 740.4247,-237 730.4247,-233.5001 730.4248,-240.5001"/>
</g>
<!-- AuthGuard -->
<g id="node16" class="node">
<title>AuthGuard</title>
<ellipse fill="#fdb462" stroke="#000000" cx="78" cy="-169" rx="54.4566" ry="18"/>
<text text-anchor="middle" x="78" y="-164.8" font-family="Times,serif" font-size="14.00" fill="#000000">AuthGuard</text>
</g>
<!-- AuthGuard&#45;&gt;JobsModule -->
<g id="edge16" class="edge">
<title>AuthGuard&#45;&gt;JobsModule</title>
<path fill="none" stroke="#000000" d="M78,-187.0449C78,-208.6623 78,-242 78,-242 78,-242 730.7489,-242 730.7489,-242"/>
<polygon fill="#000000" stroke="#000000" points="730.7489,-245.5001 740.7489,-242 730.7489,-238.5001 730.7489,-245.5001"/>
</g>
</g>
</svg>
