<?xml version="1.0" encoding="UTF-8" standalone="no"?>
<!DOCTYPE svg PUBLIC "-//W3C//DTD SVG 1.1//EN"
 "http://www.w3.org/Graphics/SVG/1.1/DTD/svg11.dtd">
<!-- Generated by graphviz version 2.38.0 (20140413.2041)
 -->
<!-- Title: dependencies Pages: 1 -->
<svg width="741pt" height="284pt"
 viewBox="0.00 0.00 741.00 284.00" xmlns="http://www.w3.org/2000/svg" xmlns:xlink="http://www.w3.org/1999/xlink">
<g id="graph0" class="graph" transform="scale(1 1) rotate(0) translate(4 280)">
<title>dependencies</title>
<polygon fill="white" stroke="none" points="-4,4 -4,-280 737,-280 737,4 -4,4"/>
<text text-anchor="start" x="345.509" y="-42.4" font-family="sans-serif" font-weight="bold" font-size="14.00">Legend</text>
<polygon fill="#ffffb3" stroke="none" points="132.5,-10 132.5,-30 152.5,-30 152.5,-10 132.5,-10"/>
<text text-anchor="start" x="156.129" y="-15.4" font-family="sans-serif" font-size="14.00"> &#160;Declarations</text>
<polygon fill="#8dd3c7" stroke="none" points="245.5,-10 245.5,-30 265.5,-30 265.5,-10 245.5,-10"/>
<text text-anchor="start" x="269.225" y="-15.4" font-family="sans-serif" font-size="14.00"> &#160;Module</text>
<polygon fill="#80b1d3" stroke="none" points="331.5,-10 331.5,-30 351.5,-30 351.5,-10 331.5,-10"/>
<text text-anchor="start" x="355.281" y="-15.4" font-family="sans-serif" font-size="14.00"> &#160;Bootstrap</text>
<polygon fill="#fdb462" stroke="none" points="428.5,-10 428.5,-30 448.5,-30 448.5,-10 428.5,-10"/>
<text text-anchor="start" x="452.173" y="-15.4" font-family="sans-serif" font-size="14.00"> &#160;Providers</text>
<polygon fill="#fb8072" stroke="none" points="524.5,-10 524.5,-30 544.5,-30 544.5,-10 524.5,-10"/>
<text text-anchor="start" x="548.226" y="-15.4" font-family="sans-serif" font-size="14.00"> &#160;Exports</text>
<g id="clust1" class="cluster"><title>cluster_JobsModule</title>
<polygon fill="none" stroke="black" stroke-dasharray="1,5" points="8,-70 8,-268 725,-268 725,-70 8,-70"/>
</g>
<g id="clust2" class="cluster"><title>cluster_JobsModule_declarations</title>
<polygon fill="none" stroke="black" points="414,-78 414,-130 717,-130 717,-78 414,-78"/>
</g>
<g id="clust6" class="cluster"><title>cluster_JobsModule_imports</title>
<polygon fill="none" stroke="black" points="148,-78 148,-130 406,-130 406,-78 148,-78"/>
</g>
<g id="clust7" class="cluster"><title>cluster_JobsModule_exports</title>
<polygon fill="none" stroke="black" points="298,-208 298,-260 520,-260 520,-208 298,-208"/>
</g>
<g id="clust9" class="cluster"><title>cluster_JobsModule_providers</title>
<polygon fill="none" stroke="black" points="16,-78 16,-130 140,-130 140,-78 16,-78"/>
</g>
<!-- JobsComponent -->
<g id="node1" class="node"><title>JobsComponent</title>
<polygon fill="#ffffb3" stroke="black" points="709.222,-122 602.778,-122 602.778,-86 709.222,-86 709.222,-122"/>
<text text-anchor="middle" x="656" y="-99.8" font-family="Times,serif" font-size="14.00">JobsComponent</text>
</g>
<!-- JobsModule -->
<g id="node4" class="node"><title>JobsModule</title>
<polygon fill="#8dd3c7" stroke="black" points="443.44,-187 440.44,-191 419.44,-191 416.44,-187 358.56,-187 358.56,-151 443.44,-151 443.44,-187"/>
<text text-anchor="middle" x="401" y="-164.8" font-family="Times,serif" font-size="14.00">JobsModule</text>
</g>
<!-- JobsComponent&#45;&gt;JobsModule -->
<g id="edge1" class="edge"><title>JobsComponent&#45;&gt;JobsModule</title>
<path fill="none" stroke="black" d="M656,-122.284C656,-143.321 656,-175 656,-175 656,-175 453.394,-175 453.394,-175"/>
<polygon fill="black" stroke="black" points="453.394,-171.5 443.394,-175 453.394,-178.5 453.394,-171.5"/>
</g>
<!-- JobDetails -->
<g id="node2" class="node"><title>JobDetails</title>
<polygon fill="#ffffb3" stroke="black" points="584.597,-122 509.403,-122 509.403,-86 584.597,-86 584.597,-122"/>
<text text-anchor="middle" x="547" y="-99.8" font-family="Times,serif" font-size="14.00">JobDetails</text>
</g>
<!-- JobDetails&#45;&gt;JobsModule -->
<g id="edge2" class="edge"><title>JobDetails&#45;&gt;JobsModule</title>
<path fill="none" stroke="black" d="M548.205,-122.023C548.205,-139.373 548.205,-163 548.205,-163 548.205,-163 453.578,-163 453.578,-163"/>
<polygon fill="black" stroke="black" points="453.578,-159.5 443.578,-163 453.578,-166.5 453.578,-159.5"/>
</g>
<!-- KeysPipe -->
<g id="node3" class="node"><title>KeysPipe</title>
<polygon fill="#ffffb3" stroke="black" points="491.654,-122 422.346,-122 422.346,-86 491.654,-86 491.654,-122"/>
<text text-anchor="middle" x="457" y="-99.8" font-family="Times,serif" font-size="14.00">KeysPipe</text>
</g>
<!-- KeysPipe&#45;&gt;JobsModule -->
<g id="edge3" class="edge"><title>KeysPipe&#45;&gt;JobsModule</title>
<path fill="none" stroke="black" d="M432.696,-122.106C432.696,-122.106 432.696,-140.991 432.696,-140.991"/>
<polygon fill="black" stroke="black" points="429.196,-140.991 432.696,-150.991 436.196,-140.991 429.196,-140.991"/>
</g>
<!-- JobsComponent  -->
<g id="node7" class="node"><title>JobsComponent </title>
<polygon fill="#fb8072" stroke="black" points="511.722,-252 402.278,-252 402.278,-216 511.722,-216 511.722,-252"/>
<text text-anchor="middle" x="457" y="-229.8" font-family="Times,serif" font-size="14.00">JobsComponent </text>
</g>
<!-- JobsModule&#45;&gt;JobsComponent  -->
<g id="edge6" class="edge"><title>JobsModule&#45;&gt;JobsComponent </title>
<path fill="none" stroke="black" stroke-dasharray="5,2" d="M422.679,-187.106C422.679,-187.106 422.679,-205.991 422.679,-205.991"/>
<polygon fill="black" stroke="black" points="419.179,-205.991 422.679,-215.991 426.179,-205.991 419.179,-205.991"/>
</g>
<!-- JobDetails  -->
<g id="node8" class="node"><title>JobDetails </title>
<polygon fill="#fb8072" stroke="black" points="384.098,-252 305.902,-252 305.902,-216 384.098,-216 384.098,-252"/>
<text text-anchor="middle" x="345" y="-229.8" font-family="Times,serif" font-size="14.00">JobDetails </text>
</g>
<!-- JobsModule&#45;&gt;JobDetails  -->
<g id="edge7" class="edge"><title>JobsModule&#45;&gt;JobDetails </title>
<path fill="none" stroke="black" stroke-dasharray="5,2" d="M371.539,-187.106C371.539,-187.106 371.539,-205.991 371.539,-205.991"/>
<polygon fill="black" stroke="black" points="368.04,-205.991 371.539,-215.991 375.04,-205.991 368.04,-205.991"/>
</g>
<!-- BrowserModule -->
<g id="node5" class="node"><title>BrowserModule</title>
<polygon fill="#8dd3c7" stroke="black" points="398.473,-122 395.473,-126 374.473,-126 371.473,-122 291.527,-122 291.527,-86 398.473,-86 398.473,-122"/>
<text text-anchor="middle" x="345" y="-99.8" font-family="Times,serif" font-size="14.00">BrowserModule</text>
</g>
<!-- BrowserModule&#45;&gt;JobsModule -->
<g id="edge4" class="edge"><title>BrowserModule&#45;&gt;JobsModule</title>
<path fill="none" stroke="black" d="M378.634,-122.106C378.634,-122.106 378.634,-140.991 378.634,-140.991"/>
<polygon fill="black" stroke="black" points="375.134,-140.991 378.634,-150.991 382.134,-140.991 375.134,-140.991"/>
</g>
<!-- DataTableModule -->
<g id="node6" class="node"><title>DataTableModule</title>
<polygon fill="#8dd3c7" stroke="black" points="273.849,-122 270.849,-126 249.849,-126 246.849,-122 156.151,-122 156.151,-86 273.849,-86 273.849,-122"/>
<text text-anchor="middle" x="215" y="-99.8" font-family="Times,serif" font-size="14.00">DataTableModule</text>
</g>
<!-- DataTableModule&#45;&gt;JobsModule -->
<g id="edge5" class="edge"><title>DataTableModule&#45;&gt;JobsModule</title>
<path fill="none" stroke="black" d="M215,-122.023C215,-139.373 215,-163 215,-163 215,-163 348.328,-163 348.328,-163"/>
<polygon fill="black" stroke="black" points="348.328,-166.5 358.328,-163 348.328,-159.5 348.328,-166.5"/>
</g>
<!-- AuthGuard -->
<g id="node9" class="node"><title>AuthGuard</title>
<ellipse fill="#fdb462" stroke="black" cx="78" cy="-104" rx="54.4566" ry="18"/>
<text text-anchor="middle" x="78" y="-99.8" font-family="Times,serif" font-size="14.00">AuthGuard</text>
</g>
<!-- AuthGuard&#45;&gt;JobsModule -->
<g id="edge8" class="edge"><title>AuthGuard&#45;&gt;JobsModule</title>
<path fill="none" stroke="black" d="M78,-122.284C78,-143.321 78,-175 78,-175 78,-175 348.773,-175 348.773,-175"/>
<polygon fill="black" stroke="black" points="348.773,-178.5 358.773,-175 348.773,-171.5 348.773,-178.5"/>
</g>
</g>
</svg>
