<?xml version="1.0" encoding="UTF-8" standalone="no"?>
<!DOCTYPE svg PUBLIC "-//W3C//DTD SVG 1.1//EN"
 "http://www.w3.org/Graphics/SVG/1.1/DTD/svg11.dtd">
<!-- Generated by graphviz version 2.40.1 (20161225.0304)
 -->
<!-- Title: dependencies Pages: 1 -->
<svg width="1527pt" height="349pt"
 viewBox="0.00 0.00 1527.00 349.00" xmlns="http://www.w3.org/2000/svg" xmlns:xlink="http://www.w3.org/1999/xlink">
<g id="graph0" class="graph" transform="scale(1 1) rotate(0) translate(4 345)">
<title>dependencies</title>
<polygon fill="#ffffff" stroke="transparent" points="-4,4 -4,-345 1523,-345 1523,4 -4,4"/>
<text text-anchor="start" x="738.5091" y="-42.4" font-family="sans-serif" font-weight="bold" font-size="14.00" fill="#000000">Legend</text>
<polygon fill="#ffffb3" stroke="transparent" points="525.5,-10 525.5,-30 545.5,-30 545.5,-10 525.5,-10"/>
<text text-anchor="start" x="549.129" y="-15.4" font-family="sans-serif" font-size="14.00" fill="#000000"> &#160;Declarations</text>
<polygon fill="#8dd3c7" stroke="transparent" points="638.5,-10 638.5,-30 658.5,-30 658.5,-10 638.5,-10"/>
<text text-anchor="start" x="662.2251" y="-15.4" font-family="sans-serif" font-size="14.00" fill="#000000"> &#160;Module</text>
<polygon fill="#80b1d3" stroke="transparent" points="724.5,-10 724.5,-30 744.5,-30 744.5,-10 724.5,-10"/>
<text text-anchor="start" x="748.2812" y="-15.4" font-family="sans-serif" font-size="14.00" fill="#000000"> &#160;Bootstrap</text>
<polygon fill="#fdb462" stroke="transparent" points="821.5,-10 821.5,-30 841.5,-30 841.5,-10 821.5,-10"/>
<text text-anchor="start" x="845.1732" y="-15.4" font-family="sans-serif" font-size="14.00" fill="#000000"> &#160;Providers</text>
<polygon fill="#fb8072" stroke="transparent" points="917.5,-10 917.5,-30 937.5,-30 937.5,-10 917.5,-10"/>
<text text-anchor="start" x="941.2258" y="-15.4" font-family="sans-serif" font-size="14.00" fill="#000000"> &#160;Exports</text>
<g id="clust1" class="cluster">
<title>cluster_JobsModule</title>
<polygon fill="none" stroke="#000000" stroke-dasharray="1,5" points="8,-70 8,-333 1511,-333 1511,-70 8,-70"/>
</g>
<g id="clust2" class="cluster">
<title>cluster_JobsModule_declarations</title>
<polygon fill="none" stroke="#000000" points="1112,-143 1112,-195 1503,-195 1503,-143 1112,-143"/>
</g>
<g id="clust3" class="cluster">
<title>cluster_JobsModule_JobsComponent_providers</title>
<polygon fill="none" stroke="#000000" points="1215,-78 1215,-130 1369,-130 1369,-78 1215,-78"/>
</g>
<g id="clust6" class="cluster">
<title>cluster_JobsModule_imports</title>
<polygon fill="none" stroke="#000000" points="148,-143 148,-195 1104,-195 1104,-143 148,-143"/>
</g>
<g id="clust7" class="cluster">
<title>cluster_JobsModule_exports</title>
<polygon fill="none" stroke="#000000" points="531,-273 531,-325 933,-325 933,-273 531,-273"/>
</g>
<g id="clust9" class="cluster">
<title>cluster_JobsModule_providers</title>
<polygon fill="none" stroke="#000000" points="16,-143 16,-195 140,-195 140,-143 16,-143"/>
</g>
<!-- JobsComponent -->
<g id="node1" class="node">
<title>JobsComponent</title>
<polygon fill="#ffffb3" stroke="#000000" points="1495.2218,-187 1388.7782,-187 1388.7782,-151 1495.2218,-151 1495.2218,-187"/>
<text text-anchor="middle" x="1442" y="-164.8" font-family="Times,serif" font-size="14.00" fill="#000000">JobsComponent</text>
</g>
<!-- JobsModule -->
<g id="node4" class="node">
<title>JobsModule</title>
<polygon fill="#8dd3c7" stroke="#000000" points="800.4401,-252 797.4401,-256 776.4401,-256 773.4401,-252 715.5599,-252 715.5599,-216 800.4401,-216 800.4401,-252"/>
<text text-anchor="middle" x="758" y="-229.8" font-family="Times,serif" font-size="14.00" fill="#000000">JobsModule</text>
</g>
<!-- JobsComponent&#45;&gt;JobsModule -->
<g id="edge1" class="edge">
<title>JobsComponent&#45;&gt;JobsModule</title>
<path fill="none" stroke="#000000" d="M1442,-187.0449C1442,-208.6623 1442,-242 1442,-242 1442,-242 810.2711,-242 810.2711,-242"/>
<polygon fill="#000000" stroke="#000000" points="810.2711,-238.5001 800.2711,-242 810.271,-245.5001 810.2711,-238.5001"/>
</g>
<!-- NewJobFormComponent -->
<g id="node2" class="node">
<title>NewJobFormComponent</title>
<polygon fill="#ffffb3" stroke="#000000" points="1370.5393,-187 1213.4607,-187 1213.4607,-151 1370.5393,-151 1370.5393,-187"/>
<text text-anchor="middle" x="1292" y="-164.8" font-family="Times,serif" font-size="14.00" fill="#000000">NewJobFormComponent</text>
</g>
<!-- NewJobFormComponent&#45;&gt;JobsModule -->
<g id="edge3" class="edge">
<title>NewJobFormComponent&#45;&gt;JobsModule</title>
<path fill="none" stroke="#000000" d="M1292,-187.2228C1292,-207.3652 1292,-237 1292,-237 1292,-237 810.3484,-237 810.3484,-237"/>
<polygon fill="#000000" stroke="#000000" points="810.3485,-233.5001 800.3484,-237 810.3484,-240.5001 810.3485,-233.5001"/>
</g>
<!-- JobDetails -->
<g id="node3" class="node">
<title>JobDetails</title>
<polygon fill="#ffffb3" stroke="#000000" points="1195.5969,-187 1120.4031,-187 1120.4031,-151 1195.5969,-151 1195.5969,-187"/>
<text text-anchor="middle" x="1158" y="-164.8" font-family="Times,serif" font-size="14.00" fill="#000000">JobDetails</text>
</g>
<!-- JobDetails&#45;&gt;JobsModule -->
<g id="edge4" class="edge">
<title>JobDetails&#45;&gt;JobsModule</title>
<path fill="none" stroke="#000000" d="M1158,-187.2222C1158,-205.8285 1158,-232 1158,-232 1158,-232 810.4283,-232 810.4283,-232"/>
<polygon fill="#000000" stroke="#000000" points="810.4284,-228.5001 800.4283,-232 810.4283,-235.5001 810.4284,-228.5001"/>
</g>
<!-- JobsComponent  -->
<g id="node13" class="node">
<title>JobsComponent </title>
<polygon fill="#fb8072" stroke="#000000" points="924.722,-317 815.278,-317 815.278,-281 924.722,-281 924.722,-317"/>
<text text-anchor="middle" x="870" y="-294.8" font-family="Times,serif" font-size="14.00" fill="#000000">JobsComponent </text>
</g>
<!-- JobsModule&#45;&gt;JobsComponent  -->
<g id="edge13" class="edge">
<title>JobsModule&#45;&gt;JobsComponent </title>
<path fill="none" stroke="#000000" stroke-dasharray="5,2" d="M800.2714,-247C812.4199,-247 822.4522,-247 822.4522,-247 822.4522,-247 822.4522,-270.8129 822.4522,-270.8129"/>
<polygon fill="#000000" stroke="#000000" points="818.9522,-270.8129 822.4522,-280.8129 825.9522,-270.813 818.9522,-270.8129"/>
</g>
<!-- JobDetails  -->
<g id="node14" class="node">
<title>JobDetails </title>
<polygon fill="#fb8072" stroke="#000000" points="797.0978,-317 718.9022,-317 718.9022,-281 797.0978,-281 797.0978,-317"/>
<text text-anchor="middle" x="758" y="-294.8" font-family="Times,serif" font-size="14.00" fill="#000000">JobDetails </text>
</g>
<!-- JobsModule&#45;&gt;JobDetails  -->
<g id="edge14" class="edge">
<title>JobsModule&#45;&gt;JobDetails </title>
<path fill="none" stroke="#000000" stroke-dasharray="5,2" d="M758,-252.1061C758,-252.1061 758,-270.991 758,-270.991"/>
<polygon fill="#000000" stroke="#000000" points="754.5001,-270.9909 758,-280.991 761.5001,-270.991 754.5001,-270.9909"/>
</g>
<!-- NewJobFormComponent  -->
<g id="node15" class="node">
<title>NewJobFormComponent </title>
<polygon fill="#fb8072" stroke="#000000" points="700.5386,-317 539.4614,-317 539.4614,-281 700.5386,-281 700.5386,-317"/>
<text text-anchor="middle" x="620" y="-294.8" font-family="Times,serif" font-size="14.00" fill="#000000">NewJobFormComponent </text>
</g>
<!-- JobsModule&#45;&gt;NewJobFormComponent  -->
<g id="edge15" class="edge">
<title>JobsModule&#45;&gt;NewJobFormComponent </title>
<path fill="none" stroke="#000000" stroke-dasharray="5,2" d="M715.6166,-247C703.436,-247 693.3771,-247 693.3771,-247 693.3771,-247 693.3771,-270.8129 693.3771,-270.8129"/>
<polygon fill="#000000" stroke="#000000" points="689.8772,-270.8129 693.3771,-280.8129 696.8772,-270.813 689.8772,-270.8129"/>
</g>
<!-- OarApiService -->
<g id="node5" class="node">
<title>OarApiService</title>
<ellipse fill="#fdb462" stroke="#000000" cx="1292" cy="-104" rx="68.8965" ry="18"/>
<text text-anchor="middle" x="1292" y="-99.8" font-family="Times,serif" font-size="14.00" fill="#000000">OarApiService</text>
</g>
<!-- OarApiService&#45;&gt;JobsComponent -->
<g id="edge2" class="edge">
<title>OarApiService&#45;&gt;JobsComponent</title>
<path fill="none" stroke="#000000" d="M1361.292,-104C1400.5947,-104 1442,-104 1442,-104 1442,-104 1442,-140.8939 1442,-140.8939"/>
<polygon fill="#000000" stroke="#000000" points="1438.5001,-140.8938 1442,-150.8939 1445.5001,-140.8939 1438.5001,-140.8938"/>
</g>
<!-- OarApiService&#45;&gt;JobDetails -->
<g id="edge5" class="edge">
<title>OarApiService&#45;&gt;JobDetails</title>
<path fill="none" stroke="#000000" d="M1223.0374,-104C1190.2042,-104 1158,-104 1158,-104 1158,-104 1158,-140.8939 1158,-140.8939"/>
<polygon fill="#000000" stroke="#000000" points="1154.5001,-140.8938 1158,-150.8939 1161.5001,-140.8939 1154.5001,-140.8938"/>
</g>
<!-- CommonModule -->
<g id="node6" class="node">
<title>CommonModule</title>
<polygon fill="#8dd3c7" stroke="#000000" points="1095.6681,-187 1092.6681,-191 1071.6681,-191 1068.6681,-187 984.3319,-187 984.3319,-151 1095.6681,-151 1095.6681,-187"/>
<text text-anchor="middle" x="1040" y="-164.8" font-family="Times,serif" font-size="14.00" fill="#000000">CommonModule</text>
</g>
<!-- CommonModule&#45;&gt;JobsModule -->
<g id="edge6" class="edge">
<title>CommonModule&#45;&gt;JobsModule</title>
<path fill="none" stroke="#000000" d="M1040,-187.0336C1040,-204.0597 1040,-227 1040,-227 1040,-227 810.5236,-227 810.5236,-227"/>
<polygon fill="#000000" stroke="#000000" points="810.5236,-223.5001 800.5236,-227 810.5235,-230.5001 810.5236,-223.5001"/>
</g>
<!-- DataTableModule -->
<g id="node7" class="node">
<title>DataTableModule</title>
<polygon fill="#8dd3c7" stroke="#000000" points="965.8487,-187 962.8487,-191 941.8487,-191 938.8487,-187 848.1513,-187 848.1513,-151 965.8487,-151 965.8487,-187"/>
<text text-anchor="middle" x="907" y="-164.8" font-family="Times,serif" font-size="14.00" fill="#000000">DataTableModule</text>
</g>
<!-- DataTableModule&#45;&gt;JobsModule -->
<g id="edge7" class="edge">
<title>DataTableModule&#45;&gt;JobsModule</title>
<path fill="none" stroke="#000000" d="M886.4683,-187.2396C886.4683,-202.5706 886.4683,-222 886.4683,-222 886.4683,-222 810.4213,-222 810.4213,-222"/>
<polygon fill="#000000" stroke="#000000" points="810.4214,-218.5001 800.4213,-222 810.4213,-225.5001 810.4214,-218.5001"/>
</g>
<!-- NgbDropdownModule -->
<g id="node8" class="node">
<title>NgbDropdownModule</title>
<polygon fill="#8dd3c7" stroke="#000000" points="829.531,-187 826.531,-191 805.531,-191 802.531,-187 686.469,-187 686.469,-151 829.531,-151 829.531,-187"/>
<text text-anchor="middle" x="758" y="-164.8" font-family="Times,serif" font-size="14.00" fill="#000000">NgbDropdownModule</text>
</g>
<!-- NgbDropdownModule&#45;&gt;JobsModule -->
<g id="edge8" class="edge">
<title>NgbDropdownModule&#45;&gt;JobsModule</title>
<path fill="none" stroke="#000000" d="M758,-187.1061C758,-187.1061 758,-205.991 758,-205.991"/>
<polygon fill="#000000" stroke="#000000" points="754.5001,-205.9909 758,-215.991 761.5001,-205.991 754.5001,-205.9909"/>
</g>
<!-- JobsRoutingModule -->
<g id="node9" class="node">
<title>JobsRoutingModule</title>
<polygon fill="#8dd3c7" stroke="#000000" points="667.5576,-187 664.5576,-191 643.5576,-191 640.5576,-187 538.4424,-187 538.4424,-151 667.5576,-151 667.5576,-187"/>
<text text-anchor="middle" x="603" y="-164.8" font-family="Times,serif" font-size="14.00" fill="#000000">JobsRoutingModule</text>
</g>
<!-- JobsRoutingModule&#45;&gt;JobsModule -->
<g id="edge9" class="edge">
<title>JobsRoutingModule&#45;&gt;JobsModule</title>
<path fill="none" stroke="#000000" d="M603.6296,-187.2396C603.6296,-202.5706 603.6296,-222 603.6296,-222 603.6296,-222 705.409,-222 705.409,-222"/>
<polygon fill="#000000" stroke="#000000" points="705.409,-225.5001 715.409,-222 705.4089,-218.5001 705.409,-225.5001"/>
</g>
<!-- PageHeaderModule -->
<g id="node10" class="node">
<title>PageHeaderModule</title>
<polygon fill="#8dd3c7" stroke="#000000" points="520.6727,-187 517.6727,-191 496.6727,-191 493.6727,-187 393.3273,-187 393.3273,-151 520.6727,-151 520.6727,-187"/>
<text text-anchor="middle" x="457" y="-164.8" font-family="Times,serif" font-size="14.00" fill="#000000">PageHeaderModule</text>
</g>
<!-- PageHeaderModule&#45;&gt;JobsModule -->
<g id="edge10" class="edge">
<title>PageHeaderModule&#45;&gt;JobsModule</title>
<path fill="none" stroke="#000000" d="M457,-187.0336C457,-204.0597 457,-227 457,-227 457,-227 705.5125,-227 705.5125,-227"/>
<polygon fill="#000000" stroke="#000000" points="705.5125,-230.5001 715.5125,-227 705.5124,-223.5001 705.5125,-230.5001"/>
</g>
<!-- FormsModule -->
<g id="node11" class="node">
<title>FormsModule</title>
<polygon fill="#8dd3c7" stroke="#000000" points="375.8288,-187 372.8288,-191 351.8288,-191 348.8288,-187 280.1712,-187 280.1712,-151 375.8288,-151 375.8288,-187"/>
<text text-anchor="middle" x="328" y="-164.8" font-family="Times,serif" font-size="14.00" fill="#000000">FormsModule</text>
</g>
<!-- FormsModule&#45;&gt;JobsModule -->
<g id="edge11" class="edge">
<title>FormsModule&#45;&gt;JobsModule</title>
<path fill="none" stroke="#000000" d="M328,-187.2222C328,-205.8285 328,-232 328,-232 328,-232 705.5931,-232 705.5931,-232"/>
<polygon fill="#000000" stroke="#000000" points="705.5932,-235.5001 715.5931,-232 705.5931,-228.5001 705.5932,-235.5001"/>
</g>
<!-- JobStateModule -->
<g id="node12" class="node">
<title>JobStateModule</title>
<polygon fill="#8dd3c7" stroke="#000000" points="262.4874,-187 259.4874,-191 238.4874,-191 235.4874,-187 155.5126,-187 155.5126,-151 262.4874,-151 262.4874,-187"/>
<text text-anchor="middle" x="209" y="-164.8" font-family="Times,serif" font-size="14.00" fill="#000000">JobStateModule</text>
</g>
<!-- JobStateModule&#45;&gt;JobsModule -->
<g id="edge12" class="edge">
<title>JobStateModule&#45;&gt;JobsModule</title>
<path fill="none" stroke="#000000" d="M209,-187.2228C209,-207.3652 209,-237 209,-237 209,-237 705.3777,-237 705.3777,-237"/>
<polygon fill="#000000" stroke="#000000" points="705.3778,-240.5001 715.3777,-237 705.3777,-233.5001 705.3778,-240.5001"/>
</g>
<!-- AuthGuard -->
<g id="node16" class="node">
<title>AuthGuard</title>
<ellipse fill="#fdb462" stroke="#000000" cx="78" cy="-169" rx="54.4566" ry="18"/>
<text text-anchor="middle" x="78" y="-164.8" font-family="Times,serif" font-size="14.00" fill="#000000">AuthGuard</text>
</g>
<!-- AuthGuard&#45;&gt;JobsModule -->
<g id="edge16" class="edge">
<title>AuthGuard&#45;&gt;JobsModule</title>
<path fill="none" stroke="#000000" d="M78,-187.0449C78,-208.6623 78,-242 78,-242 78,-242 705.7199,-242 705.7199,-242"/>
<polygon fill="#000000" stroke="#000000" points="705.7199,-245.5001 715.7199,-242 705.7198,-238.5001 705.7199,-245.5001"/>
</g>
</g>
</svg>
