<?xml version="1.0" encoding="UTF-8" standalone="no"?>
<!DOCTYPE svg PUBLIC "-//W3C//DTD SVG 1.1//EN"
 "http://www.w3.org/Graphics/SVG/1.1/DTD/svg11.dtd">
<!-- Generated by graphviz version 2.38.0 (20140413.2041)
 -->
<!-- Title: dependencies Pages: 1 -->
<svg width="1821pt" height="284pt"
 viewBox="0.00 0.00 1821.00 284.00" xmlns="http://www.w3.org/2000/svg" xmlns:xlink="http://www.w3.org/1999/xlink">
<g id="graph0" class="graph" transform="scale(1 1) rotate(0) translate(4 280)">
<title>dependencies</title>
<polygon fill="white" stroke="none" points="-4,4 -4,-280 1817,-280 1817,4 -4,4"/>
<text text-anchor="start" x="885.509" y="-42.4" font-family="sans-serif" font-weight="bold" font-size="14.00">Legend</text>
<polygon fill="#ffffb3" stroke="none" points="672.5,-10 672.5,-30 692.5,-30 692.5,-10 672.5,-10"/>
<text text-anchor="start" x="696.129" y="-15.4" font-family="sans-serif" font-size="14.00"> &#160;Declarations</text>
<polygon fill="#8dd3c7" stroke="none" points="785.5,-10 785.5,-30 805.5,-30 805.5,-10 785.5,-10"/>
<text text-anchor="start" x="809.225" y="-15.4" font-family="sans-serif" font-size="14.00"> &#160;Module</text>
<polygon fill="#80b1d3" stroke="none" points="871.5,-10 871.5,-30 891.5,-30 891.5,-10 871.5,-10"/>
<text text-anchor="start" x="895.281" y="-15.4" font-family="sans-serif" font-size="14.00"> &#160;Bootstrap</text>
<polygon fill="#fdb462" stroke="none" points="968.5,-10 968.5,-30 988.5,-30 988.5,-10 968.5,-10"/>
<text text-anchor="start" x="992.173" y="-15.4" font-family="sans-serif" font-size="14.00"> &#160;Providers</text>
<polygon fill="#fb8072" stroke="none" points="1064.5,-10 1064.5,-30 1084.5,-30 1084.5,-10 1064.5,-10"/>
<text text-anchor="start" x="1088.23" y="-15.4" font-family="sans-serif" font-size="14.00"> &#160;Exports</text>
<g id="clust1" class="cluster"><title>cluster_BSComponentModule</title>
<polygon fill="none" stroke="black" stroke-dasharray="1,5" points="8,-70 8,-268 1805,-268 1805,-70 8,-70"/>
</g>
<g id="clust2" class="cluster"><title>cluster_BSComponentModule_declarations</title>
<polygon fill="none" stroke="black" points="1617,-78 1617,-130 1797,-130 1797,-78 1617,-78"/>
</g>
<g id="clust4" class="cluster"><title>cluster_BSComponentModule_imports</title>
<polygon fill="none" stroke="black" points="16,-78 16,-130 1609,-130 1609,-78 16,-78"/>
</g>
<g id="clust5" class="cluster"><title>cluster_BSComponentModule_exports</title>
<polygon fill="none" stroke="black" points="795,-208 795,-260 979,-260 979,-208 795,-208"/>
</g>
<!-- BSComponentComponent -->
<g id="node1" class="node"><title>BSComponentComponent</title>
<polygon fill="#ffffb3" stroke="black" points="1788.78,-122 1625.22,-122 1625.22,-86 1788.78,-86 1788.78,-122"/>
<text text-anchor="middle" x="1707" y="-99.8" font-family="Times,serif" font-size="14.00">BSComponentComponent</text>
</g>
<!-- BSComponentModule -->
<g id="node2" class="node"><title>BSComponentModule</title>
<polygon fill="#8dd3c7" stroke="black" points="958.001,-187 955.001,-191 934.001,-191 931.001,-187 815.999,-187 815.999,-151 958.001,-151 958.001,-187"/>
<text text-anchor="middle" x="887" y="-164.8" font-family="Times,serif" font-size="14.00">BSComponentModule</text>
</g>
<!-- BSComponentComponent&#45;&gt;BSComponentModule -->
<g id="edge1" class="edge"><title>BSComponentComponent&#45;&gt;BSComponentModule</title>
<path fill="none" stroke="black" d="M1707,-122.091C1707,-145.133 1707,-182 1707,-182 1707,-182 968.335,-182 968.335,-182"/>
<polygon fill="black" stroke="black" points="968.335,-178.5 958.335,-182 968.335,-185.5 968.335,-178.5"/>
</g>
<!-- BSComponentComponent  -->
<g id="node16" class="node"><title>BSComponentComponent </title>
<polygon fill="#fb8072" stroke="black" points="970.784,-252 803.216,-252 803.216,-216 970.784,-216 970.784,-252"/>
<text text-anchor="middle" x="887" y="-229.8" font-family="Times,serif" font-size="14.00">BSComponentComponent </text>
</g>
<!-- BSComponentModule&#45;&gt;BSComponentComponent  -->
<g id="edge15" class="edge"><title>BSComponentModule&#45;&gt;BSComponentComponent </title>
<path fill="none" stroke="black" stroke-dasharray="5,2" d="M887,-187.106C887,-187.106 887,-205.991 887,-205.991"/>
<polygon fill="black" stroke="black" points="883.5,-205.991 887,-215.991 890.5,-205.991 883.5,-205.991"/>
</g>
<!-- RouterModule -->
<g id="node3" class="node"><title>RouterModule</title>
<polygon fill="#8dd3c7" stroke="black" points="1600.65,-122 1597.65,-126 1576.65,-126 1573.65,-122 1503.35,-122 1503.35,-86 1600.65,-86 1600.65,-122"/>
<text text-anchor="middle" x="1552" y="-99.8" font-family="Times,serif" font-size="14.00">RouterModule</text>
</g>
<!-- RouterModule&#45;&gt;BSComponentModule -->
<g id="edge2" class="edge"><title>RouterModule&#45;&gt;BSComponentModule</title>
<path fill="none" stroke="black" d="M1552,-122.045C1552,-143.662 1552,-177 1552,-177 1552,-177 968.167,-177 968.167,-177"/>
<polygon fill="black" stroke="black" points="968.167,-173.5 958.167,-177 968.167,-180.5 968.167,-173.5"/>
</g>
<!-- FormsModule -->
<g id="node4" class="node"><title>FormsModule</title>
<polygon fill="#8dd3c7" stroke="black" points="1485.83,-122 1482.83,-126 1461.83,-126 1458.83,-122 1390.17,-122 1390.17,-86 1485.83,-86 1485.83,-122"/>
<text text-anchor="middle" x="1438" y="-99.8" font-family="Times,serif" font-size="14.00">FormsModule</text>
</g>
<!-- FormsModule&#45;&gt;BSComponentModule -->
<g id="edge3" class="edge"><title>FormsModule&#45;&gt;BSComponentModule</title>
<path fill="none" stroke="black" d="M1438,-122.223C1438,-142.365 1438,-172 1438,-172 1438,-172 968.187,-172 968.187,-172"/>
<polygon fill="black" stroke="black" points="968.187,-168.5 958.187,-172 968.187,-175.5 968.187,-168.5"/>
</g>
<!-- CommonModule -->
<g id="node5" class="node"><title>CommonModule</title>
<polygon fill="#8dd3c7" stroke="black" points="1372.67,-122 1369.67,-126 1348.67,-126 1345.67,-122 1261.33,-122 1261.33,-86 1372.67,-86 1372.67,-122"/>
<text text-anchor="middle" x="1317" y="-99.8" font-family="Times,serif" font-size="14.00">CommonModule</text>
</g>
<!-- CommonModule&#45;&gt;BSComponentModule -->
<g id="edge4" class="edge"><title>CommonModule&#45;&gt;BSComponentModule</title>
<path fill="none" stroke="black" d="M1317,-122.222C1317,-140.829 1317,-167 1317,-167 1317,-167 968.006,-167 968.006,-167"/>
<polygon fill="black" stroke="black" points="968.006,-163.5 958.006,-167 968.006,-170.5 968.006,-163.5"/>
</g>
<!-- AlertModule -->
<g id="node6" class="node"><title>AlertModule</title>
<polygon fill="#8dd3c7" stroke="black" points="1243.31,-122 1240.31,-126 1219.31,-126 1216.31,-122 1154.69,-122 1154.69,-86 1243.31,-86 1243.31,-122"/>
<text text-anchor="middle" x="1199" y="-99.8" font-family="Times,serif" font-size="14.00">AlertModule</text>
</g>
<!-- AlertModule&#45;&gt;BSComponentModule -->
<g id="edge5" class="edge"><title>AlertModule&#45;&gt;BSComponentModule</title>
<path fill="none" stroke="black" d="M1199,-122.034C1199,-139.06 1199,-162 1199,-162 1199,-162 968.188,-162 968.188,-162"/>
<polygon fill="black" stroke="black" points="968.188,-158.5 958.188,-162 968.188,-165.5 968.188,-158.5"/>
</g>
<!-- ButtonsModule -->
<g id="node7" class="node"><title>ButtonsModule</title>
<polygon fill="#8dd3c7" stroke="black" points="1136.61,-122 1133.61,-126 1112.61,-126 1109.61,-122 1033.39,-122 1033.39,-86 1136.61,-86 1136.61,-122"/>
<text text-anchor="middle" x="1085" y="-99.8" font-family="Times,serif" font-size="14.00">ButtonsModule</text>
</g>
<!-- ButtonsModule&#45;&gt;BSComponentModule -->
<g id="edge6" class="edge"><title>ButtonsModule&#45;&gt;BSComponentModule</title>
<path fill="none" stroke="black" d="M1085,-122.24C1085,-137.571 1085,-157 1085,-157 1085,-157 968.203,-157 968.203,-157"/>
<polygon fill="black" stroke="black" points="968.203,-153.5 958.203,-157 968.203,-160.5 968.203,-153.5"/>
</g>
<!-- DropdownModule -->
<g id="node8" class="node"><title>DropdownModule</title>
<polygon fill="#8dd3c7" stroke="black" points="1015.92,-122 1012.92,-126 991.924,-126 988.924,-122 896.076,-122 896.076,-86 1015.92,-86 1015.92,-122"/>
<text text-anchor="middle" x="956" y="-99.8" font-family="Times,serif" font-size="14.00">DropdownModule</text>
</g>
<!-- DropdownModule&#45;&gt;BSComponentModule -->
<g id="edge7" class="edge"><title>DropdownModule&#45;&gt;BSComponentModule</title>
<path fill="none" stroke="black" d="M927.144,-122.106C927.144,-122.106 927.144,-140.991 927.144,-140.991"/>
<polygon fill="black" stroke="black" points="923.645,-140.991 927.144,-150.991 930.645,-140.991 923.645,-140.991"/>
</g>
<!-- PaginationModule -->
<g id="node9" class="node"><title>PaginationModule</title>
<polygon fill="#8dd3c7" stroke="black" points="878.934,-122 875.934,-126 854.934,-126 851.934,-122 759.066,-122 759.066,-86 878.934,-86 878.934,-122"/>
<text text-anchor="middle" x="819" y="-99.8" font-family="Times,serif" font-size="14.00">PaginationModule</text>
</g>
<!-- PaginationModule&#45;&gt;BSComponentModule -->
<g id="edge8" class="edge"><title>PaginationModule&#45;&gt;BSComponentModule</title>
<path fill="none" stroke="black" d="M847.358,-122.106C847.358,-122.106 847.358,-140.991 847.358,-140.991"/>
<polygon fill="black" stroke="black" points="843.858,-140.991 847.358,-150.991 850.858,-140.991 843.858,-140.991"/>
</g>
<!-- ProgressbarModule -->
<g id="node10" class="node"><title>ProgressbarModule</title>
<polygon fill="#8dd3c7" stroke="black" points="740.633,-122 737.633,-126 716.633,-126 713.633,-122 615.367,-122 615.367,-86 740.633,-86 740.633,-122"/>
<text text-anchor="middle" x="678" y="-99.8" font-family="Times,serif" font-size="14.00">ProgressbarModule</text>
</g>
<!-- ProgressbarModule&#45;&gt;BSComponentModule -->
<g id="edge9" class="edge"><title>ProgressbarModule&#45;&gt;BSComponentModule</title>
<path fill="none" stroke="black" d="M678,-122.24C678,-137.571 678,-157 678,-157 678,-157 805.951,-157 805.951,-157"/>
<polygon fill="black" stroke="black" points="805.951,-160.5 815.951,-157 805.95,-153.5 805.951,-160.5"/>
</g>
<!-- RatingModule -->
<g id="node11" class="node"><title>RatingModule</title>
<polygon fill="#8dd3c7" stroke="black" points="597.382,-122 594.382,-126 573.382,-126 570.382,-122 500.618,-122 500.618,-86 597.382,-86 597.382,-122"/>
<text text-anchor="middle" x="549" y="-99.8" font-family="Times,serif" font-size="14.00">RatingModule</text>
</g>
<!-- RatingModule&#45;&gt;BSComponentModule -->
<g id="edge10" class="edge"><title>RatingModule&#45;&gt;BSComponentModule</title>
<path fill="none" stroke="black" d="M549,-122.034C549,-139.06 549,-162 549,-162 549,-162 805.732,-162 805.732,-162"/>
<polygon fill="black" stroke="black" points="805.732,-165.5 815.732,-162 805.732,-158.5 805.732,-165.5"/>
</g>
<!-- TabsModule -->
<g id="node12" class="node"><title>TabsModule</title>
<polygon fill="#8dd3c7" stroke="black" points="482.262,-122 479.262,-126 458.262,-126 455.262,-122 395.738,-122 395.738,-86 482.262,-86 482.262,-122"/>
<text text-anchor="middle" x="439" y="-99.8" font-family="Times,serif" font-size="14.00">TabsModule</text>
</g>
<!-- TabsModule&#45;&gt;BSComponentModule -->
<g id="edge11" class="edge"><title>TabsModule&#45;&gt;BSComponentModule</title>
<path fill="none" stroke="black" d="M439,-122.222C439,-140.829 439,-167 439,-167 439,-167 805.518,-167 805.518,-167"/>
<polygon fill="black" stroke="black" points="805.518,-170.5 815.518,-167 805.518,-163.5 805.518,-170.5"/>
</g>
<!-- TooltipModule -->
<g id="node13" class="node"><title>TooltipModule</title>
<polygon fill="#8dd3c7" stroke="black" points="377.274,-122 374.274,-126 353.274,-126 350.274,-122 276.726,-122 276.726,-86 377.274,-86 377.274,-122"/>
<text text-anchor="middle" x="327" y="-99.8" font-family="Times,serif" font-size="14.00">TooltipModule</text>
</g>
<!-- TooltipModule&#45;&gt;BSComponentModule -->
<g id="edge12" class="edge"><title>TooltipModule&#45;&gt;BSComponentModule</title>
<path fill="none" stroke="black" d="M327,-122.223C327,-142.365 327,-172 327,-172 327,-172 805.791,-172 805.791,-172"/>
<polygon fill="black" stroke="black" points="805.791,-175.5 815.791,-172 805.791,-168.5 805.791,-175.5"/>
</g>
<!-- ModalModule -->
<g id="node14" class="node"><title>ModalModule</title>
<polygon fill="#8dd3c7" stroke="black" points="259.1,-122 256.1,-126 235.1,-126 232.1,-122 162.9,-122 162.9,-86 259.1,-86 259.1,-122"/>
<text text-anchor="middle" x="211" y="-99.8" font-family="Times,serif" font-size="14.00">ModalModule</text>
</g>
<!-- ModalModule&#45;&gt;BSComponentModule -->
<g id="edge13" class="edge"><title>ModalModule&#45;&gt;BSComponentModule</title>
<path fill="none" stroke="black" d="M211,-122.045C211,-143.662 211,-177 211,-177 211,-177 805.934,-177 805.934,-177"/>
<polygon fill="black" stroke="black" points="805.934,-180.5 815.934,-177 805.934,-173.5 805.934,-180.5"/>
</g>
<!-- TypeaheadModule -->
<g id="node15" class="node"><title>TypeaheadModule</title>
<polygon fill="#8dd3c7" stroke="black" points="144.461,-122 141.461,-126 120.461,-126 117.461,-122 23.5392,-122 23.5392,-86 144.461,-86 144.461,-122"/>
<text text-anchor="middle" x="84" y="-99.8" font-family="Times,serif" font-size="14.00">TypeaheadModule</text>
</g>
<!-- TypeaheadModule&#45;&gt;BSComponentModule -->
<g id="edge14" class="edge"><title>TypeaheadModule&#45;&gt;BSComponentModule</title>
<path fill="none" stroke="black" d="M84,-122.091C84,-145.133 84,-182 84,-182 84,-182 805.739,-182 805.739,-182"/>
<polygon fill="black" stroke="black" points="805.739,-185.5 815.739,-182 805.739,-178.5 805.739,-185.5"/>
</g>
</g>
</svg>
