<?xml version="1.0" encoding="UTF-8" standalone="no"?>
<!DOCTYPE svg PUBLIC "-//W3C//DTD SVG 1.1//EN"
 "http://www.w3.org/Graphics/SVG/1.1/DTD/svg11.dtd">
<!-- Generated by graphviz version 2.40.1 (20161225.0304)
 -->
<!-- Title: dependencies Pages: 1 -->
<svg width="2914pt" height="211pt"
 viewBox="0.00 0.00 2914.00 211.00" xmlns="http://www.w3.org/2000/svg" xmlns:xlink="http://www.w3.org/1999/xlink">
<g id="graph0" class="graph" transform="scale(1 1) rotate(0) translate(4 207)">
<title>dependencies</title>
<polygon fill="#ffffff" stroke="transparent" points="-4,4 -4,-207 2910,-207 2910,4 -4,4"/>
<text text-anchor="start" x="1432.0091" y="-42.4" font-family="sans-serif" font-weight="bold" font-size="14.00" fill="#000000">Legend</text>
<polygon fill="#ffffb3" stroke="transparent" points="1219,-10 1219,-30 1239,-30 1239,-10 1219,-10"/>
<text text-anchor="start" x="1242.629" y="-15.4" font-family="sans-serif" font-size="14.00" fill="#000000"> &#160;Declarations</text>
<polygon fill="#8dd3c7" stroke="transparent" points="1332,-10 1332,-30 1352,-30 1352,-10 1332,-10"/>
<text text-anchor="start" x="1355.7251" y="-15.4" font-family="sans-serif" font-size="14.00" fill="#000000"> &#160;Module</text>
<polygon fill="#80b1d3" stroke="transparent" points="1418,-10 1418,-30 1438,-30 1438,-10 1418,-10"/>
<text text-anchor="start" x="1441.7812" y="-15.4" font-family="sans-serif" font-size="14.00" fill="#000000"> &#160;Bootstrap</text>
<polygon fill="#fdb462" stroke="transparent" points="1515,-10 1515,-30 1535,-30 1535,-10 1515,-10"/>
<text text-anchor="start" x="1538.6732" y="-15.4" font-family="sans-serif" font-size="14.00" fill="#000000"> &#160;Providers</text>
<polygon fill="#fb8072" stroke="transparent" points="1611,-10 1611,-30 1631,-30 1631,-10 1611,-10"/>
<text text-anchor="start" x="1634.7258" y="-15.4" font-family="sans-serif" font-size="14.00" fill="#000000"> &#160;Exports</text>
<g id="clust1" class="cluster">
<title>cluster_BsComponentModule</title>
<polygon fill="none" stroke="#000000" stroke-dasharray="1,5" points="8,-70 8,-195 2898,-195 2898,-70 8,-70"/>
</g>
<g id="clust2" class="cluster">
<title>cluster_BsComponentModule_declarations</title>
<polygon fill="none" stroke="#000000" points="933,-78 933,-130 2890,-130 2890,-78 933,-78"/>
</g>
<g id="clust16" class="cluster">
<title>cluster_BsComponentModule_imports</title>
<polygon fill="none" stroke="#000000" points="16,-78 16,-130 925,-130 925,-78 16,-78"/>
</g>
<!-- BsComponentComponent -->
<g id="node1" class="node">
<title>BsComponentComponent</title>
<polygon fill="#ffffb3" stroke="#000000" points="2881.9466,-122 2720.0534,-122 2720.0534,-86 2881.9466,-86 2881.9466,-122"/>
<text text-anchor="middle" x="2801" y="-99.8" font-family="Times,serif" font-size="14.00" fill="#000000">BsComponentComponent</text>
</g>
<!-- BsComponentModule -->
<g id="node14" class="node">
<title>BsComponentModule</title>
<polygon fill="#8dd3c7" stroke="#000000" points="1515.6638,-187 1512.6638,-191 1491.6638,-191 1488.6638,-187 1376.3362,-187 1376.3362,-151 1515.6638,-151 1515.6638,-187"/>
<text text-anchor="middle" x="1446" y="-164.8" font-family="Times,serif" font-size="14.00" fill="#000000">BsComponentModule</text>
</g>
<!-- BsComponentComponent&#45;&gt;BsComponentModule -->
<g id="edge1" class="edge">
<title>BsComponentComponent&#45;&gt;BsComponentModule</title>
<path fill="none" stroke="#000000" d="M2801,-122.1532C2801,-145.7566 2801,-184 2801,-184 2801,-184 1525.9974,-184 1525.9974,-184"/>
<polygon fill="#000000" stroke="#000000" points="1525.9974,-180.5001 1515.9974,-184 1525.9974,-187.5001 1525.9974,-180.5001"/>
</g>
<!-- ButtonsComponent -->
<g id="node2" class="node">
<title>ButtonsComponent</title>
<polygon fill="#ffffb3" stroke="#000000" points="2702.3948,-122 2577.6052,-122 2577.6052,-86 2702.3948,-86 2702.3948,-122"/>
<text text-anchor="middle" x="2640" y="-99.8" font-family="Times,serif" font-size="14.00" fill="#000000">ButtonsComponent</text>
</g>
<!-- ButtonsComponent&#45;&gt;BsComponentModule -->
<g id="edge2" class="edge">
<title>ButtonsComponent&#45;&gt;BsComponentModule</title>
<path fill="none" stroke="#000000" d="M2640,-122.0109C2640,-144.4852 2640,-180 2640,-180 2640,-180 1525.7933,-180 1525.7933,-180"/>
<polygon fill="#000000" stroke="#000000" points="1525.7934,-176.5001 1515.7933,-180 1525.7933,-183.5001 1525.7934,-176.5001"/>
</g>
<!-- AlertComponent -->
<g id="node3" class="node">
<title>AlertComponent</title>
<polygon fill="#ffffb3" stroke="#000000" points="2560.0954,-122 2449.9046,-122 2449.9046,-86 2560.0954,-86 2560.0954,-122"/>
<text text-anchor="middle" x="2505" y="-99.8" font-family="Times,serif" font-size="14.00" fill="#000000">AlertComponent</text>
</g>
<!-- AlertComponent&#45;&gt;BsComponentModule -->
<g id="edge3" class="edge">
<title>AlertComponent&#45;&gt;BsComponentModule</title>
<path fill="none" stroke="#000000" d="M2505,-122.0449C2505,-143.6623 2505,-177 2505,-177 2505,-177 1525.8935,-177 1525.8935,-177"/>
<polygon fill="#000000" stroke="#000000" points="1525.8935,-173.5001 1515.8935,-177 1525.8935,-180.5001 1525.8935,-173.5001"/>
</g>
<!-- ModalComponent -->
<g id="node4" class="node">
<title>ModalComponent</title>
<polygon fill="#ffffb3" stroke="#000000" points="2431.8823,-122 2314.1177,-122 2314.1177,-86 2431.8823,-86 2431.8823,-122"/>
<text text-anchor="middle" x="2373" y="-99.8" font-family="Times,serif" font-size="14.00" fill="#000000">ModalComponent</text>
</g>
<!-- ModalComponent&#45;&gt;BsComponentModule -->
<g id="edge4" class="edge">
<title>ModalComponent&#45;&gt;BsComponentModule</title>
<path fill="none" stroke="#000000" d="M2373,-122.1289C2373,-142.5724 2373,-173 2373,-173 2373,-173 1525.6757,-173 1525.6757,-173"/>
<polygon fill="#000000" stroke="#000000" points="1525.6757,-169.5001 1515.6757,-173 1525.6756,-176.5001 1525.6757,-169.5001"/>
</g>
<!-- CollapseComponent -->
<g id="node5" class="node">
<title>CollapseComponent</title>
<polygon fill="#ffffb3" stroke="#000000" points="2296.3244,-122 2165.6756,-122 2165.6756,-86 2296.3244,-86 2296.3244,-122"/>
<text text-anchor="middle" x="2231" y="-99.8" font-family="Times,serif" font-size="14.00" fill="#000000">CollapseComponent</text>
</g>
<!-- CollapseComponent&#45;&gt;BsComponentModule -->
<g id="edge5" class="edge">
<title>CollapseComponent&#45;&gt;BsComponentModule</title>
<path fill="none" stroke="#000000" d="M2231,-122.1061C2231,-141.3391 2231,-169 2231,-169 2231,-169 1526.0086,-169 1526.0086,-169"/>
<polygon fill="#000000" stroke="#000000" points="1526.0086,-165.5001 1516.0086,-169 1526.0085,-172.5001 1526.0086,-165.5001"/>
</g>
<!-- DatePickerComponent -->
<g id="node6" class="node">
<title>DatePickerComponent</title>
<polygon fill="#ffffb3" stroke="#000000" points="2147.5226,-122 2004.4774,-122 2004.4774,-86 2147.5226,-86 2147.5226,-122"/>
<text text-anchor="middle" x="2076" y="-99.8" font-family="Times,serif" font-size="14.00" fill="#000000">DatePickerComponent</text>
</g>
<!-- DatePickerComponent&#45;&gt;BsComponentModule -->
<g id="edge6" class="edge">
<title>DatePickerComponent&#45;&gt;BsComponentModule</title>
<path fill="none" stroke="#000000" d="M2076,-122.2667C2076,-140.5552 2076,-166 2076,-166 2076,-166 1525.8281,-166 1525.8281,-166"/>
<polygon fill="#000000" stroke="#000000" points="1525.8282,-162.5001 1515.8281,-166 1525.8281,-169.5001 1525.8282,-162.5001"/>
</g>
<!-- DropdownComponent -->
<g id="node7" class="node">
<title>DropdownComponent</title>
<polygon fill="#ffffb3" stroke="#000000" points="1986.7064,-122 1845.2936,-122 1845.2936,-86 1986.7064,-86 1986.7064,-122"/>
<text text-anchor="middle" x="1916" y="-99.8" font-family="Times,serif" font-size="14.00" fill="#000000">DropdownComponent</text>
</g>
<!-- DropdownComponent&#45;&gt;BsComponentModule -->
<g id="edge7" class="edge">
<title>DropdownComponent&#45;&gt;BsComponentModule</title>
<path fill="none" stroke="#000000" d="M1916,-122.0336C1916,-139.0597 1916,-162 1916,-162 1916,-162 1525.8562,-162 1525.8562,-162"/>
<polygon fill="#000000" stroke="#000000" points="1525.8563,-158.5001 1515.8562,-162 1525.8562,-165.5001 1525.8563,-158.5001"/>
</g>
<!-- PaginationComponent -->
<g id="node8" class="node">
<title>PaginationComponent</title>
<polygon fill="#ffffb3" stroke="#000000" points="1827.7162,-122 1686.2838,-122 1686.2838,-86 1827.7162,-86 1827.7162,-122"/>
<text text-anchor="middle" x="1757" y="-99.8" font-family="Times,serif" font-size="14.00" fill="#000000">PaginationComponent</text>
</g>
<!-- PaginationComponent&#45;&gt;BsComponentModule -->
<g id="edge8" class="edge">
<title>PaginationComponent&#45;&gt;BsComponentModule</title>
<path fill="none" stroke="#000000" d="M1757,-122.0091C1757,-138.0494 1757,-159 1757,-159 1757,-159 1525.7945,-159 1525.7945,-159"/>
<polygon fill="#000000" stroke="#000000" points="1525.7945,-155.5001 1515.7945,-159 1525.7944,-162.5001 1525.7945,-155.5001"/>
</g>
<!-- PopOverComponent -->
<g id="node9" class="node">
<title>PopOverComponent</title>
<polygon fill="#ffffb3" stroke="#000000" points="1668.5968,-122 1537.4032,-122 1537.4032,-86 1668.5968,-86 1668.5968,-122"/>
<text text-anchor="middle" x="1603" y="-99.8" font-family="Times,serif" font-size="14.00" fill="#000000">PopOverComponent</text>
</g>
<!-- PopOverComponent&#45;&gt;BsComponentModule -->
<g id="edge9" class="edge">
<title>PopOverComponent&#45;&gt;BsComponentModule</title>
<path fill="none" stroke="#000000" d="M1603,-122.1243C1603,-136.7832 1603,-155 1603,-155 1603,-155 1525.7768,-155 1525.7768,-155"/>
<polygon fill="#000000" stroke="#000000" points="1525.7768,-151.5001 1515.7768,-155 1525.7768,-158.5001 1525.7768,-151.5001"/>
</g>
<!-- ProgressbarComponent -->
<g id="node10" class="node">
<title>ProgressbarComponent</title>
<polygon fill="#ffffb3" stroke="#000000" points="1519.9158,-122 1372.0842,-122 1372.0842,-86 1519.9158,-86 1519.9158,-122"/>
<text text-anchor="middle" x="1446" y="-99.8" font-family="Times,serif" font-size="14.00" fill="#000000">ProgressbarComponent</text>
</g>
<!-- ProgressbarComponent&#45;&gt;BsComponentModule -->
<g id="edge10" class="edge">
<title>ProgressbarComponent&#45;&gt;BsComponentModule</title>
<path fill="none" stroke="#000000" d="M1446,-122.1061C1446,-122.1061 1446,-140.991 1446,-140.991"/>
<polygon fill="#000000" stroke="#000000" points="1442.5001,-140.9909 1446,-150.991 1449.5001,-140.991 1442.5001,-140.9909"/>
</g>
<!-- TabsComponent -->
<g id="node11" class="node">
<title>TabsComponent</title>
<polygon fill="#ffffb3" stroke="#000000" points="1354.0452,-122 1245.9548,-122 1245.9548,-86 1354.0452,-86 1354.0452,-122"/>
<text text-anchor="middle" x="1300" y="-99.8" font-family="Times,serif" font-size="14.00" fill="#000000">TabsComponent</text>
</g>
<!-- TabsComponent&#45;&gt;BsComponentModule -->
<g id="edge11" class="edge">
<title>TabsComponent&#45;&gt;BsComponentModule</title>
<path fill="none" stroke="#000000" d="M1300,-122.1243C1300,-136.7832 1300,-155 1300,-155 1300,-155 1365.9934,-155 1365.9934,-155"/>
<polygon fill="#000000" stroke="#000000" points="1365.9934,-158.5001 1375.9934,-155 1365.9934,-151.5001 1365.9934,-158.5001"/>
</g>
<!-- TooltipComponent -->
<g id="node12" class="node">
<title>TooltipComponent</title>
<polygon fill="#ffffb3" stroke="#000000" points="1227.0576,-122 1104.9424,-122 1104.9424,-86 1227.0576,-86 1227.0576,-122"/>
<text text-anchor="middle" x="1166" y="-99.8" font-family="Times,serif" font-size="14.00" fill="#000000">TooltipComponent</text>
</g>
<!-- TooltipComponent&#45;&gt;BsComponentModule -->
<g id="edge12" class="edge">
<title>TooltipComponent&#45;&gt;BsComponentModule</title>
<path fill="none" stroke="#000000" d="M1166,-122.0091C1166,-138.0494 1166,-159 1166,-159 1166,-159 1366.0665,-159 1366.0665,-159"/>
<polygon fill="#000000" stroke="#000000" points="1366.0665,-162.5001 1376.0665,-159 1366.0664,-155.5001 1366.0665,-162.5001"/>
</g>
<!-- TimepickerComponent -->
<g id="node13" class="node">
<title>TimepickerComponent</title>
<polygon fill="#ffffb3" stroke="#000000" points="1086.8613,-122 941.1387,-122 941.1387,-86 1086.8613,-86 1086.8613,-122"/>
<text text-anchor="middle" x="1014" y="-99.8" font-family="Times,serif" font-size="14.00" fill="#000000">TimepickerComponent</text>
</g>
<!-- TimepickerComponent&#45;&gt;BsComponentModule -->
<g id="edge13" class="edge">
<title>TimepickerComponent&#45;&gt;BsComponentModule</title>
<path fill="none" stroke="#000000" d="M1014,-122.0336C1014,-139.0597 1014,-162 1014,-162 1014,-162 1366.1116,-162 1366.1116,-162"/>
<polygon fill="#000000" stroke="#000000" points="1366.1116,-165.5001 1376.1116,-162 1366.1116,-158.5001 1366.1116,-165.5001"/>
</g>
<!-- CommonModule -->
<g id="node15" class="node">
<title>CommonModule</title>
<polygon fill="#8dd3c7" stroke="#000000" points="916.6681,-122 913.6681,-126 892.6681,-126 889.6681,-122 805.3319,-122 805.3319,-86 916.6681,-86 916.6681,-122"/>
<text text-anchor="middle" x="861" y="-99.8" font-family="Times,serif" font-size="14.00" fill="#000000">CommonModule</text>
</g>
<!-- CommonModule&#45;&gt;BsComponentModule -->
<g id="edge14" class="edge">
<title>CommonModule&#45;&gt;BsComponentModule</title>
<path fill="none" stroke="#000000" d="M861,-122.2667C861,-140.5552 861,-166 861,-166 861,-166 1366.3062,-166 1366.3062,-166"/>
<polygon fill="#000000" stroke="#000000" points="1366.3063,-169.5001 1376.3062,-166 1366.3062,-162.5001 1366.3063,-169.5001"/>
</g>
<!-- FormsModule -->
<g id="node16" class="node">
<title>FormsModule</title>
<polygon fill="#8dd3c7" stroke="#000000" points="787.8288,-122 784.8288,-126 763.8288,-126 760.8288,-122 692.1712,-122 692.1712,-86 787.8288,-86 787.8288,-122"/>
<text text-anchor="middle" x="740" y="-99.8" font-family="Times,serif" font-size="14.00" fill="#000000">FormsModule</text>
</g>
<!-- FormsModule&#45;&gt;BsComponentModule -->
<g id="edge15" class="edge">
<title>FormsModule&#45;&gt;BsComponentModule</title>
<path fill="none" stroke="#000000" d="M740,-122.1061C740,-141.3391 740,-169 740,-169 740,-169 1366.0497,-169 1366.0497,-169"/>
<polygon fill="#000000" stroke="#000000" points="1366.0497,-172.5001 1376.0497,-169 1366.0497,-165.5001 1366.0497,-172.5001"/>
</g>
<!-- ReactiveFormsModule -->
<g id="node17" class="node">
<title>ReactiveFormsModule</title>
<polygon fill="#8dd3c7" stroke="#000000" points="674.3047,-122 671.3047,-126 650.3047,-126 647.3047,-122 529.6953,-122 529.6953,-86 674.3047,-86 674.3047,-122"/>
<text text-anchor="middle" x="602" y="-99.8" font-family="Times,serif" font-size="14.00" fill="#000000">ReactiveFormsModule</text>
</g>
<!-- ReactiveFormsModule&#45;&gt;BsComponentModule -->
<g id="edge16" class="edge">
<title>ReactiveFormsModule&#45;&gt;BsComponentModule</title>
<path fill="none" stroke="#000000" d="M602,-122.1289C602,-142.5724 602,-173 602,-173 602,-173 1366.2139,-173 1366.2139,-173"/>
<polygon fill="#000000" stroke="#000000" points="1366.2139,-176.5001 1376.2139,-173 1366.2139,-169.5001 1366.2139,-176.5001"/>
</g>
<!-- NgbModule.forRoot() -->
<g id="node18" class="node">
<title>NgbModule.forRoot()</title>
<polygon fill="#8dd3c7" stroke="#000000" points="512.026,-122 509.026,-126 488.026,-126 485.026,-122 371.974,-122 371.974,-86 512.026,-86 512.026,-122"/>
<text text-anchor="middle" x="442" y="-99.8" font-family="Times,serif" font-size="14.00" fill="#000000">NgbModule.forRoot()</text>
</g>
<!-- NgbModule.forRoot()&#45;&gt;BsComponentModule -->
<g id="edge17" class="edge">
<title>NgbModule.forRoot()&#45;&gt;BsComponentModule</title>
<path fill="none" stroke="#000000" d="M442,-122.0449C442,-143.6623 442,-177 442,-177 442,-177 1366.1978,-177 1366.1978,-177"/>
<polygon fill="#000000" stroke="#000000" points="1366.1978,-180.5001 1376.1978,-177 1366.1978,-173.5001 1366.1978,-180.5001"/>
</g>
<!-- PageHeaderModule -->
<g id="node19" class="node">
<title>PageHeaderModule</title>
<polygon fill="#8dd3c7" stroke="#000000" points="353.6727,-122 350.6727,-126 329.6727,-126 326.6727,-122 226.3273,-122 226.3273,-86 353.6727,-86 353.6727,-122"/>
<text text-anchor="middle" x="290" y="-99.8" font-family="Times,serif" font-size="14.00" fill="#000000">PageHeaderModule</text>
</g>
<!-- PageHeaderModule&#45;&gt;BsComponentModule -->
<g id="edge18" class="edge">
<title>PageHeaderModule&#45;&gt;BsComponentModule</title>
<path fill="none" stroke="#000000" d="M290,-122.0109C290,-144.4852 290,-180 290,-180 290,-180 1366.2903,-180 1366.2903,-180"/>
<polygon fill="#000000" stroke="#000000" points="1366.2904,-183.5001 1376.2903,-180 1366.2903,-176.5001 1366.2904,-183.5001"/>
</g>
<!-- BsComponentRoutingModule -->
<g id="node20" class="node">
<title>BsComponentRoutingModule</title>
<polygon fill="#8dd3c7" stroke="#000000" points="208.2813,-122 205.2813,-126 184.2813,-126 181.2813,-122 23.7187,-122 23.7187,-86 208.2813,-86 208.2813,-122"/>
<text text-anchor="middle" x="116" y="-99.8" font-family="Times,serif" font-size="14.00" fill="#000000">BsComponentRoutingModule</text>
</g>
<!-- BsComponentRoutingModule&#45;&gt;BsComponentModule -->
<g id="edge19" class="edge">
<title>BsComponentRoutingModule&#45;&gt;BsComponentModule</title>
<path fill="none" stroke="#000000" d="M116,-122.1532C116,-145.7566 116,-184 116,-184 116,-184 1365.8999,-184 1365.8999,-184"/>
<polygon fill="#000000" stroke="#000000" points="1365.9,-187.5001 1375.8999,-184 1365.8999,-180.5001 1365.9,-187.5001"/>
</g>
</g>
</svg>
