<?xml version="1.0" encoding="UTF-8" standalone="no"?>
<!DOCTYPE svg PUBLIC "-//W3C//DTD SVG 1.1//EN"
 "http://www.w3.org/Graphics/SVG/1.1/DTD/svg11.dtd">
<!-- Generated by graphviz version 2.40.1 (20161225.0304)
 -->
<!-- Title: dependencies Pages: 1 -->
<svg width="709pt" height="211pt"
 viewBox="0.00 0.00 709.00 211.00" xmlns="http://www.w3.org/2000/svg" xmlns:xlink="http://www.w3.org/1999/xlink">
<g id="graph0" class="graph" transform="scale(1 1) rotate(0) translate(4 207)">
<title>dependencies</title>
<polygon fill="#ffffff" stroke="transparent" points="-4,4 -4,-207 705,-207 705,4 -4,4"/>
<text text-anchor="start" x="329.5091" y="-42.4" font-family="sans-serif" font-weight="bold" font-size="14.00" fill="#000000">Legend</text>
<polygon fill="#ffffb3" stroke="transparent" points="116.5,-10 116.5,-30 136.5,-30 136.5,-10 116.5,-10"/>
<text text-anchor="start" x="140.129" y="-15.4" font-family="sans-serif" font-size="14.00" fill="#000000"> &#160;Declarations</text>
<polygon fill="#8dd3c7" stroke="transparent" points="229.5,-10 229.5,-30 249.5,-30 249.5,-10 229.5,-10"/>
<text text-anchor="start" x="253.2251" y="-15.4" font-family="sans-serif" font-size="14.00" fill="#000000"> &#160;Module</text>
<polygon fill="#80b1d3" stroke="transparent" points="315.5,-10 315.5,-30 335.5,-30 335.5,-10 315.5,-10"/>
<text text-anchor="start" x="339.2812" y="-15.4" font-family="sans-serif" font-size="14.00" fill="#000000"> &#160;Bootstrap</text>
<polygon fill="#fdb462" stroke="transparent" points="412.5,-10 412.5,-30 432.5,-30 432.5,-10 412.5,-10"/>
<text text-anchor="start" x="436.1732" y="-15.4" font-family="sans-serif" font-size="14.00" fill="#000000"> &#160;Providers</text>
<polygon fill="#fb8072" stroke="transparent" points="508.5,-10 508.5,-30 528.5,-30 528.5,-10 508.5,-10"/>
<text text-anchor="start" x="532.2258" y="-15.4" font-family="sans-serif" font-size="14.00" fill="#000000"> &#160;Exports</text>
<g id="clust1" class="cluster">
<title>cluster_ChartsModule</title>
<polygon fill="none" stroke="#000000" stroke-dasharray="1,5" points="8,-70 8,-195 693,-195 693,-70 8,-70"/>
</g>
<g id="clust2" class="cluster">
<title>cluster_ChartsModule_declarations</title>
<polygon fill="none" stroke="#000000" points="551,-78 551,-130 685,-130 685,-78 551,-78"/>
</g>
<g id="clust4" class="cluster">
<title>cluster_ChartsModule_imports</title>
<polygon fill="none" stroke="#000000" points="16,-78 16,-130 543,-130 543,-78 16,-78"/>
</g>
<!-- ChartsComponent -->
<g id="node1" class="node">
<title>ChartsComponent</title>
<polygon fill="#ffffb3" stroke="#000000" points="676.8795,-122 559.1205,-122 559.1205,-86 676.8795,-86 676.8795,-122"/>
<text text-anchor="middle" x="618" y="-99.8" font-family="Times,serif" font-size="14.00" fill="#000000">ChartsComponent</text>
</g>
<!-- ChartsModule -->
<g id="node2" class="node">
<title>ChartsModule</title>
<polygon fill="#8dd3c7" stroke="#000000" points="415.0968,-187 412.0968,-191 391.0968,-191 388.0968,-187 318.9032,-187 318.9032,-151 415.0968,-151 415.0968,-187"/>
<text text-anchor="middle" x="367" y="-164.8" font-family="Times,serif" font-size="14.00" fill="#000000">ChartsModule</text>
</g>
<!-- ChartsComponent&#45;&gt;ChartsModule -->
<g id="edge1" class="edge">
<title>ChartsComponent&#45;&gt;ChartsModule</title>
<path fill="none" stroke="#000000" d="M618,-122.1061C618,-141.3391 618,-169 618,-169 618,-169 425.0983,-169 425.0983,-169"/>
<polygon fill="#000000" stroke="#000000" points="425.0984,-165.5001 415.0983,-169 425.0983,-172.5001 425.0984,-165.5001"/>
</g>
<!-- CommonModule -->
<g id="node3" class="node">
<title>CommonModule</title>
<polygon fill="#8dd3c7" stroke="#000000" points="534.6681,-122 531.6681,-126 510.6681,-126 507.6681,-122 423.3319,-122 423.3319,-86 534.6681,-86 534.6681,-122"/>
<text text-anchor="middle" x="479" y="-99.8" font-family="Times,serif" font-size="14.00" fill="#000000">CommonModule</text>
</g>
<!-- CommonModule&#45;&gt;ChartsModule -->
<g id="edge2" class="edge">
<title>CommonModule&#45;&gt;ChartsModule</title>
<path fill="none" stroke="#000000" d="M423.1307,-104C415.4806,-104 410.1876,-104 410.1876,-104 410.1876,-104 410.1876,-140.8939 410.1876,-140.8939"/>
<polygon fill="#000000" stroke="#000000" points="406.6877,-140.8938 410.1876,-150.8939 413.6877,-140.8939 406.6877,-140.8938"/>
</g>
<!-- Ng2Charts -->
<g id="node4" class="node">
<title>Ng2Charts</title>
<polygon fill="#8dd3c7" stroke="#000000" points="405.1544,-122 402.1544,-126 381.1544,-126 378.1544,-122 328.8456,-122 328.8456,-86 405.1544,-86 405.1544,-122"/>
<text text-anchor="middle" x="367" y="-99.8" font-family="Times,serif" font-size="14.00" fill="#000000">Ng2Charts</text>
</g>
<!-- Ng2Charts&#45;&gt;ChartsModule -->
<g id="edge3" class="edge">
<title>Ng2Charts&#45;&gt;ChartsModule</title>
<path fill="none" stroke="#000000" d="M367,-122.1061C367,-122.1061 367,-140.991 367,-140.991"/>
<polygon fill="#000000" stroke="#000000" points="363.5001,-140.9909 367,-150.991 370.5001,-140.991 363.5001,-140.9909"/>
</g>
<!-- ChartsRoutingModule -->
<g id="node5" class="node">
<title>ChartsRoutingModule</title>
<polygon fill="#8dd3c7" stroke="#000000" points="310.7148,-122 307.7148,-126 286.7148,-126 283.7148,-122 169.2852,-122 169.2852,-86 310.7148,-86 310.7148,-122"/>
<text text-anchor="middle" x="240" y="-99.8" font-family="Times,serif" font-size="14.00" fill="#000000">ChartsRoutingModule</text>
</g>
<!-- ChartsRoutingModule&#45;&gt;ChartsModule -->
<g id="edge4" class="edge">
<title>ChartsRoutingModule&#45;&gt;ChartsModule</title>
<path fill="none" stroke="#000000" d="M310.7167,-104C318.5741,-104 323.8124,-104 323.8124,-104 323.8124,-104 323.8124,-140.8939 323.8124,-140.8939"/>
<polygon fill="#000000" stroke="#000000" points="320.3125,-140.8938 323.8124,-150.8939 327.3125,-140.8939 320.3125,-140.8938"/>
</g>
<!-- PageHeaderModule -->
<g id="node6" class="node">
<title>PageHeaderModule</title>
<polygon fill="#8dd3c7" stroke="#000000" points="151.6727,-122 148.6727,-126 127.6727,-126 124.6727,-122 24.3273,-122 24.3273,-86 151.6727,-86 151.6727,-122"/>
<text text-anchor="middle" x="88" y="-99.8" font-family="Times,serif" font-size="14.00" fill="#000000">PageHeaderModule</text>
</g>
<!-- PageHeaderModule&#45;&gt;ChartsModule -->
<g id="edge5" class="edge">
<title>PageHeaderModule&#45;&gt;ChartsModule</title>
<path fill="none" stroke="#000000" d="M88,-122.1061C88,-141.3391 88,-169 88,-169 88,-169 308.7204,-169 308.7204,-169"/>
<polygon fill="#000000" stroke="#000000" points="308.7205,-172.5001 318.7204,-169 308.7204,-165.5001 308.7205,-172.5001"/>
</g>
</g>
</svg>
