<?xml version="1.0" encoding="UTF-8" standalone="no"?>
<!DOCTYPE svg PUBLIC "-//W3C//DTD SVG 1.1//EN"
 "http://www.w3.org/Graphics/SVG/1.1/DTD/svg11.dtd">
<!-- Generated by graphviz version 2.38.0 (20140413.2041)
 -->
<!-- Title: dependencies Pages: 1 -->
<svg width="504pt" height="284pt"
 viewBox="0.00 0.00 504.00 284.00" xmlns="http://www.w3.org/2000/svg" xmlns:xlink="http://www.w3.org/1999/xlink">
<g id="graph0" class="graph" transform="scale(1 1) rotate(0) translate(4 280)">
<title>dependencies</title>
<polygon fill="white" stroke="none" points="-4,4 -4,-280 500,-280 500,4 -4,4"/>
<text text-anchor="start" x="227.009" y="-42.4" font-family="sans-serif" font-weight="bold" font-size="14.00">Legend</text>
<polygon fill="#ffffb3" stroke="none" points="14,-10 14,-30 34,-30 34,-10 14,-10"/>
<text text-anchor="start" x="37.629" y="-15.4" font-family="sans-serif" font-size="14.00"> &#160;Declarations</text>
<polygon fill="#8dd3c7" stroke="none" points="127,-10 127,-30 147,-30 147,-10 127,-10"/>
<text text-anchor="start" x="150.725" y="-15.4" font-family="sans-serif" font-size="14.00"> &#160;Module</text>
<polygon fill="#80b1d3" stroke="none" points="213,-10 213,-30 233,-30 233,-10 213,-10"/>
<text text-anchor="start" x="236.781" y="-15.4" font-family="sans-serif" font-size="14.00"> &#160;Bootstrap</text>
<polygon fill="#fdb462" stroke="none" points="310,-10 310,-30 330,-30 330,-10 310,-10"/>
<text text-anchor="start" x="333.673" y="-15.4" font-family="sans-serif" font-size="14.00"> &#160;Providers</text>
<polygon fill="#fb8072" stroke="none" points="406,-10 406,-30 426,-30 426,-10 406,-10"/>
<text text-anchor="start" x="429.726" y="-15.4" font-family="sans-serif" font-size="14.00"> &#160;Exports</text>
<g id="clust1" class="cluster"><title>cluster_SignupModule</title>
<polygon fill="none" stroke="black" stroke-dasharray="1,5" points="45,-70 45,-268 451,-268 451,-70 45,-70"/>
</g>
<g id="clust2" class="cluster"><title>cluster_SignupModule_declarations</title>
<polygon fill="none" stroke="black" points="305,-78 305,-130 443,-130 443,-78 305,-78"/>
</g>
<g id="clust4" class="cluster"><title>cluster_SignupModule_imports</title>
<polygon fill="none" stroke="black" points="53,-78 53,-130 297,-130 297,-78 53,-78"/>
</g>
<g id="clust5" class="cluster"><title>cluster_SignupModule_exports</title>
<polygon fill="none" stroke="black" points="163,-208 163,-260 303,-260 303,-208 163,-208"/>
</g>
<!-- SignupComponent -->
<g id="node1" class="node"><title>SignupComponent</title>
<polygon fill="#ffffb3" stroke="black" points="434.506,-122 313.494,-122 313.494,-86 434.506,-86 434.506,-122"/>
<text text-anchor="middle" x="374" y="-99.8" font-family="Times,serif" font-size="14.00">SignupComponent</text>
</g>
<!-- SignupModule -->
<g id="node2" class="node"><title>SignupModule</title>
<polygon fill="#8dd3c7" stroke="black" points="282.723,-187 279.723,-191 258.723,-191 255.723,-187 183.277,-187 183.277,-151 282.723,-151 282.723,-187"/>
<text text-anchor="middle" x="233" y="-164.8" font-family="Times,serif" font-size="14.00">SignupModule</text>
</g>
<!-- SignupComponent&#45;&gt;SignupModule -->
<g id="edge1" class="edge"><title>SignupComponent&#45;&gt;SignupModule</title>
<path fill="none" stroke="black" d="M374,-122.106C374,-141.339 374,-169 374,-169 374,-169 292.711,-169 292.711,-169"/>
<polygon fill="black" stroke="black" points="292.711,-165.5 282.711,-169 292.711,-172.5 292.711,-165.5"/>
</g>
<!-- SignupComponent  -->
<g id="node5" class="node"><title>SignupComponent </title>
<polygon fill="#fb8072" stroke="black" points="295.007,-252 170.993,-252 170.993,-216 295.007,-216 295.007,-252"/>
<text text-anchor="middle" x="233" y="-229.8" font-family="Times,serif" font-size="14.00">SignupComponent </text>
</g>
<!-- SignupModule&#45;&gt;SignupComponent  -->
<g id="edge4" class="edge"><title>SignupModule&#45;&gt;SignupComponent </title>
<path fill="none" stroke="black" stroke-dasharray="5,2" d="M233,-187.106C233,-187.106 233,-205.991 233,-205.991"/>
<polygon fill="black" stroke="black" points="229.5,-205.991 233,-215.991 236.5,-205.991 229.5,-205.991"/>
</g>
<!-- CommonModule -->
<g id="node3" class="node"><title>CommonModule</title>
<polygon fill="#8dd3c7" stroke="black" points="288.668,-122 285.668,-126 264.668,-126 261.668,-122 177.332,-122 177.332,-86 288.668,-86 288.668,-122"/>
<text text-anchor="middle" x="233" y="-99.8" font-family="Times,serif" font-size="14.00">CommonModule</text>
</g>
<!-- CommonModule&#45;&gt;SignupModule -->
<g id="edge2" class="edge"><title>CommonModule&#45;&gt;SignupModule</title>
<path fill="none" stroke="black" d="M233,-122.106C233,-122.106 233,-140.991 233,-140.991"/>
<polygon fill="black" stroke="black" points="229.5,-140.991 233,-150.991 236.5,-140.991 229.5,-140.991"/>
</g>
<!-- RouterModule -->
<g id="node4" class="node"><title>RouterModule</title>
<polygon fill="#8dd3c7" stroke="black" points="158.653,-122 155.653,-126 134.653,-126 131.653,-122 61.3472,-122 61.3472,-86 158.653,-86 158.653,-122"/>
<text text-anchor="middle" x="110" y="-99.8" font-family="Times,serif" font-size="14.00">RouterModule</text>
</g>
<!-- RouterModule&#45;&gt;SignupModule -->
<g id="edge3" class="edge"><title>RouterModule&#45;&gt;SignupModule</title>
<path fill="none" stroke="black" d="M110,-122.106C110,-141.339 110,-169 110,-169 110,-169 173.326,-169 173.326,-169"/>
<polygon fill="black" stroke="black" points="173.326,-172.5 183.326,-169 173.326,-165.5 173.326,-172.5"/>
</g>
</g>
</svg>
