<?xml version="1.0" encoding="UTF-8" standalone="no"?>
<!DOCTYPE svg PUBLIC "-//W3C//DTD SVG 1.1//EN"
 "http://www.w3.org/Graphics/SVG/1.1/DTD/svg11.dtd">
<!-- Generated by graphviz version 2.40.1 (20161225.0304)
 -->
<!-- Title: dependencies Pages: 1 -->
<svg width="664pt" height="211pt"
 viewBox="0.00 0.00 664.00 211.00" xmlns="http://www.w3.org/2000/svg" xmlns:xlink="http://www.w3.org/1999/xlink">
<g id="graph0" class="graph" transform="scale(1 1) rotate(0) translate(4 207)">
<title>dependencies</title>
<polygon fill="#ffffff" stroke="transparent" points="-4,4 -4,-207 660,-207 660,4 -4,4"/>
<text text-anchor="start" x="307.0091" y="-42.4" font-family="sans-serif" font-weight="bold" font-size="14.00" fill="#000000">Legend</text>
<polygon fill="#ffffb3" stroke="transparent" points="94,-10 94,-30 114,-30 114,-10 94,-10"/>
<text text-anchor="start" x="117.629" y="-15.4" font-family="sans-serif" font-size="14.00" fill="#000000"> &#160;Declarations</text>
<polygon fill="#8dd3c7" stroke="transparent" points="207,-10 207,-30 227,-30 227,-10 207,-10"/>
<text text-anchor="start" x="230.7251" y="-15.4" font-family="sans-serif" font-size="14.00" fill="#000000"> &#160;Module</text>
<polygon fill="#80b1d3" stroke="transparent" points="293,-10 293,-30 313,-30 313,-10 293,-10"/>
<text text-anchor="start" x="316.7812" y="-15.4" font-family="sans-serif" font-size="14.00" fill="#000000"> &#160;Bootstrap</text>
<polygon fill="#fdb462" stroke="transparent" points="390,-10 390,-30 410,-30 410,-10 390,-10"/>
<text text-anchor="start" x="413.6732" y="-15.4" font-family="sans-serif" font-size="14.00" fill="#000000"> &#160;Providers</text>
<polygon fill="#fb8072" stroke="transparent" points="486,-10 486,-30 506,-30 506,-10 486,-10"/>
<text text-anchor="start" x="509.7258" y="-15.4" font-family="sans-serif" font-size="14.00" fill="#000000"> &#160;Exports</text>
<g id="clust1" class="cluster">
<title>cluster_BsElementModule</title>
<polygon fill="none" stroke="#000000" stroke-dasharray="1,5" points="8,-70 8,-195 648,-195 648,-70 8,-70"/>
</g>
<g id="clust2" class="cluster">
<title>cluster_BsElementModule_declarations</title>
<polygon fill="none" stroke="#000000" points="482,-78 482,-130 640,-130 640,-78 482,-78"/>
</g>
<g id="clust4" class="cluster">
<title>cluster_BsElementModule_imports</title>
<polygon fill="none" stroke="#000000" points="16,-78 16,-130 474,-130 474,-78 16,-78"/>
</g>
<!-- BsElementComponent -->
<g id="node1" class="node">
<title>BsElementComponent</title>
<polygon fill="#ffffb3" stroke="#000000" points="632.2674,-122 489.7326,-122 489.7326,-86 632.2674,-86 632.2674,-122"/>
<text text-anchor="middle" x="561" y="-99.8" font-family="Times,serif" font-size="14.00" fill="#000000">BsElementComponent</text>
</g>
<!-- BsElementModule -->
<g id="node2" class="node">
<title>BsElementModule</title>
<polygon fill="#8dd3c7" stroke="#000000" points="391.4846,-187 388.4846,-191 367.4846,-191 364.4846,-187 270.5154,-187 270.5154,-151 391.4846,-151 391.4846,-187"/>
<text text-anchor="middle" x="331" y="-164.8" font-family="Times,serif" font-size="14.00" fill="#000000">BsElementModule</text>
</g>
<!-- BsElementComponent&#45;&gt;BsElementModule -->
<g id="edge1" class="edge">
<title>BsElementComponent&#45;&gt;BsElementModule</title>
<path fill="none" stroke="#000000" d="M561,-122.1061C561,-141.3391 561,-169 561,-169 561,-169 401.7306,-169 401.7306,-169"/>
<polygon fill="#000000" stroke="#000000" points="401.7307,-165.5001 391.7306,-169 401.7306,-172.5001 401.7307,-165.5001"/>
</g>
<!-- CommonModule -->
<g id="node3" class="node">
<title>CommonModule</title>
<polygon fill="#8dd3c7" stroke="#000000" points="465.6681,-122 462.6681,-126 441.6681,-126 438.6681,-122 354.3319,-122 354.3319,-86 465.6681,-86 465.6681,-122"/>
<text text-anchor="middle" x="410" y="-99.8" font-family="Times,serif" font-size="14.00" fill="#000000">CommonModule</text>
</g>
<!-- CommonModule&#45;&gt;BsElementModule -->
<g id="edge2" class="edge">
<title>CommonModule&#45;&gt;BsElementModule</title>
<path fill="none" stroke="#000000" d="M372.8293,-122.1061C372.8293,-122.1061 372.8293,-140.991 372.8293,-140.991"/>
<polygon fill="#000000" stroke="#000000" points="369.3293,-140.9909 372.8293,-150.991 376.3293,-140.991 369.3293,-140.9909"/>
</g>
<!-- BsElementRoutingModule -->
<g id="node4" class="node">
<title>BsElementRoutingModule</title>
<polygon fill="#8dd3c7" stroke="#000000" points="336.1024,-122 333.1024,-126 312.1024,-126 309.1024,-122 169.8976,-122 169.8976,-86 336.1024,-86 336.1024,-122"/>
<text text-anchor="middle" x="253" y="-99.8" font-family="Times,serif" font-size="14.00" fill="#000000">BsElementRoutingModule</text>
</g>
<!-- BsElementRoutingModule&#45;&gt;BsElementModule -->
<g id="edge3" class="edge">
<title>BsElementRoutingModule&#45;&gt;BsElementModule</title>
<path fill="none" stroke="#000000" d="M303.2795,-122.1061C303.2795,-122.1061 303.2795,-140.991 303.2795,-140.991"/>
<polygon fill="#000000" stroke="#000000" points="299.7795,-140.9909 303.2795,-150.991 306.7795,-140.991 299.7795,-140.9909"/>
</g>
<!-- PageHeaderModule -->
<g id="node5" class="node">
<title>PageHeaderModule</title>
<polygon fill="#8dd3c7" stroke="#000000" points="151.6727,-122 148.6727,-126 127.6727,-126 124.6727,-122 24.3273,-122 24.3273,-86 151.6727,-86 151.6727,-122"/>
<text text-anchor="middle" x="88" y="-99.8" font-family="Times,serif" font-size="14.00" fill="#000000">PageHeaderModule</text>
</g>
<!-- PageHeaderModule&#45;&gt;BsElementModule -->
<g id="edge4" class="edge">
<title>PageHeaderModule&#45;&gt;BsElementModule</title>
<path fill="none" stroke="#000000" d="M88,-122.1061C88,-141.3391 88,-169 88,-169 88,-169 260.3077,-169 260.3077,-169"/>
<polygon fill="#000000" stroke="#000000" points="260.3077,-172.5001 270.3077,-169 260.3076,-165.5001 260.3077,-172.5001"/>
</g>
</g>
</svg>
