<?xml version="1.0" encoding="UTF-8" standalone="no"?>
<!DOCTYPE svg PUBLIC "-//W3C//DTD SVG 1.1//EN"
 "http://www.w3.org/Graphics/SVG/1.1/DTD/svg11.dtd">
<!-- Generated by graphviz version 2.38.0 (20140413.2041)
 -->
<!-- Title: dependencies Pages: 1 -->
<svg width="504pt" height="284pt"
 viewBox="0.00 0.00 504.00 284.00" xmlns="http://www.w3.org/2000/svg" xmlns:xlink="http://www.w3.org/1999/xlink">
<g id="graph0" class="graph" transform="scale(1 1) rotate(0) translate(4 280)">
<title>dependencies</title>
<polygon fill="white" stroke="none" points="-4,4 -4,-280 500,-280 500,4 -4,4"/>
<text text-anchor="start" x="227.009" y="-42.4" font-family="sans-serif" font-weight="bold" font-size="14.00">Legend</text>
<polygon fill="#ffffb3" stroke="none" points="14,-10 14,-30 34,-30 34,-10 14,-10"/>
<text text-anchor="start" x="37.629" y="-15.4" font-family="sans-serif" font-size="14.00"> &#160;Declarations</text>
<polygon fill="#8dd3c7" stroke="none" points="127,-10 127,-30 147,-30 147,-10 127,-10"/>
<text text-anchor="start" x="150.725" y="-15.4" font-family="sans-serif" font-size="14.00"> &#160;Module</text>
<polygon fill="#80b1d3" stroke="none" points="213,-10 213,-30 233,-30 233,-10 213,-10"/>
<text text-anchor="start" x="236.781" y="-15.4" font-family="sans-serif" font-size="14.00"> &#160;Bootstrap</text>
<polygon fill="#fdb462" stroke="none" points="310,-10 310,-30 330,-30 330,-10 310,-10"/>
<text text-anchor="start" x="333.673" y="-15.4" font-family="sans-serif" font-size="14.00"> &#160;Providers</text>
<polygon fill="#fb8072" stroke="none" points="406,-10 406,-30 426,-30 426,-10 406,-10"/>
<text text-anchor="start" x="429.726" y="-15.4" font-family="sans-serif" font-size="14.00"> &#160;Exports</text>
<g id="clust1" class="cluster"><title>cluster_BSElementModule</title>
<polygon fill="none" stroke="black" stroke-dasharray="1,5" points="98,-70 98,-268 398,-268 398,-70 98,-70"/>
</g>
<g id="clust2" class="cluster"><title>cluster_BSElementModule_declarations</title>
<polygon fill="none" stroke="black" points="228,-78 228,-130 390,-130 390,-78 228,-78"/>
</g>
<g id="clust4" class="cluster"><title>cluster_BSElementModule_imports</title>
<polygon fill="none" stroke="black" points="106,-78 106,-130 220,-130 220,-78 106,-78"/>
</g>
<g id="clust5" class="cluster"><title>cluster_BSElementModule_exports</title>
<polygon fill="none" stroke="black" points="166,-208 166,-260 330,-260 330,-208 166,-208"/>
</g>
<!-- BSElementComponent -->
<g id="node1" class="node"><title>BSElementComponent</title>
<polygon fill="#ffffb3" stroke="black" points="381.605,-122 236.395,-122 236.395,-86 381.605,-86 381.605,-122"/>
<text text-anchor="middle" x="309" y="-99.8" font-family="Times,serif" font-size="14.00">BSElementComponent</text>
</g>
<!-- BSElementModule -->
<g id="node2" class="node"><title>BSElementModule</title>
<polygon fill="#8dd3c7" stroke="black" points="309.823,-187 306.823,-191 285.823,-191 282.823,-187 186.177,-187 186.177,-151 309.823,-151 309.823,-187"/>
<text text-anchor="middle" x="248" y="-164.8" font-family="Times,serif" font-size="14.00">BSElementModule</text>
</g>
<!-- BSElementComponent&#45;&gt;BSElementModule -->
<g id="edge1" class="edge"><title>BSElementComponent&#45;&gt;BSElementModule</title>
<path fill="none" stroke="black" d="M273.054,-122.106C273.054,-122.106 273.054,-140.991 273.054,-140.991"/>
<polygon fill="black" stroke="black" points="269.554,-140.991 273.054,-150.991 276.554,-140.991 269.554,-140.991"/>
</g>
<!-- BSElementComponent  -->
<g id="node4" class="node"><title>BSElementComponent </title>
<polygon fill="#fb8072" stroke="black" points="322.106,-252 173.894,-252 173.894,-216 322.106,-216 322.106,-252"/>
<text text-anchor="middle" x="248" y="-229.8" font-family="Times,serif" font-size="14.00">BSElementComponent </text>
</g>
<!-- BSElementModule&#45;&gt;BSElementComponent  -->
<g id="edge3" class="edge"><title>BSElementModule&#45;&gt;BSElementComponent </title>
<path fill="none" stroke="black" stroke-dasharray="5,2" d="M248,-187.106C248,-187.106 248,-205.991 248,-205.991"/>
<polygon fill="black" stroke="black" points="244.5,-205.991 248,-215.991 251.5,-205.991 244.5,-205.991"/>
</g>
<!-- RouterModule -->
<g id="node3" class="node"><title>RouterModule</title>
<polygon fill="#8dd3c7" stroke="black" points="211.653,-122 208.653,-126 187.653,-126 184.653,-122 114.347,-122 114.347,-86 211.653,-86 211.653,-122"/>
<text text-anchor="middle" x="163" y="-99.8" font-family="Times,serif" font-size="14.00">RouterModule</text>
</g>
<!-- RouterModule&#45;&gt;BSElementModule -->
<g id="edge2" class="edge"><title>RouterModule&#45;&gt;BSElementModule</title>
<path fill="none" stroke="black" d="M199.082,-122.106C199.082,-122.106 199.082,-140.991 199.082,-140.991"/>
<polygon fill="black" stroke="black" points="195.582,-140.991 199.082,-150.991 202.582,-140.991 195.582,-140.991"/>
</g>
</g>
</svg>
