<?xml version="1.0" encoding="UTF-8" standalone="no"?>
<!DOCTYPE svg PUBLIC "-//W3C//DTD SVG 1.1//EN"
 "http://www.w3.org/Graphics/SVG/1.1/DTD/svg11.dtd">
<!-- Generated by graphviz version 2.38.0 (20140413.2041)
 -->
<!-- Title: dependencies Pages: 1 -->
<svg width="1120pt" height="284pt"
 viewBox="0.00 0.00 1120.00 284.00" xmlns="http://www.w3.org/2000/svg" xmlns:xlink="http://www.w3.org/1999/xlink">
<g id="graph0" class="graph" transform="scale(1 1) rotate(0) translate(4 280)">
<title>dependencies</title>
<polygon fill="white" stroke="none" points="-4,4 -4,-280 1116,-280 1116,4 -4,4"/>
<text text-anchor="start" x="535.009" y="-42.4" font-family="sans-serif" font-weight="bold" font-size="14.00">Legend</text>
<polygon fill="#ffffb3" stroke="none" points="322,-10 322,-30 342,-30 342,-10 322,-10"/>
<text text-anchor="start" x="345.629" y="-15.4" font-family="sans-serif" font-size="14.00"> &#160;Declarations</text>
<polygon fill="#8dd3c7" stroke="none" points="435,-10 435,-30 455,-30 455,-10 435,-10"/>
<text text-anchor="start" x="458.725" y="-15.4" font-family="sans-serif" font-size="14.00"> &#160;Module</text>
<polygon fill="#80b1d3" stroke="none" points="521,-10 521,-30 541,-30 541,-10 521,-10"/>
<text text-anchor="start" x="544.781" y="-15.4" font-family="sans-serif" font-size="14.00"> &#160;Bootstrap</text>
<polygon fill="#fdb462" stroke="none" points="618,-10 618,-30 638,-30 638,-10 618,-10"/>
<text text-anchor="start" x="641.673" y="-15.4" font-family="sans-serif" font-size="14.00"> &#160;Providers</text>
<polygon fill="#fb8072" stroke="none" points="714,-10 714,-30 734,-30 734,-10 714,-10"/>
<text text-anchor="start" x="737.726" y="-15.4" font-family="sans-serif" font-size="14.00"> &#160;Exports</text>
<g id="clust1" class="cluster"><title>cluster_HomeModule</title>
<polygon fill="none" stroke="black" stroke-dasharray="1,5" points="8,-70 8,-268 1104,-268 1104,-70 8,-70"/>
</g>
<g id="clust2" class="cluster"><title>cluster_HomeModule_declarations</title>
<polygon fill="none" stroke="black" points="522,-78 522,-130 1096,-130 1096,-78 522,-78"/>
</g>
<g id="clust7" class="cluster"><title>cluster_HomeModule_imports</title>
<polygon fill="none" stroke="black" points="16,-78 16,-130 514,-130 514,-78 16,-78"/>
</g>
<g id="clust8" class="cluster"><title>cluster_HomeModule_exports</title>
<polygon fill="none" stroke="black" points="222,-208 222,-260 810,-260 810,-208 222,-208"/>
</g>
<!-- HomeComponent -->
<g id="node1" class="node"><title>HomeComponent</title>
<polygon fill="#ffffb3" stroke="black" points="1087.55,-122 972.455,-122 972.455,-86 1087.55,-86 1087.55,-122"/>
<text text-anchor="middle" x="1030" y="-99.8" font-family="Times,serif" font-size="14.00">HomeComponent</text>
</g>
<!-- HomeModule -->
<g id="node5" class="node"><title>HomeModule</title>
<polygon fill="#8dd3c7" stroke="black" points="573.762,-187 570.762,-191 549.762,-191 546.762,-187 480.238,-187 480.238,-151 573.762,-151 573.762,-187"/>
<text text-anchor="middle" x="527" y="-164.8" font-family="Times,serif" font-size="14.00">HomeModule</text>
</g>
<!-- HomeComponent&#45;&gt;HomeModule -->
<g id="edge1" class="edge"><title>HomeComponent&#45;&gt;HomeModule</title>
<path fill="none" stroke="black" d="M1030,-122.129C1030,-142.572 1030,-173 1030,-173 1030,-173 583.869,-173 583.869,-173"/>
<polygon fill="black" stroke="black" points="583.869,-169.5 573.869,-173 583.869,-176.5 583.869,-169.5"/>
</g>
<!-- TimelineComponent -->
<g id="node2" class="node"><title>TimelineComponent</title>
<polygon fill="#ffffb3" stroke="black" points="953.877,-122 822.123,-122 822.123,-86 953.877,-86 953.877,-122"/>
<text text-anchor="middle" x="888" y="-99.8" font-family="Times,serif" font-size="14.00">TimelineComponent</text>
</g>
<!-- TimelineComponent&#45;&gt;HomeModule -->
<g id="edge2" class="edge"><title>TimelineComponent&#45;&gt;HomeModule</title>
<path fill="none" stroke="black" d="M888,-122.267C888,-140.555 888,-166 888,-166 888,-166 583.824,-166 583.824,-166"/>
<polygon fill="black" stroke="black" points="583.824,-162.5 573.824,-166 583.824,-169.5 583.824,-162.5"/>
</g>
<!-- ChatComponent -->
<g id="node3" class="node"><title>ChatComponent</title>
<polygon fill="#ffffb3" stroke="black" points="803.774,-122 696.226,-122 696.226,-86 803.774,-86 803.774,-122"/>
<text text-anchor="middle" x="750" y="-99.8" font-family="Times,serif" font-size="14.00">ChatComponent</text>
</g>
<!-- ChatComponent&#45;&gt;HomeModule -->
<g id="edge3" class="edge"><title>ChatComponent&#45;&gt;HomeModule</title>
<path fill="none" stroke="black" d="M748.817,-122.009C748.817,-138.049 748.817,-159 748.817,-159 748.817,-159 583.771,-159 583.771,-159"/>
<polygon fill="black" stroke="black" points="583.771,-155.5 573.771,-159 583.771,-162.5 583.771,-155.5"/>
</g>
<!-- NotificationComponent -->
<g id="node4" class="node"><title>NotificationComponent</title>
<polygon fill="#ffffb3" stroke="black" points="678.482,-122 529.518,-122 529.518,-86 678.482,-86 678.482,-122"/>
<text text-anchor="middle" x="604" y="-99.8" font-family="Times,serif" font-size="14.00">NotificationComponent</text>
</g>
<!-- NotificationComponent&#45;&gt;HomeModule -->
<g id="edge4" class="edge"><title>NotificationComponent&#45;&gt;HomeModule</title>
<path fill="none" stroke="black" d="M551.695,-122.106C551.695,-122.106 551.695,-140.991 551.695,-140.991"/>
<polygon fill="black" stroke="black" points="548.195,-140.991 551.695,-150.991 555.195,-140.991 548.195,-140.991"/>
</g>
<!-- HomeComponent  -->
<g id="node10" class="node"><title>HomeComponent </title>
<polygon fill="#fb8072" stroke="black" points="801.544,-252 682.456,-252 682.456,-216 801.544,-216 801.544,-252"/>
<text text-anchor="middle" x="742" y="-229.8" font-family="Times,serif" font-size="14.00">HomeComponent </text>
</g>
<!-- HomeModule&#45;&gt;HomeComponent  -->
<g id="edge9" class="edge"><title>HomeModule&#45;&gt;HomeComponent </title>
<path fill="none" stroke="black" stroke-dasharray="5,2" d="M573.943,-180C621.875,-180 689.295,-180 689.295,-180 689.295,-180 689.295,-205.718 689.295,-205.718"/>
<polygon fill="black" stroke="black" points="685.795,-205.718 689.295,-215.718 692.795,-205.718 685.795,-205.718"/>
</g>
<!-- TimelineComponent  -->
<g id="node11" class="node"><title>TimelineComponent </title>
<polygon fill="#fb8072" stroke="black" points="664.877,-252 529.123,-252 529.123,-216 664.877,-216 664.877,-252"/>
<text text-anchor="middle" x="597" y="-229.8" font-family="Times,serif" font-size="14.00">TimelineComponent </text>
</g>
<!-- HomeModule&#45;&gt;TimelineComponent  -->
<g id="edge10" class="edge"><title>HomeModule&#45;&gt;TimelineComponent </title>
<path fill="none" stroke="black" stroke-dasharray="5,2" d="M551.596,-187.106C551.596,-187.106 551.596,-205.991 551.596,-205.991"/>
<polygon fill="black" stroke="black" points="548.096,-205.991 551.596,-215.991 555.096,-205.991 548.096,-205.991"/>
</g>
<!-- ChatComponent  -->
<g id="node12" class="node"><title>ChatComponent </title>
<polygon fill="#fb8072" stroke="black" points="511.775,-252 400.225,-252 400.225,-216 511.775,-216 511.775,-252"/>
<text text-anchor="middle" x="456" y="-229.8" font-family="Times,serif" font-size="14.00">ChatComponent </text>
</g>
<!-- HomeModule&#45;&gt;ChatComponent  -->
<g id="edge11" class="edge"><title>HomeModule&#45;&gt;ChatComponent </title>
<path fill="none" stroke="black" stroke-dasharray="5,2" d="M495.878,-187.106C495.878,-187.106 495.878,-205.991 495.878,-205.991"/>
<polygon fill="black" stroke="black" points="492.378,-205.991 495.878,-215.991 499.378,-205.991 492.378,-205.991"/>
</g>
<!-- NotificationComponent  -->
<g id="node13" class="node"><title>NotificationComponent </title>
<polygon fill="#fb8072" stroke="black" points="382.483,-252 229.517,-252 229.517,-216 382.483,-216 382.483,-252"/>
<text text-anchor="middle" x="306" y="-229.8" font-family="Times,serif" font-size="14.00">NotificationComponent </text>
</g>
<!-- HomeModule&#45;&gt;NotificationComponent  -->
<g id="edge12" class="edge"><title>HomeModule&#45;&gt;NotificationComponent </title>
<path fill="none" stroke="black" stroke-dasharray="5,2" d="M480.206,-180C414.751,-180 303.781,-180 303.781,-180 303.781,-180 303.781,-205.718 303.781,-205.718"/>
<polygon fill="black" stroke="black" points="300.282,-205.718 303.781,-215.718 307.282,-205.718 300.282,-205.718"/>
</g>
<!-- CommonModule -->
<g id="node6" class="node"><title>CommonModule</title>
<polygon fill="#8dd3c7" stroke="black" points="505.668,-122 502.668,-126 481.668,-126 478.668,-122 394.332,-122 394.332,-86 505.668,-86 505.668,-122"/>
<text text-anchor="middle" x="450" y="-99.8" font-family="Times,serif" font-size="14.00">CommonModule</text>
</g>
<!-- CommonModule&#45;&gt;HomeModule -->
<g id="edge5" class="edge"><title>CommonModule&#45;&gt;HomeModule</title>
<path fill="none" stroke="black" d="M492.976,-122.106C492.976,-122.106 492.976,-140.991 492.976,-140.991"/>
<polygon fill="black" stroke="black" points="489.477,-140.991 492.976,-150.991 496.477,-140.991 489.477,-140.991"/>
</g>
<!-- CarouselModule -->
<g id="node7" class="node"><title>CarouselModule</title>
<polygon fill="#8dd3c7" stroke="black" points="376.812,-122 373.812,-126 352.812,-126 349.812,-122 267.188,-122 267.188,-86 376.812,-86 376.812,-122"/>
<text text-anchor="middle" x="322" y="-99.8" font-family="Times,serif" font-size="14.00">CarouselModule</text>
</g>
<!-- CarouselModule&#45;&gt;HomeModule -->
<g id="edge6" class="edge"><title>CarouselModule&#45;&gt;HomeModule</title>
<path fill="none" stroke="black" d="M340.219,-122.009C340.219,-138.049 340.219,-159 340.219,-159 340.219,-159 469.867,-159 469.867,-159"/>
<polygon fill="black" stroke="black" points="469.867,-162.5 479.867,-159 469.867,-155.5 469.867,-162.5"/>
</g>
<!-- DropdownModule -->
<g id="node8" class="node"><title>DropdownModule</title>
<polygon fill="#8dd3c7" stroke="black" points="249.924,-122 246.924,-126 225.924,-126 222.924,-122 130.076,-122 130.076,-86 249.924,-86 249.924,-122"/>
<text text-anchor="middle" x="190" y="-99.8" font-family="Times,serif" font-size="14.00">DropdownModule</text>
</g>
<!-- DropdownModule&#45;&gt;HomeModule -->
<g id="edge7" class="edge"><title>DropdownModule&#45;&gt;HomeModule</title>
<path fill="none" stroke="black" d="M239.735,-122.267C239.735,-140.555 239.735,-166 239.735,-166 239.735,-166 470.207,-166 470.207,-166"/>
<polygon fill="black" stroke="black" points="470.207,-169.5 480.207,-166 470.207,-162.5 470.207,-169.5"/>
</g>
<!-- AlertModule -->
<g id="node9" class="node"><title>AlertModule</title>
<polygon fill="#8dd3c7" stroke="black" points="112.313,-122 109.313,-126 88.3134,-126 85.3134,-122 23.6866,-122 23.6866,-86 112.313,-86 112.313,-122"/>
<text text-anchor="middle" x="68" y="-99.8" font-family="Times,serif" font-size="14.00">AlertModule</text>
</g>
<!-- AlertModule&#45;&gt;HomeModule -->
<g id="edge8" class="edge"><title>AlertModule&#45;&gt;HomeModule</title>
<path fill="none" stroke="black" d="M68,-122.129C68,-142.572 68,-173 68,-173 68,-173 470.036,-173 470.036,-173"/>
<polygon fill="black" stroke="black" points="470.036,-176.5 480.036,-173 470.036,-169.5 470.036,-176.5"/>
</g>
</g>
</svg>
