<?xml version="1.0" encoding="UTF-8" standalone="no"?>
<!DOCTYPE svg PUBLIC "-//W3C//DTD SVG 1.1//EN"
 "http://www.w3.org/Graphics/SVG/1.1/DTD/svg11.dtd">
<!-- Generated by graphviz version 2.40.1 (20161225.0304)
 -->
<!-- Title: dependencies Pages: 1 -->
<svg width="2890pt" height="284pt"
 viewBox="0.00 0.00 2890.00 284.00" xmlns="http://www.w3.org/2000/svg" xmlns:xlink="http://www.w3.org/1999/xlink">
<g id="graph0" class="graph" transform="scale(1 1) rotate(0) translate(4 280)">
<title>dependencies</title>
<polygon fill="#ffffff" stroke="transparent" points="-4,4 -4,-280 2886,-280 2886,4 -4,4"/>
<text text-anchor="start" x="1420.0091" y="-42.4" font-family="sans-serif" font-weight="bold" font-size="14.00" fill="#000000">Legend</text>
<polygon fill="#ffffb3" stroke="transparent" points="1207,-10 1207,-30 1227,-30 1227,-10 1207,-10"/>
<text text-anchor="start" x="1230.629" y="-15.4" font-family="sans-serif" font-size="14.00" fill="#000000"> &#160;Declarations</text>
<polygon fill="#8dd3c7" stroke="transparent" points="1320,-10 1320,-30 1340,-30 1340,-10 1320,-10"/>
<text text-anchor="start" x="1343.7251" y="-15.4" font-family="sans-serif" font-size="14.00" fill="#000000"> &#160;Module</text>
<polygon fill="#80b1d3" stroke="transparent" points="1406,-10 1406,-30 1426,-30 1426,-10 1406,-10"/>
<text text-anchor="start" x="1429.7812" y="-15.4" font-family="sans-serif" font-size="14.00" fill="#000000"> &#160;Bootstrap</text>
<polygon fill="#fdb462" stroke="transparent" points="1503,-10 1503,-30 1523,-30 1523,-10 1503,-10"/>
<text text-anchor="start" x="1526.6732" y="-15.4" font-family="sans-serif" font-size="14.00" fill="#000000"> &#160;Providers</text>
<polygon fill="#fb8072" stroke="transparent" points="1599,-10 1599,-30 1619,-30 1619,-10 1599,-10"/>
<text text-anchor="start" x="1622.7258" y="-15.4" font-family="sans-serif" font-size="14.00" fill="#000000"> &#160;Exports</text>
<g id="clust1" class="cluster">
<title>cluster_AppModule</title>
<polygon fill="none" stroke="#000000" stroke-dasharray="1,5" points="8,-70 8,-268 2874,-268 2874,-70 8,-70"/>
</g>
<g id="clust2" class="cluster">
<title>cluster_AppModule_declarations</title>
<polygon fill="none" stroke="#000000" points="2744,-78 2744,-130 2866,-130 2866,-78 2744,-78"/>
</g>
<g id="clust4" class="cluster">
<title>cluster_AppModule_imports</title>
<polygon fill="none" stroke="#000000" points="1305,-78 1305,-130 2736,-130 2736,-78 1305,-78"/>
</g>
<g id="clust6" class="cluster">
<title>cluster_AppModule_bootstrap</title>
<polygon fill="none" stroke="#000000" points="1649,-208 1649,-260 1773,-260 1773,-208 1649,-208"/>
</g>
<g id="clust7" class="cluster">
<title>cluster_AppModule_providers</title>
<polygon fill="none" stroke="#000000" points="16,-78 16,-130 1297,-130 1297,-78 16,-78"/>
</g>
<!-- AppComponent -->
<g id="node1" class="node">
<title>AppComponent</title>
<polygon fill="#ffffb3" stroke="#000000" points="2857.9399,-122 2752.0601,-122 2752.0601,-86 2857.9399,-86 2857.9399,-122"/>
<text text-anchor="middle" x="2805" y="-99.8" font-family="Times,serif" font-size="14.00" fill="#000000">AppComponent</text>
</g>
<!-- AppModule -->
<g id="node2" class="node">
<title>AppModule</title>
<polygon fill="#8dd3c7" stroke="#000000" points="1752.6571,-187 1749.6571,-191 1728.6571,-191 1725.6571,-187 1669.3429,-187 1669.3429,-151 1752.6571,-151 1752.6571,-187"/>
<text text-anchor="middle" x="1711" y="-164.8" font-family="Times,serif" font-size="14.00" fill="#000000">AppModule</text>
</g>
<!-- AppComponent&#45;&gt;AppModule -->
<g id="edge1" class="edge">
<title>AppComponent&#45;&gt;AppModule</title>
<path fill="none" stroke="#000000" d="M2805,-122.3228C2805,-145.6602 2805,-183 2805,-183 2805,-183 1762.8824,-183 1762.8824,-183"/>
<polygon fill="#000000" stroke="#000000" points="1762.8824,-179.5001 1752.8824,-183 1762.8824,-186.5001 1762.8824,-179.5001"/>
</g>
<!-- AppComponent  -->
<g id="node12" class="node">
<title>AppComponent </title>
<polygon fill="#80b1d3" stroke="#000000" points="1765.439,-252 1656.561,-252 1656.561,-216 1765.439,-216 1765.439,-252"/>
<text text-anchor="middle" x="1711" y="-229.8" font-family="Times,serif" font-size="14.00" fill="#000000">AppComponent </text>
</g>
<!-- AppModule&#45;&gt;AppComponent  -->
<g id="edge12" class="edge">
<title>AppModule&#45;&gt;AppComponent </title>
<path fill="none" stroke="#000000" stroke-dasharray="1,5" d="M1711,-187.1061C1711,-187.1061 1711,-205.991 1711,-205.991"/>
<polygon fill="#000000" stroke="#000000" points="1707.5001,-205.9909 1711,-215.991 1714.5001,-205.991 1707.5001,-205.9909"/>
</g>
<!-- BrowserModule -->
<g id="node3" class="node">
<title>BrowserModule</title>
<polygon fill="#8dd3c7" stroke="#000000" points="2728.4734,-122 2725.4734,-126 2704.4734,-126 2701.4734,-122 2621.5266,-122 2621.5266,-86 2728.4734,-86 2728.4734,-122"/>
<text text-anchor="middle" x="2675" y="-99.8" font-family="Times,serif" font-size="14.00" fill="#000000">BrowserModule</text>
</g>
<!-- BrowserModule&#45;&gt;AppModule -->
<g id="edge2" class="edge">
<title>BrowserModule&#45;&gt;AppModule</title>
<path fill="none" stroke="#000000" d="M2675,-122.1554C2675,-144.3519 2675,-179 2675,-179 2675,-179 1762.7313,-179 1762.7313,-179"/>
<polygon fill="#000000" stroke="#000000" points="1762.7313,-175.5001 1752.7313,-179 1762.7313,-182.5001 1762.7313,-175.5001"/>
</g>
<!-- FormsModule -->
<g id="node4" class="node">
<title>FormsModule</title>
<polygon fill="#8dd3c7" stroke="#000000" points="2603.8288,-122 2600.8288,-126 2579.8288,-126 2576.8288,-122 2508.1712,-122 2508.1712,-86 2603.8288,-86 2603.8288,-122"/>
<text text-anchor="middle" x="2556" y="-99.8" font-family="Times,serif" font-size="14.00" fill="#000000">FormsModule</text>
</g>
<!-- FormsModule&#45;&gt;AppModule -->
<g id="edge3" class="edge">
<title>FormsModule&#45;&gt;AppModule</title>
<path fill="none" stroke="#000000" d="M2556,-122.2843C2556,-143.3211 2556,-175 2556,-175 2556,-175 1762.9037,-175 1762.9037,-175"/>
<polygon fill="#000000" stroke="#000000" points="1762.9037,-171.5001 1752.9037,-175 1762.9036,-178.5001 1762.9037,-171.5001"/>
</g>
<!-- HttpModule -->
<g id="node5" class="node">
<title>HttpModule</title>
<polygon fill="#8dd3c7" stroke="#000000" points="2490.4387,-122 2487.4387,-126 2466.4387,-126 2463.4387,-122 2405.5613,-122 2405.5613,-86 2490.4387,-86 2490.4387,-122"/>
<text text-anchor="middle" x="2448" y="-99.8" font-family="Times,serif" font-size="14.00" fill="#000000">HttpModule</text>
</g>
<!-- HttpModule&#45;&gt;AppModule -->
<g id="edge4" class="edge">
<title>HttpModule&#45;&gt;AppModule</title>
<path fill="none" stroke="#000000" d="M2448,-122.308C2448,-142.1455 2448,-171 2448,-171 2448,-171 1762.736,-171 1762.736,-171"/>
<polygon fill="#000000" stroke="#000000" points="1762.736,-167.5001 1752.736,-171 1762.7359,-174.5001 1762.736,-167.5001"/>
</g>
<!-- BrowserAnimationsModule -->
<g id="node6" class="node">
<title>BrowserAnimationsModule</title>
<polygon fill="#8dd3c7" stroke="#000000" points="2388.3019,-122 2385.3019,-126 2364.3019,-126 2361.3019,-122 2215.6981,-122 2215.6981,-86 2388.3019,-86 2388.3019,-122"/>
<text text-anchor="middle" x="2302" y="-99.8" font-family="Times,serif" font-size="14.00" fill="#000000">BrowserAnimationsModule</text>
</g>
<!-- BrowserAnimationsModule&#45;&gt;AppModule -->
<g id="edge5" class="edge">
<title>BrowserAnimationsModule&#45;&gt;AppModule</title>
<path fill="none" stroke="#000000" d="M2302,-122.2222C2302,-140.8285 2302,-167 2302,-167 2302,-167 1763.0295,-167 1763.0295,-167"/>
<polygon fill="#000000" stroke="#000000" points="1763.0295,-163.5001 1753.0295,-167 1763.0294,-170.5001 1763.0295,-163.5001"/>
</g>
<!-- AppRoutingModule -->
<g id="node7" class="node">
<title>AppRoutingModule</title>
<polygon fill="#8dd3c7" stroke="#000000" points="2197.2744,-122 2194.2744,-126 2173.2744,-126 2170.2744,-122 2068.7256,-122 2068.7256,-86 2197.2744,-86 2197.2744,-122"/>
<text text-anchor="middle" x="2133" y="-99.8" font-family="Times,serif" font-size="14.00" fill="#000000">AppRoutingModule</text>
</g>
<!-- AppRoutingModule&#45;&gt;AppModule -->
<g id="edge6" class="edge">
<title>AppRoutingModule&#45;&gt;AppModule</title>
<path fill="none" stroke="#000000" d="M2154.4624,-122.0225C2154.4624,-139.3734 2154.4624,-163 2154.4624,-163 2154.4624,-163 1762.7199,-163 1762.7199,-163"/>
<polygon fill="#000000" stroke="#000000" points="1762.7199,-159.5001 1752.7199,-163 1762.7198,-166.5001 1762.7199,-159.5001"/>
</g>
<!-- AppRoutingModule&#45;&gt;AppModule -->
<g id="edge11" class="edge">
<title>AppRoutingModule&#45;&gt;AppModule</title>
<path fill="none" stroke="#000000" d="M2111.5376,-122.0091C2111.5376,-138.0494 2111.5376,-159 2111.5376,-159 2111.5376,-159 1762.731,-159 1762.731,-159"/>
<polygon fill="#000000" stroke="#000000" points="1762.7311,-155.5001 1752.731,-159 1762.731,-162.5001 1762.7311,-155.5001"/>
</g>
<!-- SimpleNotificationsModule.forRoot() -->
<g id="node8" class="node">
<title>SimpleNotificationsModule.forRoot()</title>
<polygon fill="#8dd3c7" stroke="#000000" points="2050.1826,-122 2047.1826,-126 2026.1826,-126 2023.1826,-122 1821.8174,-122 1821.8174,-86 2050.1826,-86 2050.1826,-122"/>
<text text-anchor="middle" x="1936" y="-99.8" font-family="Times,serif" font-size="14.00" fill="#000000">SimpleNotificationsModule.forRoot()</text>
</g>
<!-- SimpleNotificationsModule.forRoot()&#45;&gt;AppModule -->
<g id="edge7" class="edge">
<title>SimpleNotificationsModule.forRoot()&#45;&gt;AppModule</title>
<path fill="none" stroke="#000000" d="M1936,-122.1243C1936,-136.7832 1936,-155 1936,-155 1936,-155 1762.7935,-155 1762.7935,-155"/>
<polygon fill="#000000" stroke="#000000" points="1762.7935,-151.5001 1752.7935,-155 1762.7934,-158.5001 1762.7935,-151.5001"/>
</g>
<!-- SharedPipesModule.forRoot() -->
<g id="node9" class="node">
<title>SharedPipesModule.forRoot()</title>
<polygon fill="#8dd3c7" stroke="#000000" points="1803.6242,-122 1800.6242,-126 1779.6242,-126 1776.6242,-122 1618.3758,-122 1618.3758,-86 1803.6242,-86 1803.6242,-122"/>
<text text-anchor="middle" x="1711" y="-99.8" font-family="Times,serif" font-size="14.00" fill="#000000">SharedPipesModule.forRoot()</text>
</g>
<!-- SharedPipesModule.forRoot()&#45;&gt;AppModule -->
<g id="edge8" class="edge">
<title>SharedPipesModule.forRoot()&#45;&gt;AppModule</title>
<path fill="none" stroke="#000000" d="M1711,-122.1061C1711,-122.1061 1711,-140.991 1711,-140.991"/>
<polygon fill="#000000" stroke="#000000" points="1707.5001,-140.9909 1711,-150.991 1714.5001,-140.991 1707.5001,-140.9909"/>
</g>
<!-- TranslateModule.forRoot(args) -->
<g id="node10" class="node">
<title>TranslateModule.forRoot(args)</title>
<polygon fill="#8dd3c7" stroke="#000000" points="1600.8223,-122 1597.8223,-126 1576.8223,-126 1573.8223,-122 1409.1777,-122 1409.1777,-86 1600.8223,-86 1600.8223,-122"/>
<text text-anchor="middle" x="1505" y="-99.8" font-family="Times,serif" font-size="14.00" fill="#000000">TranslateModule.forRoot(args)</text>
</g>
<!-- TranslateModule.forRoot(args)&#45;&gt;AppModule -->
<g id="edge9" class="edge">
<title>TranslateModule.forRoot(args)&#45;&gt;AppModule</title>
<path fill="none" stroke="#000000" d="M1505,-122.1243C1505,-136.7832 1505,-155 1505,-155 1505,-155 1659.3128,-155 1659.3128,-155"/>
<polygon fill="#000000" stroke="#000000" points="1659.3129,-158.5001 1669.3128,-155 1659.3128,-151.5001 1659.3129,-158.5001"/>
</g>
<!-- FmModule -->
<g id="node11" class="node">
<title>FmModule</title>
<polygon fill="#8dd3c7" stroke="#000000" points="1391.2233,-122 1388.2233,-126 1367.2233,-126 1364.2233,-122 1312.7767,-122 1312.7767,-86 1391.2233,-86 1391.2233,-122"/>
<text text-anchor="middle" x="1352" y="-99.8" font-family="Times,serif" font-size="14.00" fill="#000000">FmModule</text>
</g>
<!-- FmModule&#45;&gt;AppModule -->
<g id="edge10" class="edge">
<title>FmModule&#45;&gt;AppModule</title>
<path fill="none" stroke="#000000" d="M1352,-122.0091C1352,-138.0494 1352,-159 1352,-159 1352,-159 1659.1155,-159 1659.1155,-159"/>
<polygon fill="#000000" stroke="#000000" points="1659.1156,-162.5001 1669.1155,-159 1659.1155,-155.5001 1659.1156,-162.5001"/>
</g>
<!-- AuthenticationService -->
<g id="node13" class="node">
<title>AuthenticationService</title>
<ellipse fill="#fdb462" stroke="#000000" cx="1192" cy="-104" rx="97.2683" ry="18"/>
<text text-anchor="middle" x="1192" y="-99.8" font-family="Times,serif" font-size="14.00" fill="#000000">AuthenticationService</text>
</g>
<!-- AuthenticationService&#45;&gt;AppModule -->
<g id="edge13" class="edge">
<title>AuthenticationService&#45;&gt;AppModule</title>
<path fill="none" stroke="#000000" d="M1192,-122.0225C1192,-139.3734 1192,-163 1192,-163 1192,-163 1658.9677,-163 1658.9677,-163"/>
<polygon fill="#000000" stroke="#000000" points="1658.9677,-166.5001 1668.9677,-163 1658.9676,-159.5001 1658.9677,-166.5001"/>
</g>
<!-- JobsStore -->
<g id="node14" class="node">
<title>JobsStore</title>
<ellipse fill="#fdb462" stroke="#000000" cx="1028" cy="-104" rx="48.6733" ry="18"/>
<text text-anchor="middle" x="1028" y="-99.8" font-family="Times,serif" font-size="14.00" fill="#000000">JobsStore</text>
</g>
<!-- JobsStore&#45;&gt;AppModule -->
<g id="edge14" class="edge">
<title>JobsStore&#45;&gt;AppModule</title>
<path fill="none" stroke="#000000" d="M1028,-122.2222C1028,-140.8285 1028,-167 1028,-167 1028,-167 1659.3034,-167 1659.3034,-167"/>
<polygon fill="#000000" stroke="#000000" points="1659.3035,-170.5001 1669.3034,-167 1659.3034,-163.5001 1659.3035,-170.5001"/>
</g>
<!-- OarApiService -->
<g id="node15" class="node">
<title>OarApiService</title>
<ellipse fill="#fdb462" stroke="#000000" cx="892" cy="-104" rx="68.8965" ry="18"/>
<text text-anchor="middle" x="892" y="-99.8" font-family="Times,serif" font-size="14.00" fill="#000000">OarApiService</text>
</g>
<!-- OarApiService&#45;&gt;AppModule -->
<g id="edge15" class="edge">
<title>OarApiService&#45;&gt;AppModule</title>
<path fill="none" stroke="#000000" d="M892,-122.308C892,-142.1455 892,-171 892,-171 892,-171 1659.2597,-171 1659.2597,-171"/>
<polygon fill="#000000" stroke="#000000" points="1659.2597,-174.5001 1669.2597,-171 1659.2597,-167.5001 1659.2597,-174.5001"/>
</g>
<!-- UserConfigStore -->
<g id="node16" class="node">
<title>UserConfigStore</title>
<ellipse fill="#fdb462" stroke="#000000" cx="729" cy="-104" rx="76.442" ry="18"/>
<text text-anchor="middle" x="729" y="-99.8" font-family="Times,serif" font-size="14.00" fill="#000000">UserConfigStore</text>
</g>
<!-- UserConfigStore&#45;&gt;AppModule -->
<g id="edge16" class="edge">
<title>UserConfigStore&#45;&gt;AppModule</title>
<path fill="none" stroke="#000000" d="M729,-122.2843C729,-143.3211 729,-175 729,-175 729,-175 1659.1188,-175 1659.1188,-175"/>
<polygon fill="#000000" stroke="#000000" points="1659.1189,-178.5001 1669.1188,-175 1659.1188,-171.5001 1659.1189,-178.5001"/>
</g>
<!-- AuthGuard -->
<g id="node17" class="node">
<title>AuthGuard</title>
<ellipse fill="#fdb462" stroke="#000000" cx="580" cy="-104" rx="54.4566" ry="18"/>
<text text-anchor="middle" x="580" y="-99.8" font-family="Times,serif" font-size="14.00" fill="#000000">AuthGuard</text>
</g>
<!-- AuthGuard&#45;&gt;AppModule -->
<g id="edge17" class="edge">
<title>AuthGuard&#45;&gt;AppModule</title>
<path fill="none" stroke="#000000" d="M580,-122.1554C580,-144.3519 580,-179 580,-179 580,-179 1659.0673,-179 1659.0673,-179"/>
<polygon fill="#000000" stroke="#000000" points="1659.0674,-182.5001 1669.0673,-179 1659.0673,-175.5001 1659.0674,-182.5001"/>
</g>
<!-- { provide: XHRBackend, useClass: CustomXHRBackend } -->
<g id="node18" class="node">
<title>{ provide: XHRBackend, useClass: CustomXHRBackend }</title>
<ellipse fill="#fdb462" stroke="#000000" cx="266" cy="-104" rx="241.6712" ry="18"/>
<text text-anchor="middle" x="266" y="-99.8" font-family="Times,serif" font-size="14.00" fill="#000000">{ provide: XHRBackend, useClass: CustomXHRBackend }</text>
</g>
<!-- { provide: XHRBackend, useClass: CustomXHRBackend }&#45;&gt;AppModule -->
<g id="edge18" class="edge">
<title>{ provide: XHRBackend, useClass: CustomXHRBackend }&#45;&gt;AppModule</title>
<path fill="none" stroke="#000000" d="M266,-122.3228C266,-145.6602 266,-183 266,-183 266,-183 1659.3123,-183 1659.3123,-183"/>
<polygon fill="#000000" stroke="#000000" points="1659.3124,-186.5001 1669.3123,-183 1659.3123,-179.5001 1659.3124,-186.5001"/>
</g>
</g>
</svg>
