<?xml version="1.0" encoding="UTF-8" standalone="no"?>
<!DOCTYPE svg PUBLIC "-//W3C//DTD SVG 1.1//EN"
 "http://www.w3.org/Graphics/SVG/1.1/DTD/svg11.dtd">
<!-- Generated by graphviz version 2.40.1 (20161225.0304)
 -->
<!-- Title: dependencies Pages: 1 -->
<svg width="1748pt" height="284pt"
 viewBox="0.00 0.00 1748.00 284.00" xmlns="http://www.w3.org/2000/svg" xmlns:xlink="http://www.w3.org/1999/xlink">
<g id="graph0" class="graph" transform="scale(1 1) rotate(0) translate(4 280)">
<title>dependencies</title>
<polygon fill="#ffffff" stroke="transparent" points="-4,4 -4,-280 1744,-280 1744,4 -4,4"/>
<text text-anchor="start" x="849.0091" y="-42.4" font-family="sans-serif" font-weight="bold" font-size="14.00" fill="#000000">Legend</text>
<polygon fill="#ffffb3" stroke="transparent" points="636,-10 636,-30 656,-30 656,-10 636,-10"/>
<text text-anchor="start" x="659.629" y="-15.4" font-family="sans-serif" font-size="14.00" fill="#000000"> &#160;Declarations</text>
<polygon fill="#8dd3c7" stroke="transparent" points="749,-10 749,-30 769,-30 769,-10 749,-10"/>
<text text-anchor="start" x="772.7251" y="-15.4" font-family="sans-serif" font-size="14.00" fill="#000000"> &#160;Module</text>
<polygon fill="#80b1d3" stroke="transparent" points="835,-10 835,-30 855,-30 855,-10 835,-10"/>
<text text-anchor="start" x="858.7812" y="-15.4" font-family="sans-serif" font-size="14.00" fill="#000000"> &#160;Bootstrap</text>
<polygon fill="#fdb462" stroke="transparent" points="932,-10 932,-30 952,-30 952,-10 932,-10"/>
<text text-anchor="start" x="955.6732" y="-15.4" font-family="sans-serif" font-size="14.00" fill="#000000"> &#160;Providers</text>
<polygon fill="#fb8072" stroke="transparent" points="1028,-10 1028,-30 1048,-30 1048,-10 1028,-10"/>
<text text-anchor="start" x="1051.7258" y="-15.4" font-family="sans-serif" font-size="14.00" fill="#000000"> &#160;Exports</text>
<g id="clust1" class="cluster">
<title>cluster_AppModule</title>
<polygon fill="none" stroke="#000000" stroke-dasharray="1,5" points="8,-70 8,-268 1732,-268 1732,-70 8,-70"/>
</g>
<g id="clust2" class="cluster">
<title>cluster_AppModule_declarations</title>
<polygon fill="none" stroke="#000000" points="1602,-78 1602,-130 1724,-130 1724,-78 1602,-78"/>
</g>
<g id="clust4" class="cluster">
<title>cluster_AppModule_imports</title>
<polygon fill="none" stroke="#000000" points="803,-78 803,-130 1594,-130 1594,-78 803,-78"/>
</g>
<g id="clust6" class="cluster">
<title>cluster_AppModule_bootstrap</title>
<polygon fill="none" stroke="#000000" points="941,-208 941,-260 1065,-260 1065,-208 941,-208"/>
</g>
<g id="clust7" class="cluster">
<title>cluster_AppModule_providers</title>
<polygon fill="none" stroke="#000000" points="16,-78 16,-130 795,-130 795,-78 16,-78"/>
</g>
<!-- AppComponent -->
<g id="node1" class="node">
<title>AppComponent</title>
<polygon fill="#ffffb3" stroke="#000000" points="1715.9399,-122 1610.0601,-122 1610.0601,-86 1715.9399,-86 1715.9399,-122"/>
<text text-anchor="middle" x="1663" y="-99.8" font-family="Times,serif" font-size="14.00" fill="#000000">AppComponent</text>
</g>
<!-- AppModule -->
<g id="node2" class="node">
<title>AppModule</title>
<polygon fill="#8dd3c7" stroke="#000000" points="1044.6571,-187 1041.6571,-191 1020.6571,-191 1017.6571,-187 961.3429,-187 961.3429,-151 1044.6571,-151 1044.6571,-187"/>
<text text-anchor="middle" x="1003" y="-164.8" font-family="Times,serif" font-size="14.00" fill="#000000">AppModule</text>
</g>
<!-- AppComponent&#45;&gt;AppModule -->
<g id="edge1" class="edge">
<title>AppComponent&#45;&gt;AppModule</title>
<path fill="none" stroke="#000000" d="M1663,-122.0908C1663,-145.1328 1663,-182 1663,-182 1663,-182 1054.7867,-182 1054.7867,-182"/>
<polygon fill="#000000" stroke="#000000" points="1054.7867,-178.5001 1044.7867,-182 1054.7866,-185.5001 1054.7867,-178.5001"/>
</g>
<!-- AppComponent  -->
<g id="node9" class="node">
<title>AppComponent </title>
<polygon fill="#80b1d3" stroke="#000000" points="1057.439,-252 948.561,-252 948.561,-216 1057.439,-216 1057.439,-252"/>
<text text-anchor="middle" x="1003" y="-229.8" font-family="Times,serif" font-size="14.00" fill="#000000">AppComponent </text>
</g>
<!-- AppModule&#45;&gt;AppComponent  -->
<g id="edge9" class="edge">
<title>AppModule&#45;&gt;AppComponent </title>
<path fill="none" stroke="#000000" stroke-dasharray="1,5" d="M1003,-187.1061C1003,-187.1061 1003,-205.991 1003,-205.991"/>
<polygon fill="#000000" stroke="#000000" points="999.5001,-205.9909 1003,-215.991 1006.5001,-205.991 999.5001,-205.9909"/>
</g>
<!-- BrowserModule -->
<g id="node3" class="node">
<title>BrowserModule</title>
<polygon fill="#8dd3c7" stroke="#000000" points="1586.4734,-122 1583.4734,-126 1562.4734,-126 1559.4734,-122 1479.5266,-122 1479.5266,-86 1586.4734,-86 1586.4734,-122"/>
<text text-anchor="middle" x="1533" y="-99.8" font-family="Times,serif" font-size="14.00" fill="#000000">BrowserModule</text>
</g>
<!-- BrowserModule&#45;&gt;AppModule -->
<g id="edge2" class="edge">
<title>BrowserModule&#45;&gt;AppModule</title>
<path fill="none" stroke="#000000" d="M1533,-122.0449C1533,-143.6623 1533,-177 1533,-177 1533,-177 1055.0312,-177 1055.0312,-177"/>
<polygon fill="#000000" stroke="#000000" points="1055.0313,-173.5001 1045.0312,-177 1055.0312,-180.5001 1055.0313,-173.5001"/>
</g>
<!-- FormsModule -->
<g id="node4" class="node">
<title>FormsModule</title>
<polygon fill="#8dd3c7" stroke="#000000" points="1461.8288,-122 1458.8288,-126 1437.8288,-126 1434.8288,-122 1366.1712,-122 1366.1712,-86 1461.8288,-86 1461.8288,-122"/>
<text text-anchor="middle" x="1414" y="-99.8" font-family="Times,serif" font-size="14.00" fill="#000000">FormsModule</text>
</g>
<!-- FormsModule&#45;&gt;AppModule -->
<g id="edge3" class="edge">
<title>FormsModule&#45;&gt;AppModule</title>
<path fill="none" stroke="#000000" d="M1414,-122.2228C1414,-142.3652 1414,-172 1414,-172 1414,-172 1054.6707,-172 1054.6707,-172"/>
<polygon fill="#000000" stroke="#000000" points="1054.6707,-168.5001 1044.6707,-172 1054.6706,-175.5001 1054.6707,-168.5001"/>
</g>
<!-- HttpModule -->
<g id="node5" class="node">
<title>HttpModule</title>
<polygon fill="#8dd3c7" stroke="#000000" points="1348.4387,-122 1345.4387,-126 1324.4387,-126 1321.4387,-122 1263.5613,-122 1263.5613,-86 1348.4387,-86 1348.4387,-122"/>
<text text-anchor="middle" x="1306" y="-99.8" font-family="Times,serif" font-size="14.00" fill="#000000">HttpModule</text>
</g>
<!-- HttpModule&#45;&gt;AppModule -->
<g id="edge4" class="edge">
<title>HttpModule&#45;&gt;AppModule</title>
<path fill="none" stroke="#000000" d="M1306,-122.2222C1306,-140.8285 1306,-167 1306,-167 1306,-167 1054.8127,-167 1054.8127,-167"/>
<polygon fill="#000000" stroke="#000000" points="1054.8128,-163.5001 1044.8127,-167 1054.8127,-170.5001 1054.8128,-163.5001"/>
</g>
<!-- AppRoutingModule -->
<g id="node6" class="node">
<title>AppRoutingModule</title>
<polygon fill="#8dd3c7" stroke="#000000" points="1245.2744,-122 1242.2744,-126 1221.2744,-126 1218.2744,-122 1116.7256,-122 1116.7256,-86 1245.2744,-86 1245.2744,-122"/>
<text text-anchor="middle" x="1181" y="-99.8" font-family="Times,serif" font-size="14.00" fill="#000000">AppRoutingModule</text>
</g>
<!-- AppRoutingModule&#45;&gt;AppModule -->
<g id="edge5" class="edge">
<title>AppRoutingModule&#45;&gt;AppModule</title>
<path fill="none" stroke="#000000" d="M1159.5376,-122.2396C1159.5376,-137.5706 1159.5376,-157 1159.5376,-157 1159.5376,-157 1054.9492,-157 1054.9492,-157"/>
<polygon fill="#000000" stroke="#000000" points="1054.9492,-153.5001 1044.9492,-157 1054.9492,-160.5001 1054.9492,-153.5001"/>
</g>
<!-- AppRoutingModule&#45;&gt;AppModule -->
<g id="edge8" class="edge">
<title>AppRoutingModule&#45;&gt;AppModule</title>
<path fill="none" stroke="#000000" d="M1202.4624,-122.0336C1202.4624,-139.0597 1202.4624,-162 1202.4624,-162 1202.4624,-162 1054.8138,-162 1054.8138,-162"/>
<polygon fill="#000000" stroke="#000000" points="1054.8139,-158.5001 1044.8138,-162 1054.8138,-165.5001 1054.8139,-158.5001"/>
</g>
<!-- TranslateModule.forRoot(args) -->
<g id="node7" class="node">
<title>TranslateModule.forRoot(args)</title>
<polygon fill="#8dd3c7" stroke="#000000" points="1098.8223,-122 1095.8223,-126 1074.8223,-126 1071.8223,-122 907.1777,-122 907.1777,-86 1098.8223,-86 1098.8223,-122"/>
<text text-anchor="middle" x="1003" y="-99.8" font-family="Times,serif" font-size="14.00" fill="#000000">TranslateModule.forRoot(args)</text>
</g>
<!-- TranslateModule.forRoot(args)&#45;&gt;AppModule -->
<g id="edge6" class="edge">
<title>TranslateModule.forRoot(args)&#45;&gt;AppModule</title>
<path fill="none" stroke="#000000" d="M1003,-122.1061C1003,-122.1061 1003,-140.991 1003,-140.991"/>
<polygon fill="#000000" stroke="#000000" points="999.5001,-140.9909 1003,-150.991 1006.5001,-140.991 999.5001,-140.9909"/>
</g>
<!-- FmModule -->
<g id="node8" class="node">
<title>FmModule</title>
<polygon fill="#8dd3c7" stroke="#000000" points="889.2233,-122 886.2233,-126 865.2233,-126 862.2233,-122 810.7767,-122 810.7767,-86 889.2233,-86 889.2233,-122"/>
<text text-anchor="middle" x="850" y="-99.8" font-family="Times,serif" font-size="14.00" fill="#000000">FmModule</text>
</g>
<!-- FmModule&#45;&gt;AppModule -->
<g id="edge7" class="edge">
<title>FmModule&#45;&gt;AppModule</title>
<path fill="none" stroke="#000000" d="M850,-122.2396C850,-137.5706 850,-157 850,-157 850,-157 951.1921,-157 951.1921,-157"/>
<polygon fill="#000000" stroke="#000000" points="951.1921,-160.5001 961.1921,-157 951.192,-153.5001 951.1921,-160.5001"/>
</g>
<!-- AuthenticationService -->
<g id="node10" class="node">
<title>AuthenticationService</title>
<ellipse fill="#fdb462" stroke="#000000" cx="690" cy="-104" rx="97.2683" ry="18"/>
<text text-anchor="middle" x="690" y="-99.8" font-family="Times,serif" font-size="14.00" fill="#000000">AuthenticationService</text>
</g>
<!-- AuthenticationService&#45;&gt;AppModule -->
<g id="edge10" class="edge">
<title>AuthenticationService&#45;&gt;AppModule</title>
<path fill="none" stroke="#000000" d="M690,-122.0336C690,-139.0597 690,-162 690,-162 690,-162 951.1122,-162 951.1122,-162"/>
<polygon fill="#000000" stroke="#000000" points="951.1122,-165.5001 961.1122,-162 951.1122,-158.5001 951.1122,-165.5001"/>
</g>
<!-- JobsStore -->
<g id="node11" class="node">
<title>JobsStore</title>
<ellipse fill="#fdb462" stroke="#000000" cx="526" cy="-104" rx="48.6733" ry="18"/>
<text text-anchor="middle" x="526" y="-99.8" font-family="Times,serif" font-size="14.00" fill="#000000">JobsStore</text>
</g>
<!-- JobsStore&#45;&gt;AppModule -->
<g id="edge11" class="edge">
<title>JobsStore&#45;&gt;AppModule</title>
<path fill="none" stroke="#000000" d="M526,-122.2222C526,-140.8285 526,-167 526,-167 526,-167 951.0875,-167 951.0875,-167"/>
<polygon fill="#000000" stroke="#000000" points="951.0875,-170.5001 961.0875,-167 951.0875,-163.5001 951.0875,-170.5001"/>
</g>
<!-- OarApiService -->
<g id="node12" class="node">
<title>OarApiService</title>
<ellipse fill="#fdb462" stroke="#000000" cx="390" cy="-104" rx="68.8965" ry="18"/>
<text text-anchor="middle" x="390" y="-99.8" font-family="Times,serif" font-size="14.00" fill="#000000">OarApiService</text>
</g>
<!-- OarApiService&#45;&gt;AppModule -->
<g id="edge12" class="edge">
<title>OarApiService&#45;&gt;AppModule</title>
<path fill="none" stroke="#000000" d="M390,-122.2228C390,-142.3652 390,-172 390,-172 390,-172 950.866,-172 950.866,-172"/>
<polygon fill="#000000" stroke="#000000" points="950.8661,-175.5001 960.866,-172 950.866,-168.5001 950.8661,-175.5001"/>
</g>
<!-- UserConfigStore -->
<g id="node13" class="node">
<title>UserConfigStore</title>
<ellipse fill="#fdb462" stroke="#000000" cx="227" cy="-104" rx="76.442" ry="18"/>
<text text-anchor="middle" x="227" y="-99.8" font-family="Times,serif" font-size="14.00" fill="#000000">UserConfigStore</text>
</g>
<!-- UserConfigStore&#45;&gt;AppModule -->
<g id="edge13" class="edge">
<title>UserConfigStore&#45;&gt;AppModule</title>
<path fill="none" stroke="#000000" d="M227,-122.0449C227,-143.6623 227,-177 227,-177 227,-177 951.2789,-177 951.2789,-177"/>
<polygon fill="#000000" stroke="#000000" points="951.2789,-180.5001 961.2789,-177 951.2788,-173.5001 951.2789,-180.5001"/>
</g>
<!-- AuthGuard -->
<g id="node14" class="node">
<title>AuthGuard</title>
<ellipse fill="#fdb462" stroke="#000000" cx="78" cy="-104" rx="54.4566" ry="18"/>
<text text-anchor="middle" x="78" y="-99.8" font-family="Times,serif" font-size="14.00" fill="#000000">AuthGuard</text>
</g>
<!-- AuthGuard&#45;&gt;AppModule -->
<g id="edge14" class="edge">
<title>AuthGuard&#45;&gt;AppModule</title>
<path fill="none" stroke="#000000" d="M78,-122.0908C78,-145.1328 78,-182 78,-182 78,-182 951.1549,-182 951.1549,-182"/>
<polygon fill="#000000" stroke="#000000" points="951.1549,-185.5001 961.1549,-182 951.1548,-178.5001 951.1549,-185.5001"/>
</g>
</g>
</svg>
