<?xml version="1.0" encoding="UTF-8" standalone="no"?>
<!DOCTYPE svg PUBLIC "-//W3C//DTD SVG 1.1//EN"
 "http://www.w3.org/Graphics/SVG/1.1/DTD/svg11.dtd">
<!-- Generated by graphviz version 2.38.0 (20140413.2041)
 -->
<!-- Title: dependencies Pages: 1 -->
<svg width="1699pt" height="284pt"
 viewBox="0.00 0.00 1699.00 284.00" xmlns="http://www.w3.org/2000/svg" xmlns:xlink="http://www.w3.org/1999/xlink">
<g id="graph0" class="graph" transform="scale(1 1) rotate(0) translate(4 280)">
<title>dependencies</title>
<polygon fill="white" stroke="none" points="-4,4 -4,-280 1695,-280 1695,4 -4,4"/>
<text text-anchor="start" x="824.509" y="-42.4" font-family="sans-serif" font-weight="bold" font-size="14.00">Legend</text>
<polygon fill="#ffffb3" stroke="none" points="611.5,-10 611.5,-30 631.5,-30 631.5,-10 611.5,-10"/>
<text text-anchor="start" x="635.129" y="-15.4" font-family="sans-serif" font-size="14.00"> &#160;Declarations</text>
<polygon fill="#8dd3c7" stroke="none" points="724.5,-10 724.5,-30 744.5,-30 744.5,-10 724.5,-10"/>
<text text-anchor="start" x="748.225" y="-15.4" font-family="sans-serif" font-size="14.00"> &#160;Module</text>
<polygon fill="#80b1d3" stroke="none" points="810.5,-10 810.5,-30 830.5,-30 830.5,-10 810.5,-10"/>
<text text-anchor="start" x="834.281" y="-15.4" font-family="sans-serif" font-size="14.00"> &#160;Bootstrap</text>
<polygon fill="#fdb462" stroke="none" points="907.5,-10 907.5,-30 927.5,-30 927.5,-10 907.5,-10"/>
<text text-anchor="start" x="931.173" y="-15.4" font-family="sans-serif" font-size="14.00"> &#160;Providers</text>
<polygon fill="#fb8072" stroke="none" points="1003.5,-10 1003.5,-30 1023.5,-30 1023.5,-10 1003.5,-10"/>
<text text-anchor="start" x="1027.23" y="-15.4" font-family="sans-serif" font-size="14.00"> &#160;Exports</text>
<g id="clust1" class="cluster"><title>cluster_AppModule</title>
<polygon fill="none" stroke="black" stroke-dasharray="1,5" points="8,-70 8,-268 1683,-268 1683,-70 8,-70"/>
</g>
<g id="clust2" class="cluster"><title>cluster_AppModule_declarations</title>
<polygon fill="none" stroke="black" points="1553,-78 1553,-130 1675,-130 1675,-78 1553,-78"/>
</g>
<g id="clust4" class="cluster"><title>cluster_AppModule_imports</title>
<polygon fill="none" stroke="black" points="586,-78 586,-130 1545,-130 1545,-78 586,-78"/>
</g>
<g id="clust6" class="cluster"><title>cluster_AppModule_bootstrap</title>
<polygon fill="none" stroke="black" points="1006,-208 1006,-260 1130,-260 1130,-208 1006,-208"/>
</g>
<g id="clust7" class="cluster"><title>cluster_AppModule_providers</title>
<polygon fill="none" stroke="black" points="16,-78 16,-130 578,-130 578,-78 16,-78"/>
</g>
<!-- AppComponent -->
<g id="node1" class="node"><title>AppComponent</title>
<polygon fill="#ffffb3" stroke="black" points="1666.94,-122 1561.06,-122 1561.06,-86 1666.94,-86 1666.94,-122"/>
<text text-anchor="middle" x="1614" y="-99.8" font-family="Times,serif" font-size="14.00">AppComponent</text>
</g>
<!-- AppModule -->
<g id="node2" class="node"><title>AppModule</title>
<polygon fill="#8dd3c7" stroke="black" points="1109.66,-187 1106.66,-191 1085.66,-191 1082.66,-187 1026.34,-187 1026.34,-151 1109.66,-151 1109.66,-187"/>
<text text-anchor="middle" x="1068" y="-164.8" font-family="Times,serif" font-size="14.00">AppModule</text>
</g>
<!-- AppComponent&#45;&gt;AppModule -->
<g id="edge1" class="edge"><title>AppComponent&#45;&gt;AppModule</title>
<path fill="none" stroke="black" d="M1614,-122.011C1614,-144.485 1614,-180 1614,-180 1614,-180 1119.94,-180 1119.94,-180"/>
<polygon fill="black" stroke="black" points="1119.94,-176.5 1109.94,-180 1119.94,-183.5 1119.94,-176.5"/>
</g>
<!-- AppComponent  -->
<g id="node10" class="node"><title>AppComponent </title>
<polygon fill="#80b1d3" stroke="black" points="1122.44,-252 1013.56,-252 1013.56,-216 1122.44,-216 1122.44,-252"/>
<text text-anchor="middle" x="1068" y="-229.8" font-family="Times,serif" font-size="14.00">AppComponent </text>
</g>
<!-- AppModule&#45;&gt;AppComponent  -->
<g id="edge9" class="edge"><title>AppModule&#45;&gt;AppComponent </title>
<path fill="none" stroke="black" stroke-dasharray="1,5" d="M1068,-187.106C1068,-187.106 1068,-205.991 1068,-205.991"/>
<polygon fill="black" stroke="black" points="1064.5,-205.991 1068,-215.991 1071.5,-205.991 1064.5,-205.991"/>
</g>
<!-- BrowserModule -->
<g id="node3" class="node"><title>BrowserModule</title>
<polygon fill="#8dd3c7" stroke="black" points="1537.47,-122 1534.47,-126 1513.47,-126 1510.47,-122 1430.53,-122 1430.53,-86 1537.47,-86 1537.47,-122"/>
<text text-anchor="middle" x="1484" y="-99.8" font-family="Times,serif" font-size="14.00">BrowserModule</text>
</g>
<!-- BrowserModule&#45;&gt;AppModule -->
<g id="edge2" class="edge"><title>BrowserModule&#45;&gt;AppModule</title>
<path fill="none" stroke="black" d="M1484,-122.129C1484,-142.572 1484,-173 1484,-173 1484,-173 1119.79,-173 1119.79,-173"/>
<polygon fill="black" stroke="black" points="1119.79,-169.5 1109.79,-173 1119.79,-176.5 1119.79,-169.5"/>
</g>
<!-- HttpModule -->
<g id="node4" class="node"><title>HttpModule</title>
<polygon fill="#8dd3c7" stroke="black" points="1412.44,-122 1409.44,-126 1388.44,-126 1385.44,-122 1327.56,-122 1327.56,-86 1412.44,-86 1412.44,-122"/>
<text text-anchor="middle" x="1370" y="-99.8" font-family="Times,serif" font-size="14.00">HttpModule</text>
</g>
<!-- HttpModule&#45;&gt;AppModule -->
<g id="edge3" class="edge"><title>HttpModule&#45;&gt;AppModule</title>
<path fill="none" stroke="black" d="M1370,-122.267C1370,-140.555 1370,-166 1370,-166 1370,-166 1119.67,-166 1119.67,-166"/>
<polygon fill="black" stroke="black" points="1119.67,-162.5 1109.67,-166 1119.67,-169.5 1119.67,-162.5"/>
</g>
<!-- RouterModule.forRoot(args) -->
<g id="node5" class="node"><title>RouterModule.forRoot(args)</title>
<polygon fill="#8dd3c7" stroke="black" points="1309.84,-122 1306.84,-126 1285.84,-126 1282.84,-122 1132.16,-122 1132.16,-86 1309.84,-86 1309.84,-122"/>
<text text-anchor="middle" x="1221" y="-99.8" font-family="Times,serif" font-size="14.00">RouterModule.forRoot(args)</text>
</g>
<!-- RouterModule.forRoot(args)&#45;&gt;AppModule -->
<g id="edge4" class="edge"><title>RouterModule.forRoot(args)&#45;&gt;AppModule</title>
<path fill="none" stroke="black" d="M1221,-122.009C1221,-138.049 1221,-159 1221,-159 1221,-159 1119.81,-159 1119.81,-159"/>
<polygon fill="black" stroke="black" points="1119.81,-155.5 1109.81,-159 1119.81,-162.5 1119.81,-155.5"/>
</g>
<!-- LoginModule -->
<g id="node6" class="node"><title>LoginModule</title>
<polygon fill="#8dd3c7" stroke="black" points="1114.49,-122 1111.49,-126 1090.49,-126 1087.49,-122 1021.51,-122 1021.51,-86 1114.49,-86 1114.49,-122"/>
<text text-anchor="middle" x="1068" y="-99.8" font-family="Times,serif" font-size="14.00">LoginModule</text>
</g>
<!-- LoginModule&#45;&gt;AppModule -->
<g id="edge5" class="edge"><title>LoginModule&#45;&gt;AppModule</title>
<path fill="none" stroke="black" d="M1068,-122.106C1068,-122.106 1068,-140.991 1068,-140.991"/>
<polygon fill="black" stroke="black" points="1064.5,-140.991 1068,-150.991 1071.5,-140.991 1064.5,-140.991"/>
</g>
<!-- SignupModule -->
<g id="node7" class="node"><title>SignupModule</title>
<polygon fill="#8dd3c7" stroke="black" points="1003.72,-122 1000.72,-126 979.723,-126 976.723,-122 904.277,-122 904.277,-86 1003.72,-86 1003.72,-122"/>
<text text-anchor="middle" x="954" y="-99.8" font-family="Times,serif" font-size="14.00">SignupModule</text>
</g>
<!-- SignupModule&#45;&gt;AppModule -->
<g id="edge6" class="edge"><title>SignupModule&#45;&gt;AppModule</title>
<path fill="none" stroke="black" d="M954,-122.009C954,-138.049 954,-159 954,-159 954,-159 1016.2,-159 1016.2,-159"/>
<polygon fill="black" stroke="black" points="1016.2,-162.5 1026.2,-159 1016.2,-155.5 1016.2,-162.5"/>
</g>
<!-- DashboardModule -->
<g id="node8" class="node"><title>DashboardModule</title>
<polygon fill="#8dd3c7" stroke="black" points="886.191,-122 883.191,-126 862.191,-126 859.191,-122 765.809,-122 765.809,-86 886.191,-86 886.191,-122"/>
<text text-anchor="middle" x="826" y="-99.8" font-family="Times,serif" font-size="14.00">DashboardModule</text>
</g>
<!-- DashboardModule&#45;&gt;AppModule -->
<g id="edge7" class="edge"><title>DashboardModule&#45;&gt;AppModule</title>
<path fill="none" stroke="black" d="M826,-122.267C826,-140.555 826,-166 826,-166 826,-166 1016.12,-166 1016.12,-166"/>
<polygon fill="black" stroke="black" points="1016.12,-169.5 1026.12,-166 1016.12,-162.5 1016.12,-169.5"/>
</g>
<!-- SharedModule.forRoot() -->
<g id="node9" class="node"><title>SharedModule.forRoot()</title>
<polygon fill="#8dd3c7" stroke="black" points="748.292,-122 745.292,-126 724.292,-126 721.292,-122 593.708,-122 593.708,-86 748.292,-86 748.292,-122"/>
<text text-anchor="middle" x="671" y="-99.8" font-family="Times,serif" font-size="14.00">SharedModule.forRoot()</text>
</g>
<!-- SharedModule.forRoot()&#45;&gt;AppModule -->
<g id="edge8" class="edge"><title>SharedModule.forRoot()&#45;&gt;AppModule</title>
<path fill="none" stroke="black" d="M671,-122.129C671,-142.572 671,-173 671,-173 671,-173 1016.26,-173 1016.26,-173"/>
<polygon fill="black" stroke="black" points="1016.26,-176.5 1026.26,-173 1016.26,-169.5 1016.26,-176.5"/>
</g>
<!-- { provide: APP_BASE_HREF, useValue: &#39;&lt;%= APP_BASE %&gt;&#39; } -->
<g id="node11" class="node"><title>{ provide: APP_BASE_HREF, useValue: &#39;&lt;%= APP_BASE %&gt;&#39; }</title>
<ellipse fill="#fdb462" stroke="black" cx="297" cy="-104" rx="273.41" ry="18"/>
<text text-anchor="middle" x="297" y="-99.8" font-family="Times,serif" font-size="14.00">{ provide: APP_BASE_HREF, useValue: &#39;&lt;%= APP_BASE %&gt;&#39; }</text>
</g>
<!-- { provide: APP_BASE_HREF, useValue: &#39;&lt;%= APP_BASE %&gt;&#39; }&#45;&gt;AppModule -->
<g id="edge10" class="edge"><title>{ provide: APP_BASE_HREF, useValue: &#39;&lt;%= APP_BASE %&gt;&#39; }&#45;&gt;AppModule</title>
<path fill="none" stroke="black" d="M297,-122.011C297,-144.485 297,-180 297,-180 297,-180 1016.27,-180 1016.27,-180"/>
<polygon fill="black" stroke="black" points="1016.27,-183.5 1026.27,-180 1016.27,-176.5 1016.27,-183.5"/>
</g>
</g>
</svg>
