<?xml version="1.0" encoding="UTF-8" standalone="no"?>
<!DOCTYPE svg PUBLIC "-//W3C//DTD SVG 1.1//EN"
 "http://www.w3.org/Graphics/SVG/1.1/DTD/svg11.dtd">
<!-- Generated by graphviz version 2.40.1 (20161225.0304)
 -->
<!-- Title: dependencies Pages: 1 -->
<svg width="1471pt" height="211pt"
 viewBox="0.00 0.00 1471.00 211.00" xmlns="http://www.w3.org/2000/svg" xmlns:xlink="http://www.w3.org/1999/xlink">
<g id="graph0" class="graph" transform="scale(1 1) rotate(0) translate(4 207)">
<title>dependencies</title>
<polygon fill="#ffffff" stroke="transparent" points="-4,4 -4,-207 1467,-207 1467,4 -4,4"/>
<text text-anchor="start" x="710.5091" y="-42.4" font-family="sans-serif" font-weight="bold" font-size="14.00" fill="#000000">Legend</text>
<polygon fill="#ffffb3" stroke="transparent" points="497.5,-10 497.5,-30 517.5,-30 517.5,-10 497.5,-10"/>
<text text-anchor="start" x="521.129" y="-15.4" font-family="sans-serif" font-size="14.00" fill="#000000"> &#160;Declarations</text>
<polygon fill="#8dd3c7" stroke="transparent" points="610.5,-10 610.5,-30 630.5,-30 630.5,-10 610.5,-10"/>
<text text-anchor="start" x="634.2251" y="-15.4" font-family="sans-serif" font-size="14.00" fill="#000000"> &#160;Module</text>
<polygon fill="#80b1d3" stroke="transparent" points="696.5,-10 696.5,-30 716.5,-30 716.5,-10 696.5,-10"/>
<text text-anchor="start" x="720.2812" y="-15.4" font-family="sans-serif" font-size="14.00" fill="#000000"> &#160;Bootstrap</text>
<polygon fill="#fdb462" stroke="transparent" points="793.5,-10 793.5,-30 813.5,-30 813.5,-10 793.5,-10"/>
<text text-anchor="start" x="817.1732" y="-15.4" font-family="sans-serif" font-size="14.00" fill="#000000"> &#160;Providers</text>
<polygon fill="#fb8072" stroke="transparent" points="889.5,-10 889.5,-30 909.5,-30 909.5,-10 889.5,-10"/>
<text text-anchor="start" x="913.2258" y="-15.4" font-family="sans-serif" font-size="14.00" fill="#000000"> &#160;Exports</text>
<g id="clust1" class="cluster">
<title>cluster_LayoutModule</title>
<polygon fill="none" stroke="#000000" stroke-dasharray="1,5" points="8,-70 8,-195 1455,-195 1455,-70 8,-70"/>
</g>
<g id="clust2" class="cluster">
<title>cluster_LayoutModule_declarations</title>
<polygon fill="none" stroke="#000000" points="1029,-78 1029,-130 1447,-130 1447,-78 1029,-78"/>
</g>
<g id="clust6" class="cluster">
<title>cluster_LayoutModule_imports</title>
<polygon fill="none" stroke="#000000" points="16,-78 16,-130 1021,-130 1021,-78 16,-78"/>
</g>
<!-- LayoutComponent -->
<g id="node1" class="node">
<title>LayoutComponent</title>
<polygon fill="#ffffb3" stroke="#000000" points="1439.4902,-122 1318.5098,-122 1318.5098,-86 1439.4902,-86 1439.4902,-122"/>
<text text-anchor="middle" x="1379" y="-99.8" font-family="Times,serif" font-size="14.00" fill="#000000">LayoutComponent</text>
</g>
<!-- LayoutModule -->
<g id="node4" class="node">
<title>LayoutModule</title>
<polygon fill="#8dd3c7" stroke="#000000" points="749.7078,-187 746.7078,-191 725.7078,-191 722.7078,-187 650.2922,-187 650.2922,-151 749.7078,-151 749.7078,-187"/>
<text text-anchor="middle" x="700" y="-164.8" font-family="Times,serif" font-size="14.00" fill="#000000">LayoutModule</text>
</g>
<!-- LayoutComponent&#45;&gt;LayoutModule -->
<g id="edge1" class="edge">
<title>LayoutComponent&#45;&gt;LayoutModule</title>
<path fill="none" stroke="#000000" d="M1379,-122.0109C1379,-144.4852 1379,-180 1379,-180 1379,-180 759.6534,-180 759.6534,-180"/>
<polygon fill="#000000" stroke="#000000" points="759.6534,-176.5001 749.6534,-180 759.6534,-183.5001 759.6534,-176.5001"/>
</g>
<!-- HeaderComponent -->
<g id="node2" class="node">
<title>HeaderComponent</title>
<polygon fill="#ffffb3" stroke="#000000" points="1300.7437,-122 1179.2563,-122 1179.2563,-86 1300.7437,-86 1300.7437,-122"/>
<text text-anchor="middle" x="1240" y="-99.8" font-family="Times,serif" font-size="14.00" fill="#000000">HeaderComponent</text>
</g>
<!-- HeaderComponent&#45;&gt;LayoutModule -->
<g id="edge2" class="edge">
<title>HeaderComponent&#45;&gt;LayoutModule</title>
<path fill="none" stroke="#000000" d="M1240,-122.1289C1240,-142.5724 1240,-173 1240,-173 1240,-173 759.834,-173 759.834,-173"/>
<polygon fill="#000000" stroke="#000000" points="759.834,-169.5001 749.834,-173 759.8339,-176.5001 759.834,-169.5001"/>
</g>
<!-- SidebarComponent -->
<g id="node3" class="node">
<title>SidebarComponent</title>
<polygon fill="#ffffb3" stroke="#000000" points="1161.0954,-122 1036.9046,-122 1036.9046,-86 1161.0954,-86 1161.0954,-122"/>
<text text-anchor="middle" x="1099" y="-99.8" font-family="Times,serif" font-size="14.00" fill="#000000">SidebarComponent</text>
</g>
<!-- SidebarComponent&#45;&gt;LayoutModule -->
<g id="edge3" class="edge">
<title>SidebarComponent&#45;&gt;LayoutModule</title>
<path fill="none" stroke="#000000" d="M1099,-122.2667C1099,-140.5552 1099,-166 1099,-166 1099,-166 759.7269,-166 759.7269,-166"/>
<polygon fill="#000000" stroke="#000000" points="759.7269,-162.5001 749.7269,-166 759.7268,-169.5001 759.7269,-162.5001"/>
</g>
<!-- CommonModule -->
<g id="node5" class="node">
<title>CommonModule</title>
<polygon fill="#8dd3c7" stroke="#000000" points="1012.6681,-122 1009.6681,-126 988.6681,-126 985.6681,-122 901.3319,-122 901.3319,-86 1012.6681,-86 1012.6681,-122"/>
<text text-anchor="middle" x="957" y="-99.8" font-family="Times,serif" font-size="14.00" fill="#000000">CommonModule</text>
</g>
<!-- CommonModule&#45;&gt;LayoutModule -->
<g id="edge4" class="edge">
<title>CommonModule&#45;&gt;LayoutModule</title>
<path fill="none" stroke="#000000" d="M957,-122.0091C957,-138.0494 957,-159 957,-159 957,-159 759.8569,-159 759.8569,-159"/>
<polygon fill="#000000" stroke="#000000" points="759.8569,-155.5001 749.8569,-159 759.8569,-162.5001 759.8569,-155.5001"/>
</g>
<!-- NgbDropdownModule.forRoot() -->
<g id="node6" class="node">
<title>NgbDropdownModule.forRoot()</title>
<polygon fill="#8dd3c7" stroke="#000000" points="882.8998,-122 879.8998,-126 858.8998,-126 855.8998,-122 683.1002,-122 683.1002,-86 882.8998,-86 882.8998,-122"/>
<text text-anchor="middle" x="783" y="-99.8" font-family="Times,serif" font-size="14.00" fill="#000000">NgbDropdownModule.forRoot()</text>
</g>
<!-- NgbDropdownModule.forRoot()&#45;&gt;LayoutModule -->
<g id="edge5" class="edge">
<title>NgbDropdownModule.forRoot()&#45;&gt;LayoutModule</title>
<path fill="none" stroke="#000000" d="M716.3269,-122.1061C716.3269,-122.1061 716.3269,-140.991 716.3269,-140.991"/>
<polygon fill="#000000" stroke="#000000" points="712.827,-140.9909 716.3269,-150.991 719.827,-140.991 712.827,-140.9909"/>
</g>
<!-- FormsModule -->
<g id="node7" class="node">
<title>FormsModule</title>
<polygon fill="#8dd3c7" stroke="#000000" points="664.8288,-122 661.8288,-126 640.8288,-126 637.8288,-122 569.1712,-122 569.1712,-86 664.8288,-86 664.8288,-122"/>
<text text-anchor="middle" x="617" y="-99.8" font-family="Times,serif" font-size="14.00" fill="#000000">FormsModule</text>
</g>
<!-- FormsModule&#45;&gt;LayoutModule -->
<g id="edge6" class="edge">
<title>FormsModule&#45;&gt;LayoutModule</title>
<path fill="none" stroke="#000000" d="M657.5302,-122.1061C657.5302,-122.1061 657.5302,-140.991 657.5302,-140.991"/>
<polygon fill="#000000" stroke="#000000" points="654.0302,-140.9909 657.5302,-150.991 661.0302,-140.991 654.0302,-140.9909"/>
</g>
<!-- TranslateModule -->
<g id="node8" class="node">
<title>TranslateModule</title>
<polygon fill="#8dd3c7" stroke="#000000" points="551.6332,-122 548.6332,-126 527.6332,-126 524.6332,-122 440.3668,-122 440.3668,-86 551.6332,-86 551.6332,-122"/>
<text text-anchor="middle" x="496" y="-99.8" font-family="Times,serif" font-size="14.00" fill="#000000">TranslateModule</text>
</g>
<!-- TranslateModule&#45;&gt;LayoutModule -->
<g id="edge7" class="edge">
<title>TranslateModule&#45;&gt;LayoutModule</title>
<path fill="none" stroke="#000000" d="M496,-122.0091C496,-138.0494 496,-159 496,-159 496,-159 640.3568,-159 640.3568,-159"/>
<polygon fill="#000000" stroke="#000000" points="640.3569,-162.5001 650.3568,-159 640.3568,-155.5001 640.3569,-162.5001"/>
</g>
<!-- LayoutRoutingModule -->
<g id="node9" class="node">
<title>LayoutRoutingModule</title>
<polygon fill="#8dd3c7" stroke="#000000" points="422.3258,-122 419.3258,-126 398.3258,-126 395.3258,-122 277.6742,-122 277.6742,-86 422.3258,-86 422.3258,-122"/>
<text text-anchor="middle" x="350" y="-99.8" font-family="Times,serif" font-size="14.00" fill="#000000">LayoutRoutingModule</text>
</g>
<!-- LayoutRoutingModule&#45;&gt;LayoutModule -->
<g id="edge8" class="edge">
<title>LayoutRoutingModule&#45;&gt;LayoutModule</title>
<path fill="none" stroke="#000000" d="M350,-122.2667C350,-140.5552 350,-166 350,-166 350,-166 640.2252,-166 640.2252,-166"/>
<polygon fill="#000000" stroke="#000000" points="640.2253,-169.5001 650.2252,-166 640.2252,-162.5001 640.2253,-169.5001"/>
</g>
<!-- NgbModule.forRoot() -->
<g id="node10" class="node">
<title>NgbModule.forRoot()</title>
<polygon fill="#8dd3c7" stroke="#000000" points="260.026,-122 257.026,-126 236.026,-126 233.026,-122 119.974,-122 119.974,-86 260.026,-86 260.026,-122"/>
<text text-anchor="middle" x="190" y="-99.8" font-family="Times,serif" font-size="14.00" fill="#000000">NgbModule.forRoot()</text>
</g>
<!-- NgbModule.forRoot()&#45;&gt;LayoutModule -->
<g id="edge9" class="edge">
<title>NgbModule.forRoot()&#45;&gt;LayoutModule</title>
<path fill="none" stroke="#000000" d="M190,-122.1289C190,-142.5724 190,-173 190,-173 190,-173 640.1705,-173 640.1705,-173"/>
<polygon fill="#000000" stroke="#000000" points="640.1705,-176.5001 650.1705,-173 640.1704,-169.5001 640.1705,-176.5001"/>
</g>
<!-- FmModule -->
<g id="node11" class="node">
<title>FmModule</title>
<polygon fill="#8dd3c7" stroke="#000000" points="102.2233,-122 99.2233,-126 78.2233,-126 75.2233,-122 23.7767,-122 23.7767,-86 102.2233,-86 102.2233,-122"/>
<text text-anchor="middle" x="63" y="-99.8" font-family="Times,serif" font-size="14.00" fill="#000000">FmModule</text>
</g>
<!-- FmModule&#45;&gt;LayoutModule -->
<g id="edge10" class="edge">
<title>FmModule&#45;&gt;LayoutModule</title>
<path fill="none" stroke="#000000" d="M63,-122.0109C63,-144.4852 63,-180 63,-180 63,-180 640.281,-180 640.281,-180"/>
<polygon fill="#000000" stroke="#000000" points="640.281,-183.5001 650.281,-180 640.281,-176.5001 640.281,-183.5001"/>
</g>
</g>
</svg>
