<?xml version="1.0" encoding="UTF-8" standalone="no"?>
<!DOCTYPE svg PUBLIC "-//W3C//DTD SVG 1.1//EN"
 "http://www.w3.org/Graphics/SVG/1.1/DTD/svg11.dtd">
<!-- Generated by graphviz version 2.40.1 (20161225.0304)
 -->
<!-- Title: dependencies Pages: 1 -->
<svg width="1375pt" height="211pt"
 viewBox="0.00 0.00 1375.00 211.00" xmlns="http://www.w3.org/2000/svg" xmlns:xlink="http://www.w3.org/1999/xlink">
<g id="graph0" class="graph" transform="scale(1 1) rotate(0) translate(4 207)">
<title>dependencies</title>
<polygon fill="#ffffff" stroke="transparent" points="-4,4 -4,-207 1371,-207 1371,4 -4,4"/>
<text text-anchor="start" x="662.5091" y="-42.4" font-family="sans-serif" font-weight="bold" font-size="14.00" fill="#000000">Legend</text>
<polygon fill="#ffffb3" stroke="transparent" points="449.5,-10 449.5,-30 469.5,-30 469.5,-10 449.5,-10"/>
<text text-anchor="start" x="473.129" y="-15.4" font-family="sans-serif" font-size="14.00" fill="#000000"> &#160;Declarations</text>
<polygon fill="#8dd3c7" stroke="transparent" points="562.5,-10 562.5,-30 582.5,-30 582.5,-10 562.5,-10"/>
<text text-anchor="start" x="586.2251" y="-15.4" font-family="sans-serif" font-size="14.00" fill="#000000"> &#160;Module</text>
<polygon fill="#80b1d3" stroke="transparent" points="648.5,-10 648.5,-30 668.5,-30 668.5,-10 648.5,-10"/>
<text text-anchor="start" x="672.2812" y="-15.4" font-family="sans-serif" font-size="14.00" fill="#000000"> &#160;Bootstrap</text>
<polygon fill="#fdb462" stroke="transparent" points="745.5,-10 745.5,-30 765.5,-30 765.5,-10 745.5,-10"/>
<text text-anchor="start" x="769.1732" y="-15.4" font-family="sans-serif" font-size="14.00" fill="#000000"> &#160;Providers</text>
<polygon fill="#fb8072" stroke="transparent" points="841.5,-10 841.5,-30 861.5,-30 861.5,-10 841.5,-10"/>
<text text-anchor="start" x="865.2258" y="-15.4" font-family="sans-serif" font-size="14.00" fill="#000000"> &#160;Exports</text>
<g id="clust1" class="cluster">
<title>cluster_LayoutModule</title>
<polygon fill="none" stroke="#000000" stroke-dasharray="1,5" points="8,-70 8,-195 1359,-195 1359,-70 8,-70"/>
</g>
<g id="clust2" class="cluster">
<title>cluster_LayoutModule_declarations</title>
<polygon fill="none" stroke="#000000" points="933,-78 933,-130 1351,-130 1351,-78 933,-78"/>
</g>
<g id="clust6" class="cluster">
<title>cluster_LayoutModule_imports</title>
<polygon fill="none" stroke="#000000" points="16,-78 16,-130 925,-130 925,-78 16,-78"/>
</g>
<!-- LayoutComponent -->
<g id="node1" class="node">
<title>LayoutComponent</title>
<polygon fill="#ffffb3" stroke="#000000" points="1343.4902,-122 1222.5098,-122 1222.5098,-86 1343.4902,-86 1343.4902,-122"/>
<text text-anchor="middle" x="1283" y="-99.8" font-family="Times,serif" font-size="14.00" fill="#000000">LayoutComponent</text>
</g>
<!-- LayoutModule -->
<g id="node4" class="node">
<title>LayoutModule</title>
<polygon fill="#8dd3c7" stroke="#000000" points="736.7078,-187 733.7078,-191 712.7078,-191 709.7078,-187 637.2922,-187 637.2922,-151 736.7078,-151 736.7078,-187"/>
<text text-anchor="middle" x="687" y="-164.8" font-family="Times,serif" font-size="14.00" fill="#000000">LayoutModule</text>
</g>
<!-- LayoutComponent&#45;&gt;LayoutModule -->
<g id="edge1" class="edge">
<title>LayoutComponent&#45;&gt;LayoutModule</title>
<path fill="none" stroke="#000000" d="M1283,-122.0109C1283,-144.4852 1283,-180 1283,-180 1283,-180 746.7895,-180 746.7895,-180"/>
<polygon fill="#000000" stroke="#000000" points="746.7895,-176.5001 736.7895,-180 746.7895,-183.5001 746.7895,-176.5001"/>
</g>
<!-- HeaderComponent -->
<g id="node2" class="node">
<title>HeaderComponent</title>
<polygon fill="#ffffb3" stroke="#000000" points="1204.7437,-122 1083.2563,-122 1083.2563,-86 1204.7437,-86 1204.7437,-122"/>
<text text-anchor="middle" x="1144" y="-99.8" font-family="Times,serif" font-size="14.00" fill="#000000">HeaderComponent</text>
</g>
<!-- HeaderComponent&#45;&gt;LayoutModule -->
<g id="edge2" class="edge">
<title>HeaderComponent&#45;&gt;LayoutModule</title>
<path fill="none" stroke="#000000" d="M1144,-122.1289C1144,-142.5724 1144,-173 1144,-173 1144,-173 746.777,-173 746.777,-173"/>
<polygon fill="#000000" stroke="#000000" points="746.777,-169.5001 736.777,-173 746.7769,-176.5001 746.777,-169.5001"/>
</g>
<!-- SidebarComponent -->
<g id="node3" class="node">
<title>SidebarComponent</title>
<polygon fill="#ffffb3" stroke="#000000" points="1065.0954,-122 940.9046,-122 940.9046,-86 1065.0954,-86 1065.0954,-122"/>
<text text-anchor="middle" x="1003" y="-99.8" font-family="Times,serif" font-size="14.00" fill="#000000">SidebarComponent</text>
</g>
<!-- SidebarComponent&#45;&gt;LayoutModule -->
<g id="edge3" class="edge">
<title>SidebarComponent&#45;&gt;LayoutModule</title>
<path fill="none" stroke="#000000" d="M1003,-122.2667C1003,-140.5552 1003,-166 1003,-166 1003,-166 746.7226,-166 746.7226,-166"/>
<polygon fill="#000000" stroke="#000000" points="746.7227,-162.5001 736.7226,-166 746.7226,-169.5001 746.7227,-162.5001"/>
</g>
<!-- CommonModule -->
<g id="node5" class="node">
<title>CommonModule</title>
<polygon fill="#8dd3c7" stroke="#000000" points="916.6681,-122 913.6681,-126 892.6681,-126 889.6681,-122 805.3319,-122 805.3319,-86 916.6681,-86 916.6681,-122"/>
<text text-anchor="middle" x="861" y="-99.8" font-family="Times,serif" font-size="14.00" fill="#000000">CommonModule</text>
</g>
<!-- CommonModule&#45;&gt;LayoutModule -->
<g id="edge4" class="edge">
<title>CommonModule&#45;&gt;LayoutModule</title>
<path fill="none" stroke="#000000" d="M861,-122.0091C861,-138.0494 861,-159 861,-159 861,-159 746.8614,-159 746.8614,-159"/>
<polygon fill="#000000" stroke="#000000" points="746.8615,-155.5001 736.8614,-159 746.8614,-162.5001 746.8615,-155.5001"/>
</g>
<!-- NgbDropdownModule.forRoot() -->
<g id="node6" class="node">
<title>NgbDropdownModule.forRoot()</title>
<polygon fill="#8dd3c7" stroke="#000000" points="786.8998,-122 783.8998,-126 762.8998,-126 759.8998,-122 587.1002,-122 587.1002,-86 786.8998,-86 786.8998,-122"/>
<text text-anchor="middle" x="687" y="-99.8" font-family="Times,serif" font-size="14.00" fill="#000000">NgbDropdownModule.forRoot()</text>
</g>
<!-- NgbDropdownModule.forRoot()&#45;&gt;LayoutModule -->
<g id="edge5" class="edge">
<title>NgbDropdownModule.forRoot()&#45;&gt;LayoutModule</title>
<path fill="none" stroke="#000000" d="M687,-122.1061C687,-122.1061 687,-140.991 687,-140.991"/>
<polygon fill="#000000" stroke="#000000" points="683.5001,-140.9909 687,-150.991 690.5001,-140.991 683.5001,-140.9909"/>
</g>
<!-- FormsModule -->
<g id="node7" class="node">
<title>FormsModule</title>
<polygon fill="#8dd3c7" stroke="#000000" points="568.8288,-122 565.8288,-126 544.8288,-126 541.8288,-122 473.1712,-122 473.1712,-86 568.8288,-86 568.8288,-122"/>
<text text-anchor="middle" x="521" y="-99.8" font-family="Times,serif" font-size="14.00" fill="#000000">FormsModule</text>
</g>
<!-- FormsModule&#45;&gt;LayoutModule -->
<g id="edge6" class="edge">
<title>FormsModule&#45;&gt;LayoutModule</title>
<path fill="none" stroke="#000000" d="M521,-122.0091C521,-138.0494 521,-159 521,-159 521,-159 627.1945,-159 627.1945,-159"/>
<polygon fill="#000000" stroke="#000000" points="627.1946,-162.5001 637.1945,-159 627.1945,-155.5001 627.1946,-162.5001"/>
</g>
<!-- TranslateModule -->
<g id="node8" class="node">
<title>TranslateModule</title>
<polygon fill="#8dd3c7" stroke="#000000" points="455.6332,-122 452.6332,-126 431.6332,-126 428.6332,-122 344.3668,-122 344.3668,-86 455.6332,-86 455.6332,-122"/>
<text text-anchor="middle" x="400" y="-99.8" font-family="Times,serif" font-size="14.00" fill="#000000">TranslateModule</text>
</g>
<!-- TranslateModule&#45;&gt;LayoutModule -->
<g id="edge7" class="edge">
<title>TranslateModule&#45;&gt;LayoutModule</title>
<path fill="none" stroke="#000000" d="M400,-122.2667C400,-140.5552 400,-166 400,-166 400,-166 627.3361,-166 627.3361,-166"/>
<polygon fill="#000000" stroke="#000000" points="627.3361,-169.5001 637.3361,-166 627.336,-162.5001 627.3361,-169.5001"/>
</g>
<!-- LayoutRoutingModule -->
<g id="node9" class="node">
<title>LayoutRoutingModule</title>
<polygon fill="#8dd3c7" stroke="#000000" points="326.3258,-122 323.3258,-126 302.3258,-126 299.3258,-122 181.6742,-122 181.6742,-86 326.3258,-86 326.3258,-122"/>
<text text-anchor="middle" x="254" y="-99.8" font-family="Times,serif" font-size="14.00" fill="#000000">LayoutRoutingModule</text>
</g>
<!-- LayoutRoutingModule&#45;&gt;LayoutModule -->
<g id="edge8" class="edge">
<title>LayoutRoutingModule&#45;&gt;LayoutModule</title>
<path fill="none" stroke="#000000" d="M254,-122.1289C254,-142.5724 254,-173 254,-173 254,-173 627.3294,-173 627.3294,-173"/>
<polygon fill="#000000" stroke="#000000" points="627.3294,-176.5001 637.3294,-173 627.3294,-169.5001 627.3294,-176.5001"/>
</g>
<!-- NgbModule.forRoot() -->
<g id="node10" class="node">
<title>NgbModule.forRoot()</title>
<polygon fill="#8dd3c7" stroke="#000000" points="164.026,-122 161.026,-126 140.026,-126 137.026,-122 23.974,-122 23.974,-86 164.026,-86 164.026,-122"/>
<text text-anchor="middle" x="94" y="-99.8" font-family="Times,serif" font-size="14.00" fill="#000000">NgbModule.forRoot()</text>
</g>
<!-- NgbModule.forRoot()&#45;&gt;LayoutModule -->
<g id="edge9" class="edge">
<title>NgbModule.forRoot()&#45;&gt;LayoutModule</title>
<path fill="none" stroke="#000000" d="M94,-122.0109C94,-144.4852 94,-180 94,-180 94,-180 627.2069,-180 627.2069,-180"/>
<polygon fill="#000000" stroke="#000000" points="627.207,-183.5001 637.2069,-180 627.2069,-176.5001 627.207,-183.5001"/>
</g>
</g>
</svg>
