<?xml version="1.0" encoding="UTF-8" standalone="no"?>
<!DOCTYPE svg PUBLIC "-//W3C//DTD SVG 1.1//EN"
 "http://www.w3.org/Graphics/SVG/1.1/DTD/svg11.dtd">
<!-- Generated by graphviz version 2.38.0 (20140413.2041)
 -->
<!-- Title: dependencies Pages: 1 -->
<svg width="504pt" height="284pt"
 viewBox="0.00 0.00 504.00 284.00" xmlns="http://www.w3.org/2000/svg" xmlns:xlink="http://www.w3.org/1999/xlink">
<g id="graph0" class="graph" transform="scale(1 1) rotate(0) translate(4 280)">
<title>dependencies</title>
<polygon fill="white" stroke="none" points="-4,4 -4,-280 500,-280 500,4 -4,4"/>
<text text-anchor="start" x="227.009" y="-42.4" font-family="sans-serif" font-weight="bold" font-size="14.00">Legend</text>
<polygon fill="#ffffb3" stroke="none" points="14,-10 14,-30 34,-30 34,-10 14,-10"/>
<text text-anchor="start" x="37.629" y="-15.4" font-family="sans-serif" font-size="14.00"> &#160;Declarations</text>
<polygon fill="#8dd3c7" stroke="none" points="127,-10 127,-30 147,-30 147,-10 127,-10"/>
<text text-anchor="start" x="150.725" y="-15.4" font-family="sans-serif" font-size="14.00"> &#160;Module</text>
<polygon fill="#80b1d3" stroke="none" points="213,-10 213,-30 233,-30 233,-10 213,-10"/>
<text text-anchor="start" x="236.781" y="-15.4" font-family="sans-serif" font-size="14.00"> &#160;Bootstrap</text>
<polygon fill="#fdb462" stroke="none" points="310,-10 310,-30 330,-30 330,-10 310,-10"/>
<text text-anchor="start" x="333.673" y="-15.4" font-family="sans-serif" font-size="14.00"> &#160;Providers</text>
<polygon fill="#fb8072" stroke="none" points="406,-10 406,-30 426,-30 426,-10 406,-10"/>
<text text-anchor="start" x="429.726" y="-15.4" font-family="sans-serif" font-size="14.00"> &#160;Exports</text>
<g id="clust1" class="cluster"><title>cluster_TableModule</title>
<polygon fill="none" stroke="black" stroke-dasharray="1,5" points="114,-70 114,-268 382,-268 382,-70 114,-70"/>
</g>
<g id="clust2" class="cluster"><title>cluster_TableModule_declarations</title>
<polygon fill="none" stroke="black" points="244,-78 244,-130 374,-130 374,-78 244,-78"/>
</g>
<g id="clust4" class="cluster"><title>cluster_TableModule_imports</title>
<polygon fill="none" stroke="black" points="122,-78 122,-130 236,-130 236,-78 122,-78"/>
</g>
<g id="clust5" class="cluster"><title>cluster_TableModule_exports</title>
<polygon fill="none" stroke="black" points="182,-208 182,-260 314,-260 314,-208 182,-208"/>
</g>
<!-- TableComponent -->
<g id="node1" class="node"><title>TableComponent</title>
<polygon fill="#ffffb3" stroke="black" points="365.705,-122 252.295,-122 252.295,-86 365.705,-86 365.705,-122"/>
<text text-anchor="middle" x="309" y="-99.8" font-family="Times,serif" font-size="14.00">TableComponent</text>
</g>
<!-- TableModule -->
<g id="node2" class="node"><title>TableModule</title>
<polygon fill="#8dd3c7" stroke="black" points="293.923,-187 290.923,-191 269.923,-191 266.923,-187 202.077,-187 202.077,-151 293.923,-151 293.923,-187"/>
<text text-anchor="middle" x="248" y="-164.8" font-family="Times,serif" font-size="14.00">TableModule</text>
</g>
<!-- TableComponent&#45;&gt;TableModule -->
<g id="edge1" class="edge"><title>TableComponent&#45;&gt;TableModule</title>
<path fill="none" stroke="black" d="M273.054,-122.106C273.054,-122.106 273.054,-140.991 273.054,-140.991"/>
<polygon fill="black" stroke="black" points="269.554,-140.991 273.054,-150.991 276.554,-140.991 269.554,-140.991"/>
</g>
<!-- TableComponent  -->
<g id="node4" class="node"><title>TableComponent </title>
<polygon fill="#fb8072" stroke="black" points="306.205,-252 189.795,-252 189.795,-216 306.205,-216 306.205,-252"/>
<text text-anchor="middle" x="248" y="-229.8" font-family="Times,serif" font-size="14.00">TableComponent </text>
</g>
<!-- TableModule&#45;&gt;TableComponent  -->
<g id="edge3" class="edge"><title>TableModule&#45;&gt;TableComponent </title>
<path fill="none" stroke="black" stroke-dasharray="5,2" d="M248,-187.106C248,-187.106 248,-205.991 248,-205.991"/>
<polygon fill="black" stroke="black" points="244.5,-205.991 248,-215.991 251.5,-205.991 244.5,-205.991"/>
</g>
<!-- RouterModule -->
<g id="node3" class="node"><title>RouterModule</title>
<polygon fill="#8dd3c7" stroke="black" points="227.653,-122 224.653,-126 203.653,-126 200.653,-122 130.347,-122 130.347,-86 227.653,-86 227.653,-122"/>
<text text-anchor="middle" x="179" y="-99.8" font-family="Times,serif" font-size="14.00">RouterModule</text>
</g>
<!-- RouterModule&#45;&gt;TableModule -->
<g id="edge2" class="edge"><title>RouterModule&#45;&gt;TableModule</title>
<path fill="none" stroke="black" d="M215.058,-122.106C215.058,-122.106 215.058,-140.991 215.058,-140.991"/>
<polygon fill="black" stroke="black" points="211.558,-140.991 215.058,-150.991 218.558,-140.991 211.558,-140.991"/>
</g>
</g>
</svg>
