<?xml version="1.0" encoding="UTF-8" standalone="no"?>
<!DOCTYPE svg PUBLIC "-//W3C//DTD SVG 1.1//EN"
 "http://www.w3.org/Graphics/SVG/1.1/DTD/svg11.dtd">
<!-- Generated by graphviz version 2.40.1 (20161225.0304)
 -->
<!-- Title: dependencies Pages: 1 -->
<svg width="504pt" height="284pt"
 viewBox="0.00 0.00 504.00 284.00" xmlns="http://www.w3.org/2000/svg" xmlns:xlink="http://www.w3.org/1999/xlink">
<g id="graph0" class="graph" transform="scale(1 1) rotate(0) translate(4 280)">
<title>dependencies</title>
<polygon fill="#ffffff" stroke="transparent" points="-4,4 -4,-280 500,-280 500,4 -4,4"/>
<text text-anchor="start" x="227.0091" y="-42.4" font-family="sans-serif" font-weight="bold" font-size="14.00" fill="#000000">Legend</text>
<polygon fill="#ffffb3" stroke="transparent" points="14,-10 14,-30 34,-30 34,-10 14,-10"/>
<text text-anchor="start" x="37.629" y="-15.4" font-family="sans-serif" font-size="14.00" fill="#000000"> &#160;Declarations</text>
<polygon fill="#8dd3c7" stroke="transparent" points="127,-10 127,-30 147,-30 147,-10 127,-10"/>
<text text-anchor="start" x="150.7251" y="-15.4" font-family="sans-serif" font-size="14.00" fill="#000000"> &#160;Module</text>
<polygon fill="#80b1d3" stroke="transparent" points="213,-10 213,-30 233,-30 233,-10 213,-10"/>
<text text-anchor="start" x="236.7812" y="-15.4" font-family="sans-serif" font-size="14.00" fill="#000000"> &#160;Bootstrap</text>
<polygon fill="#fdb462" stroke="transparent" points="310,-10 310,-30 330,-30 330,-10 310,-10"/>
<text text-anchor="start" x="333.6732" y="-15.4" font-family="sans-serif" font-size="14.00" fill="#000000"> &#160;Providers</text>
<polygon fill="#fb8072" stroke="transparent" points="406,-10 406,-30 426,-30 426,-10 406,-10"/>
<text text-anchor="start" x="429.7258" y="-15.4" font-family="sans-serif" font-size="14.00" fill="#000000"> &#160;Exports</text>
<g id="clust1" class="cluster">
<title>cluster_SharedPipesModule</title>
<polygon fill="none" stroke="#000000" stroke-dasharray="1,5" points="129,-70 129,-268 367,-268 367,-70 129,-70"/>
</g>
<g id="clust2" class="cluster">
<title>cluster_SharedPipesModule_declarations</title>
<polygon fill="none" stroke="#000000" points="273,-78 273,-130 359,-130 359,-78 273,-78"/>
</g>
<g id="clust4" class="cluster">
<title>cluster_SharedPipesModule_imports</title>
<polygon fill="none" stroke="#000000" points="137,-78 137,-130 265,-130 265,-78 137,-78"/>
</g>
<g id="clust5" class="cluster">
<title>cluster_SharedPipesModule_exports</title>
<polygon fill="none" stroke="#000000" points="203,-208 203,-260 293,-260 293,-208 203,-208"/>
</g>
<!-- KeysPipe -->
<g id="node1" class="node">
<title>KeysPipe</title>
<polygon fill="#ffffb3" stroke="#000000" points="350.6545,-122 281.3455,-122 281.3455,-86 350.6545,-86 350.6545,-122"/>
<text text-anchor="middle" x="316" y="-99.8" font-family="Times,serif" font-size="14.00" fill="#000000">KeysPipe</text>
</g>
<!-- SharedPipesModule -->
<g id="node2" class="node">
<title>SharedPipesModule</title>
<polygon fill="#8dd3c7" stroke="#000000" points="312.2548,-187 309.2548,-191 288.2548,-191 285.2548,-187 183.7452,-187 183.7452,-151 312.2548,-151 312.2548,-187"/>
<text text-anchor="middle" x="248" y="-164.8" font-family="Times,serif" font-size="14.00" fill="#000000">SharedPipesModule</text>
</g>
<!-- KeysPipe&#45;&gt;SharedPipesModule -->
<g id="edge1" class="edge">
<title>KeysPipe&#45;&gt;SharedPipesModule</title>
<path fill="none" stroke="#000000" d="M296.7753,-122.1061C296.7753,-122.1061 296.7753,-140.991 296.7753,-140.991"/>
<polygon fill="#000000" stroke="#000000" points="293.2753,-140.9909 296.7753,-150.991 300.2753,-140.991 293.2753,-140.9909"/>
</g>
<!-- KeysPipe  -->
<g id="node4" class="node">
<title>KeysPipe </title>
<polygon fill="#fb8072" stroke="#000000" points="284.6538,-252 211.3462,-252 211.3462,-216 284.6538,-216 284.6538,-252"/>
<text text-anchor="middle" x="248" y="-229.8" font-family="Times,serif" font-size="14.00" fill="#000000">KeysPipe </text>
</g>
<!-- SharedPipesModule&#45;&gt;KeysPipe  -->
<g id="edge3" class="edge">
<title>SharedPipesModule&#45;&gt;KeysPipe </title>
<path fill="none" stroke="#000000" stroke-dasharray="5,2" d="M248,-187.1061C248,-187.1061 248,-205.991 248,-205.991"/>
<polygon fill="#000000" stroke="#000000" points="244.5001,-205.9909 248,-215.991 251.5001,-205.991 244.5001,-205.9909"/>
</g>
<!-- CommonModule -->
<g id="node3" class="node">
<title>CommonModule</title>
<polygon fill="#8dd3c7" stroke="#000000" points="256.6681,-122 253.6681,-126 232.6681,-126 229.6681,-122 145.3319,-122 145.3319,-86 256.6681,-86 256.6681,-122"/>
<text text-anchor="middle" x="201" y="-99.8" font-family="Times,serif" font-size="14.00" fill="#000000">CommonModule</text>
</g>
<!-- CommonModule&#45;&gt;SharedPipesModule -->
<g id="edge2" class="edge">
<title>CommonModule&#45;&gt;SharedPipesModule</title>
<path fill="none" stroke="#000000" d="M220.2283,-122.1061C220.2283,-122.1061 220.2283,-140.991 220.2283,-140.991"/>
<polygon fill="#000000" stroke="#000000" points="216.7283,-140.9909 220.2283,-150.991 223.7283,-140.991 216.7283,-140.9909"/>
</g>
</g>
</svg>
