<?xml version="1.0" encoding="UTF-8" standalone="no"?>
<!DOCTYPE svg PUBLIC "-//W3C//DTD SVG 1.1//EN"
 "http://www.w3.org/Graphics/SVG/1.1/DTD/svg11.dtd">
<!-- Generated by graphviz version 2.40.1 (20161225.0304)
 -->
<!-- Title: dependencies Pages: 1 -->
<svg width="517pt" height="211pt"
 viewBox="0.00 0.00 517.00 211.00" xmlns="http://www.w3.org/2000/svg" xmlns:xlink="http://www.w3.org/1999/xlink">
<g id="graph0" class="graph" transform="scale(1 1) rotate(0) translate(4 207)">
<title>dependencies</title>
<polygon fill="#ffffff" stroke="transparent" points="-4,4 -4,-207 513,-207 513,4 -4,4"/>
<text text-anchor="start" x="233.5091" y="-42.4" font-family="sans-serif" font-weight="bold" font-size="14.00" fill="#000000">Legend</text>
<polygon fill="#ffffb3" stroke="transparent" points="20.5,-10 20.5,-30 40.5,-30 40.5,-10 20.5,-10"/>
<text text-anchor="start" x="44.129" y="-15.4" font-family="sans-serif" font-size="14.00" fill="#000000"> &#160;Declarations</text>
<polygon fill="#8dd3c7" stroke="transparent" points="133.5,-10 133.5,-30 153.5,-30 153.5,-10 133.5,-10"/>
<text text-anchor="start" x="157.2251" y="-15.4" font-family="sans-serif" font-size="14.00" fill="#000000"> &#160;Module</text>
<polygon fill="#80b1d3" stroke="transparent" points="219.5,-10 219.5,-30 239.5,-30 239.5,-10 219.5,-10"/>
<text text-anchor="start" x="243.2812" y="-15.4" font-family="sans-serif" font-size="14.00" fill="#000000"> &#160;Bootstrap</text>
<polygon fill="#fdb462" stroke="transparent" points="316.5,-10 316.5,-30 336.5,-30 336.5,-10 316.5,-10"/>
<text text-anchor="start" x="340.1732" y="-15.4" font-family="sans-serif" font-size="14.00" fill="#000000"> &#160;Providers</text>
<polygon fill="#fb8072" stroke="transparent" points="412.5,-10 412.5,-30 432.5,-30 432.5,-10 412.5,-10"/>
<text text-anchor="start" x="436.2258" y="-15.4" font-family="sans-serif" font-size="14.00" fill="#000000"> &#160;Exports</text>
<g id="clust1" class="cluster">
<title>cluster_BlankPageModule</title>
<polygon fill="none" stroke="#000000" stroke-dasharray="1,5" points="8,-70 8,-195 501,-195 501,-70 8,-70"/>
</g>
<g id="clust2" class="cluster">
<title>cluster_BlankPageModule_declarations</title>
<polygon fill="none" stroke="#000000" points="335,-78 335,-130 493,-130 493,-78 335,-78"/>
</g>
<g id="clust4" class="cluster">
<title>cluster_BlankPageModule_imports</title>
<polygon fill="none" stroke="#000000" points="16,-78 16,-130 327,-130 327,-78 16,-78"/>
</g>
<!-- BlankPageComponent -->
<g id="node1" class="node">
<title>BlankPageComponent</title>
<polygon fill="#ffffb3" stroke="#000000" points="484.986,-122 343.014,-122 343.014,-86 484.986,-86 484.986,-122"/>
<text text-anchor="middle" x="414" y="-99.8" font-family="Times,serif" font-size="14.00" fill="#000000">BlankPageComponent</text>
</g>
<!-- BlankPageModule -->
<g id="node2" class="node">
<title>BlankPageModule</title>
<polygon fill="#8dd3c7" stroke="#000000" points="323.2036,-187 320.2036,-191 299.2036,-191 296.2036,-187 202.7964,-187 202.7964,-151 323.2036,-151 323.2036,-187"/>
<text text-anchor="middle" x="263" y="-164.8" font-family="Times,serif" font-size="14.00" fill="#000000">BlankPageModule</text>
</g>
<!-- BlankPageComponent&#45;&gt;BlankPageModule -->
<g id="edge1" class="edge">
<title>BlankPageComponent&#45;&gt;BlankPageModule</title>
<path fill="none" stroke="#000000" d="M414,-122.1061C414,-141.3391 414,-169 414,-169 414,-169 333.1131,-169 333.1131,-169"/>
<polygon fill="#000000" stroke="#000000" points="333.1131,-165.5001 323.1131,-169 333.113,-172.5001 333.1131,-165.5001"/>
</g>
<!-- CommonModule -->
<g id="node3" class="node">
<title>CommonModule</title>
<polygon fill="#8dd3c7" stroke="#000000" points="318.6681,-122 315.6681,-126 294.6681,-126 291.6681,-122 207.3319,-122 207.3319,-86 318.6681,-86 318.6681,-122"/>
<text text-anchor="middle" x="263" y="-99.8" font-family="Times,serif" font-size="14.00" fill="#000000">CommonModule</text>
</g>
<!-- CommonModule&#45;&gt;BlankPageModule -->
<g id="edge2" class="edge">
<title>CommonModule&#45;&gt;BlankPageModule</title>
<path fill="none" stroke="#000000" d="M263,-122.1061C263,-122.1061 263,-140.991 263,-140.991"/>
<polygon fill="#000000" stroke="#000000" points="259.5001,-140.9909 263,-150.991 266.5001,-140.991 259.5001,-140.9909"/>
</g>
<!-- BlankPageRoutingModule -->
<g id="node4" class="node">
<title>BlankPageRoutingModule</title>
<polygon fill="#8dd3c7" stroke="#000000" points="189.8215,-122 186.8215,-126 165.8215,-126 162.8215,-122 24.1785,-122 24.1785,-86 189.8215,-86 189.8215,-122"/>
<text text-anchor="middle" x="107" y="-99.8" font-family="Times,serif" font-size="14.00" fill="#000000">BlankPageRoutingModule</text>
</g>
<!-- BlankPageRoutingModule&#45;&gt;BlankPageModule -->
<g id="edge3" class="edge">
<title>BlankPageRoutingModule&#45;&gt;BlankPageModule</title>
<path fill="none" stroke="#000000" d="M107,-122.1061C107,-141.3391 107,-169 107,-169 107,-169 192.6863,-169 192.6863,-169"/>
<polygon fill="#000000" stroke="#000000" points="192.6864,-172.5001 202.6863,-169 192.6863,-165.5001 192.6864,-172.5001"/>
</g>
</g>
</svg>
