<?xml version="1.0" encoding="UTF-8" standalone="no"?>
<!DOCTYPE svg PUBLIC "-//W3C//DTD SVG 1.1//EN"
 "http://www.w3.org/Graphics/SVG/1.1/DTD/svg11.dtd">
<!-- Generated by graphviz version 2.40.1 (20161225.0304)
 -->
<!-- Title: dependencies Pages: 1 -->
<svg width="504pt" height="211pt"
 viewBox="0.00 0.00 504.00 211.00" xmlns="http://www.w3.org/2000/svg" xmlns:xlink="http://www.w3.org/1999/xlink">
<g id="graph0" class="graph" transform="scale(1 1) rotate(0) translate(4 207)">
<title>dependencies</title>
<polygon fill="#ffffff" stroke="transparent" points="-4,4 -4,-207 500,-207 500,4 -4,4"/>
<text text-anchor="start" x="227.0091" y="-42.4" font-family="sans-serif" font-weight="bold" font-size="14.00" fill="#000000">Legend</text>
<polygon fill="#ffffb3" stroke="transparent" points="14,-10 14,-30 34,-30 34,-10 14,-10"/>
<text text-anchor="start" x="37.629" y="-15.4" font-family="sans-serif" font-size="14.00" fill="#000000"> &#160;Declarations</text>
<polygon fill="#8dd3c7" stroke="transparent" points="127,-10 127,-30 147,-30 147,-10 127,-10"/>
<text text-anchor="start" x="150.7251" y="-15.4" font-family="sans-serif" font-size="14.00" fill="#000000"> &#160;Module</text>
<polygon fill="#80b1d3" stroke="transparent" points="213,-10 213,-30 233,-30 233,-10 213,-10"/>
<text text-anchor="start" x="236.7812" y="-15.4" font-family="sans-serif" font-size="14.00" fill="#000000"> &#160;Bootstrap</text>
<polygon fill="#fdb462" stroke="transparent" points="310,-10 310,-30 330,-30 330,-10 310,-10"/>
<text text-anchor="start" x="333.6732" y="-15.4" font-family="sans-serif" font-size="14.00" fill="#000000"> &#160;Providers</text>
<polygon fill="#fb8072" stroke="transparent" points="406,-10 406,-30 426,-30 426,-10 406,-10"/>
<text text-anchor="start" x="429.7258" y="-15.4" font-family="sans-serif" font-size="14.00" fill="#000000"> &#160;Exports</text>
<g id="clust1" class="cluster">
<title>cluster_NotFoundModule</title>
<polygon fill="none" stroke="#000000" stroke-dasharray="1,5" points="12,-70 12,-195 484,-195 484,-70 12,-70"/>
</g>
<g id="clust2" class="cluster">
<title>cluster_NotFoundModule_declarations</title>
<polygon fill="none" stroke="#000000" points="322,-78 322,-130 476,-130 476,-78 322,-78"/>
</g>
<g id="clust4" class="cluster">
<title>cluster_NotFoundModule_imports</title>
<polygon fill="none" stroke="#000000" points="20,-78 20,-130 314,-130 314,-78 20,-78"/>
</g>
<!-- NotFoundComponent -->
<g id="node1" class="node">
<title>NotFoundComponent</title>
<polygon fill="#ffffb3" stroke="#000000" points="468.1122,-122 329.8878,-122 329.8878,-86 468.1122,-86 468.1122,-122"/>
<text text-anchor="middle" x="399" y="-99.8" font-family="Times,serif" font-size="14.00" fill="#000000">NotFoundComponent</text>
</g>
<!-- NotFoundModule -->
<g id="node2" class="node">
<title>NotFoundModule</title>
<polygon fill="#8dd3c7" stroke="#000000" points="283.3301,-187 280.3301,-191 259.3301,-191 256.3301,-187 166.6699,-187 166.6699,-151 283.3301,-151 283.3301,-187"/>
<text text-anchor="middle" x="225" y="-164.8" font-family="Times,serif" font-size="14.00" fill="#000000">NotFoundModule</text>
</g>
<!-- NotFoundComponent&#45;&gt;NotFoundModule -->
<g id="edge1" class="edge">
<title>NotFoundComponent&#45;&gt;NotFoundModule</title>
<path fill="none" stroke="#000000" d="M399,-122.1061C399,-141.3391 399,-169 399,-169 399,-169 293.4235,-169 293.4235,-169"/>
<polygon fill="#000000" stroke="#000000" points="293.4236,-165.5001 283.4235,-169 293.4235,-172.5001 293.4236,-165.5001"/>
</g>
<!-- NotFoundRoutingModule -->
<g id="node3" class="node">
<title>NotFoundRoutingModule</title>
<polygon fill="#8dd3c7" stroke="#000000" points="305.948,-122 302.948,-126 281.948,-126 278.948,-122 144.052,-122 144.052,-86 305.948,-86 305.948,-122"/>
<text text-anchor="middle" x="225" y="-99.8" font-family="Times,serif" font-size="14.00" fill="#000000">NotFoundRoutingModule</text>
</g>
<!-- NotFoundRoutingModule&#45;&gt;NotFoundModule -->
<g id="edge2" class="edge">
<title>NotFoundRoutingModule&#45;&gt;NotFoundModule</title>
<path fill="none" stroke="#000000" d="M225,-122.1061C225,-122.1061 225,-140.991 225,-140.991"/>
<polygon fill="#000000" stroke="#000000" points="221.5001,-140.9909 225,-150.991 228.5001,-140.991 221.5001,-140.9909"/>
</g>
<!-- RouterModule -->
<g id="node4" class="node">
<title>RouterModule</title>
<polygon fill="#8dd3c7" stroke="#000000" points="125.6528,-122 122.6528,-126 101.6528,-126 98.6528,-122 28.3472,-122 28.3472,-86 125.6528,-86 125.6528,-122"/>
<text text-anchor="middle" x="77" y="-99.8" font-family="Times,serif" font-size="14.00" fill="#000000">RouterModule</text>
</g>
<!-- RouterModule&#45;&gt;NotFoundModule -->
<g id="edge3" class="edge">
<title>RouterModule&#45;&gt;NotFoundModule</title>
<path fill="none" stroke="#000000" d="M77,-122.1061C77,-141.3391 77,-169 77,-169 77,-169 156.5065,-169 156.5065,-169"/>
<polygon fill="#000000" stroke="#000000" points="156.5065,-172.5001 166.5065,-169 156.5064,-165.5001 156.5065,-172.5001"/>
</g>
</g>
</svg>
